<?xml version="1.0" standalone="no"?>
<!DOCTYPE svg PUBLIC "-//W3C//DTD SVG 20010904//EN"
 "http://www.w3.org/TR/2001/REC-SVG-20010904/DTD/svg10.dtd">
<svg version="1.0" xmlns="http://www.w3.org/2000/svg"
 width="86.000000pt" height="81.000000pt" viewBox="0 0 86.000000 81.000000"
 preserveAspectRatio="xMidYMid meet">

<g transform="translate(0.000000,81.000000) scale(0.100000,-0.100000)"
fill="#000000" stroke="none">
<path d="M115 748 c-33 -196 -104 -695 -100 -706 4 -11 53 -13 272 -10 266 3
268 3 325 30 171 80 260 261 214 436 -28 106 -104 197 -204 248 -57 29 -57 29
-279 32 l-222 3 -6 -33z m281 -100 c-3 -13 -6 -32 -6 -43 0 -11 -5 -27 -10
-35 -8 -12 -16 -8 -50 25 -22 21 -40 42 -40 46 0 5 19 12 43 17 66 15 70 15
63 -10z m84 -28 c28 -25 41 -43 35 -48 -11 -10 -97 -33 -103 -27 -6 6 10 115
17 115 3 -1 26 -19 51 -40z m-160 -54 l51 -48 -42 -77 c-23 -42 -57 -104 -76
-138 -57 -103 -31 -72 52 62 43 69 81 127 84 130 4 2 33 -22 65 -54 l57 -58
-110 -74 c-61 -41 -110 -77 -111 -81 0 -4 52 24 115 62 64 39 121 70 128 70 7
0 35 -22 62 -50 34 -35 44 -51 34 -54 -8 -3 -52 -14 -99 -25 -250 -58 -353
-81 -356 -78 -7 7 80 467 87 465 4 -2 31 -25 59 -52z m226 -43 c-2 -10 -8 -37
-11 -60 -4 -24 -10 -43 -14 -43 -10 0 -96 89 -90 94 7 7 73 24 97 25 18 1 22
-3 18 -16z m83 -44 c24 -22 41 -42 38 -45 -9 -10 -107 -32 -110 -26 -5 11 14
112 21 112 4 0 27 -19 51 -41z m46 -126 c-4 -27 -10 -51 -13 -55 -4 -4 -26 11
-50 34 -24 22 -42 41 -40 43 9 7 66 24 87 24 22 1 23 -1 16 -46z"/>
</g>
</svg>
