<?xml version="1.0" standalone="no"?>
<!DOCTYPE svg PUBLIC "-//W3C//DTD SVG 20010904//EN"
 "http://www.w3.org/TR/2001/REC-SVG-20010904/DTD/svg10.dtd">
<svg version="1.0" xmlns="http://www.w3.org/2000/svg"
 width="512.000000pt" height="512.000000pt" viewBox="0 0 512.000000 512.000000"
 preserveAspectRatio="xMidYMid meet">

<g transform="translate(0.000000,512.000000) scale(0.100000,-0.100000)"
fill="#000000" stroke="none">
<path d="M2515 5114 c-11 -3 -76 -23 -145 -44 -69 -22 -163 -50 -210 -64 -47
-13 -249 -74 -450 -134 -201 -60 -381 -114 -400 -120 -233 -67 -784 -236 -813
-249 -22 -9 -51 -33 -65 -52 l-27 -34 0 -1191 c0 -1318 -3 -1242 65 -1448 135
-404 526 -839 1125 -1249 328 -226 882 -529 965 -529 83 0 637 303 965 529
599 410 990 845 1125 1249 68 206 65 130 65 1448 l0 1191 -27 34 c-14 19 -43
43 -65 52 -29 13 -580 182 -813 249 -19 6 -199 60 -400 120 -201 60 -403 121
-450 134 -47 14 -142 43 -211 65 -127 39 -197 52 -234 43z m349 -299 l156 -75
0 -1898 c0 -1044 3 -1901 6 -1905 3 -3 79 43 169 101 l163 107 4 1362 3 1362
173 -131 172 -131 0 -1108 c0 -610 3 -1109 7 -1109 4 0 74 44 155 98 l148 97
2 1486 3 1487 175 -79 175 -78 3 -1454 2 -1455 -792 -549 c-436 -301 -814
-563 -840 -581 l-48 -33 0 2281 c0 1254 2 2280 4 2280 1 0 73 -34 160 -75z
m-656 -3329 l-3 -1116 -152 131 -153 131 0 1139 c0 626 -3 1140 -8 1143 -6 3
-797 -192 -838 -208 -12 -4 -14 -116 -16 -700 l-3 -695 -163 156 -162 155 0
1361 0 1362 159 88 c87 48 162 87 165 87 3 0 6 -320 6 -711 l0 -711 28 7 c15
3 207 52 427 108 l400 102 5 674 5 674 150 78 150 78 3 -1109 c1 -609 1 -1611
0 -2224z"/>
</g>
</svg>
