<?xml version="1.0" standalone="no"?>
<!DOCTYPE svg PUBLIC "-//W3C//DTD SVG 20010904//EN"
 "http://www.w3.org/TR/2001/REC-SVG-20010904/DTD/svg10.dtd">
<svg version="1.0" xmlns="http://www.w3.org/2000/svg"
 width="3442.000000pt" height="2700.000000pt" viewBox="0 0 3442.000000 2700.000000"
 preserveAspectRatio="xMidYMid meet">

<g transform="translate(0.000000,2700.000000) scale(0.100000,-0.100000)"
fill="#000000" stroke="none">
<path d="M28912 26985 c-660 -75 -1236 -294 -1702 -646 -599 -454 -976 -1091
-1109 -1879 -39 -229 -46 -329 -46 -655 0 -335 7 -435 51 -725 172 -1127 728
-2141 1599 -2915 50 -44 107 -94 128 -111 l38 -31 -83 18 c-414 89 -753 74
-1003 -45 -165 -79 -264 -172 -345 -327 -112 -214 -85 -421 73 -565 97 -89
251 -153 452 -190 125 -23 490 -26 635 -5 242 34 469 94 650 171 63 27 116 47
118 45 3 -3 -75 -189 -172 -413 -97 -225 -176 -412 -176 -416 0 -3 193 -6 430
-6 l430 0 4 -22 c2 -13 14 -75 26 -138 57 -309 215 -649 417 -900 71 -88 214
-227 297 -290 l59 -45 -2014 -5 -2014 -6 -97 -22 c-589 -135 -1001 -565 -1105
-1152 -17 -100 -18 -223 -18 -2815 0 -2537 1 -2716 17 -2807 54 -300 189 -561
397 -768 120 -119 215 -188 358 -259 218 -108 356 -141 633 -148 l195 -5 150
52 c1976 679 3571 1577 4570 2575 715 713 1091 1436 1122 2155 37 898 -523
1877 -1577 2755 -154 128 -364 287 -492 374 -43 28 -78 54 -78 56 0 3 107 5
239 5 l238 0 88 -62 c49 -35 167 -126 264 -204 1172 -939 1753 -1897 1754
-2889 0 -99 -6 -225 -12 -280 -148 -1233 -1151 -2416 -2981 -3517 -562 -338
-1244 -686 -1833 -934 l-188 -79 2908 -3 c3174 -3 3000 -6 3209 53 121 35 349
150 455 229 276 208 474 537 533 885 14 85 16 366 16 2821 0 2997 4 2793 -60
3002 -42 135 -138 321 -226 438 -197 262 -486 443 -832 522 l-97 22 -1500 6
-1500 5 -76 52 c-356 242 -625 570 -773 943 -45 115 -106 330 -106 376 l0 24
700 0 c385 0 700 2 700 5 0 3 -110 226 -245 495 -135 270 -242 490 -239 490 3
0 101 -36 218 -79 471 -176 805 -250 1081 -238 153 6 255 30 356 83 185 98
289 293 289 543 0 127 -18 207 -66 303 -134 265 -477 377 -984 321 l-55 -6 55
49 c283 250 547 554 765 879 145 217 224 353 340 590 271 553 467 1238 526
1840 15 153 15 517 0 660 -74 707 -357 1321 -826 1791 -241 242 -491 420 -825
588 -381 192 -743 302 -1225 372 -156 22 -734 28 -903 9z m773 -370 c1004
-107 1847 -606 2300 -1363 155 -259 264 -570 317 -907 19 -120 22 -181 23
-430 0 -317 -10 -422 -66 -715 -192 -991 -596 -1793 -1229 -2444 -429 -441
-917 -768 -1395 -936 -66 -23 -127 -48 -135 -55 -8 -6 -57 -29 -107 -50 -51
-21 -93 -41 -93 -45 0 -4 71 -38 158 -76 l157 -69 212 -420 c117 -231 212
-426 212 -432 1 -10 -150 -13 -724 -13 -432 0 -725 4 -725 9 0 5 97 235 215
511 118 276 215 503 215 505 0 2 -62 41 -137 86 -474 283 -791 527 -1139 874
-253 252 -413 443 -581 695 -409 613 -639 1277 -724 2085 -19 176 -16 619 5
785 99 797 431 1402 1013 1841 423 320 946 510 1573 572 105 11 529 5 655 -8z
m1825 -6777 c183 -35 261 -156 219 -338 -42 -183 -292 -219 -734 -105 -229 60
-726 238 -708 255 4 5 55 22 113 39 497 143 876 194 1110 149z m-3973 -137
c197 -29 543 -121 694 -185 l33 -14 -74 -37 c-420 -212 -1094 -269 -1374 -117
-89 49 -93 84 -20 183 66 90 184 155 322 179 89 15 283 10 419 -9z"/>
<path d="M17010 21340 l0 -1360 185 0 185 0 0 1360 0 1360 -185 0 -185 0 0
-1360z"/>
<path d="M19297 22273 c-4 -6 -929 -2367 -966 -2465 l-10 -27 170 -67 c96 -38
174 -63 179 -58 9 11 961 2439 967 2470 4 19 -11 28 -154 84 -87 34 -163 64
-169 67 -7 2 -14 1 -17 -4z"/>
<path d="M14972 22158 c-134 -58 -163 -75 -159 -89 15 -56 1022 -2369 1032
-2369 12 0 321 133 330 141 6 7 -1021 2383 -1031 2386 -5 1 -82 -30 -172 -69z"/>
<path d="M20402 20130 c-552 -507 -1002 -926 -1000 -931 6 -18 241 -270 249
-267 5 2 458 416 1009 922 l1000 918 -40 47 c-21 25 -79 88 -127 140 l-88 93
-1003 -922z"/>
<path d="M13080 20808 c-63 -72 -115 -136 -115 -143 0 -12 1932 -1735 1946
-1735 4 0 62 61 129 136 l122 137 -34 32 c-83 81 -1918 1705 -1925 1705 -4 -1
-60 -60 -123 -132z"/>
<path d="M21275 18773 c-621 -311 -1131 -566 -1133 -568 -3 -2 155 -324 163
-333 2 -2 516 254 1144 567 1111 556 1140 571 1132 594 -27 71 -153 307 -164
306 -6 0 -520 -255 -1142 -566z"/>
<path d="M12102 19065 l-82 -165 1080 -540 c594 -297 1084 -540 1090 -540 11
0 177 326 170 333 -13 12 -2152 1077 -2163 1077 -7 0 -49 -74 -95 -165z"/>
<path d="M14580 16781 c0 -253 87 -654 206 -956 206 -520 555 -947 1026 -1255
118 -78 339 -196 458 -245 36 -15 68 -30 72 -33 4 -4 52 -326 108 -717 55
-390 103 -722 106 -737 l6 -28 284 0 284 0 0 853 0 852 195 170 c107 93 195
172 195 175 0 3 -262 82 -582 174 -321 93 -589 172 -596 176 -16 8 -44 -6 585
286 249 115 453 212 453 215 0 3 -255 88 -567 189 -313 100 -574 186 -581 190
-9 4 108 125 355 366 202 197 369 361 371 365 4 10 -530 18 -1500 23 l-878 4
0 -67z"/>
<path d="M1230 16819 c-319 -41 -599 -177 -820 -399 -166 -165 -277 -347 -348
-570 -66 -209 -62 -1 -62 -3009 0 -2925 -2 -2797 49 -2971 147 -507 541 -876
1059 -991 90 -20 133 -23 581 -28 l484 -6 44 -85 c180 -342 467 -541 840 -581
59 -6 131 -9 159 -6 l51 5 53 -74 c67 -94 232 -253 330 -319 244 -163 491
-239 780 -239 455 0 1009 214 1483 573 l98 74 207 -101 c653 -317 1257 -510
1792 -572 202 -23 732 -7 943 29 1019 176 1704 853 1878 1858 64 376 18 701
-133 921 l-29 43 105 110 c356 372 479 818 340 1234 -128 382 -479 759 -1021
1095 l-103 64 0 1275 c0 802 -4 1320 -11 1395 -30 348 -187 672 -437 906 -186
175 -407 289 -681 352 l-96 23 -3735 1 c-2054 1 -3764 -2 -3800 -7z m2886
-2718 c196 -40 354 -106 516 -213 130 -86 323 -281 412 -416 l69 -103 26 18
c207 136 463 248 653 287 100 21 253 21 332 0 183 -47 347 -208 407 -399 13
-41 28 -75 33 -75 5 0 50 39 100 88 645 614 1597 609 2696 -14 157 -88 373
-230 513 -334 l97 -73 0 -190 c0 -147 -3 -188 -12 -184 -7 2 -70 48 -140 100
-591 445 -1189 713 -1717 768 -142 15 -412 7 -541 -16 -241 -43 -540 -170
-739 -312 -154 -111 -353 -311 -444 -447 -17 -26 -28 -35 -30 -25 -3 8 -16 62
-30 121 -62 262 -190 459 -350 538 -55 27 -81 33 -155 38 -48 2 -111 0 -140
-7 -182 -39 -422 -180 -649 -379 l-81 -72 -32 97 c-41 125 -125 303 -187 396
-106 160 -290 318 -449 386 -124 53 -187 65 -324 64 -467 -5 -931 -201 -1162
-491 -154 -194 -202 -419 -138 -652 27 -97 105 -257 169 -345 28 -38 50 -74
48 -80 -1 -5 -86 -51 -188 -101 -475 -234 -746 -455 -861 -699 -37 -81 -49
-195 -28 -271 64 -228 457 -493 1018 -688 57 -20 108 -38 112 -41 5 -3 -25
-53 -65 -113 -195 -287 -328 -574 -381 -823 -25 -116 -25 -340 0 -428 9 -36
26 -81 36 -102 11 -20 16 -39 13 -43 -4 -3 -79 -6 -168 -6 -125 0 -165 3 -174
14 -16 19 -50 120 -67 200 -62 293 12 701 197 1081 26 55 45 103 41 106 -4 4
-46 23 -95 43 -228 94 -471 235 -616 359 -127 108 -224 245 -264 372 -27 88
-29 221 -4 315 82 307 418 664 920 972 53 33 97 64 97 69 0 4 -12 34 -26 66
-203 452 -134 849 206 1183 132 130 333 266 485 329 151 63 406 129 585 151
119 14 360 5 476 -19z m6117 -1841 c188 -157 342 -342 436 -521 179 -343 150
-670 -88 -1003 -57 -80 -207 -240 -295 -314 l-49 -42 71 -74 c180 -190 230
-477 152 -864 -60 -293 -185 -563 -379 -817 -68 -90 -255 -279 -346 -350 -254
-199 -567 -343 -876 -404 -198 -39 -265 -45 -469 -46 -221 0 -295 10 -590 77
-539 122 -1169 367 -1714 666 l-129 70 -91 -77 c-387 -330 -809 -563 -1113
-616 -47 -8 -102 -15 -122 -15 -20 -1 -63 -7 -96 -15 -151 -37 -372 -9 -537
68 -178 82 -378 253 -519 445 l-42 58 -121 0 c-193 2 -380 47 -513 125 -64 38
-233 199 -233 223 0 14 318 16 3103 19 l3102 2 97 23 c283 65 505 188 703 386
241 243 374 532 405 876 6 69 10 555 10 1208 l0 1093 74 -51 c41 -28 117 -87
169 -130z"/>
<path d="M13430 16825 c-8 -2 -49 -9 -90 -15 -157 -25 -361 -105 -502 -195
-324 -209 -541 -530 -625 -925 -17 -81 -18 -218 -18 -2845 0 -2601 1 -2765 18
-2847 75 -371 283 -690 584 -895 147 -101 291 -165 472 -211 l106 -27 3810 0
3810 0 106 27 c259 66 475 186 654 362 205 202 333 437 397 729 l23 102 0
2760 0 2760 -23 102 c-80 364 -265 650 -560 866 -134 98 -302 174 -495 224
-98 25 -114 26 -444 30 l-343 5 0 -64 c0 -166 -35 -447 -82 -662 -171 -790
-644 -1452 -1328 -1860 -101 -60 -295 -158 -352 -178 -6 -2 -228 -1501 -228
-1538 0 -6 -389 -10 -1040 -10 l-1039 0 -6 33 c-3 17 -50 367 -105 777 -56
409 -102 745 -103 746 -1 1 -60 27 -131 58 -638 275 -1117 754 -1416 1414
-144 319 -256 730 -290 1067 -6 61 -13 134 -16 163 l-5 52 -362 -1 c-199 -1
-369 -3 -377 -4z m4890 -4770 l0 -135 -1020 0 -1020 0 0 135 0 135 1020 0
1020 0 0 -135z m0 -565 l0 -140 -1020 0 -1020 0 0 140 0 140 1020 0 1020 0 0
-140z m0 -525 l0 -135 -1020 0 -1020 0 0 135 0 135 1020 0 1020 0 0 -135z
m-690 -540 l0 -135 -350 0 -350 0 0 135 0 135 350 0 350 0 0 -135z"/>
<path d="M17136 16536 c-164 -161 -295 -295 -290 -298 5 -3 324 -101 709 -218
385 -117 705 -215 712 -219 6 -3 -230 -118 -525 -255 -295 -137 -539 -251
-542 -253 -9 -8 29 -23 447 -179 233 -87 422 -161 421 -165 -2 -4 -139 -125
-305 -269 l-303 -261 0 -805 0 -804 284 0 284 0 6 38 c3 20 47 348 96 727 50
380 93 704 96 722 5 29 13 34 87 64 550 217 996 628 1272 1170 175 344 302
782 330 1139 3 41 8 94 11 118 l5 42 -1248 -1 -1248 0 -299 -293z"/>
<path d="M5588 7711 c-171 -37 -323 -118 -437 -231 -123 -122 -189 -260 -199
-416 -21 -342 225 -630 624 -731 106 -27 372 -24 478 5 361 99 588 341 604
644 6 127 -9 201 -63 313 -92 192 -288 342 -530 406 -116 31 -356 36 -477 10z
m419 -356 c95 -32 132 -54 202 -120 145 -136 143 -299 -6 -435 -213 -195 -600
-191 -802 9 -73 71 -104 135 -104 212 0 165 186 327 418 363 71 11 215 -4 292
-29z"/>
<path d="M3955 7036 c-82 -19 -179 -57 -245 -96 -309 -182 -418 -561 -245
-856 87 -148 265 -259 480 -299 109 -21 326 -16 419 10 260 70 426 218 490
434 21 70 21 227 1 306 -30 116 -81 203 -174 296 -72 71 -104 94 -182 133 -51
25 -121 53 -154 62 -82 22 -310 28 -390 10z m320 -352 c139 -47 240 -159 252
-280 13 -121 -90 -234 -247 -272 -176 -42 -362 -11 -464 80 -63 54 -86 102
-86 176 0 76 35 146 103 208 61 54 107 79 185 99 69 18 186 13 257 -11z"/>
<path d="M2480 6469 c-218 -27 -370 -118 -442 -267 -32 -64 -33 -72 -33 -187
0 -114 2 -123 32 -187 58 -122 168 -206 330 -250 65 -17 106 -21 243 -21 182
-1 263 15 376 70 172 84 266 264 237 453 -38 243 -231 378 -563 394 -58 2
-139 0 -180 -5z m315 -363 c58 -25 85 -54 85 -92 0 -44 -52 -88 -120 -103 -77
-16 -247 -14 -310 5 -62 18 -110 61 -110 97 0 34 52 84 98 96 20 5 46 12 57
15 45 12 260 -1 300 -18z"/>
<path d="M1080 6140 c-72 -11 -153 -42 -213 -79 -115 -74 -182 -247 -157 -410
37 -240 224 -361 535 -348 145 6 252 37 343 97 68 46 102 86 140 168 24 50 27
69 27 157 0 93 -2 105 -32 166 -57 114 -165 194 -318 234 -73 19 -250 27 -325
15z m275 -362 c17 -9 38 -25 49 -36 18 -20 18 -21 -7 -46 -34 -34 -95 -49
-199 -50 -73 0 -92 3 -115 20 -48 36 -43 96 10 120 43 20 219 14 262 -8z"/>
<path d="M25302 3930 c-198 -36 -343 -143 -427 -314 -70 -141 -87 -222 -88
-406 -1 -223 36 -361 135 -501 105 -150 276 -229 498 -229 124 0 195 16 300
67 145 71 261 234 295 416 l7 38 -148 -3 -147 -3 -19 -56 c-23 -68 -73 -129
-136 -167 -43 -25 -56 -27 -147 -27 -91 0 -104 2 -147 27 -126 75 -188 216
-188 434 0 115 21 229 55 295 47 90 150 164 247 175 147 17 280 -64 319 -193
l12 -43 149 0 148 0 0 28 c-1 41 -41 151 -80 216 -64 106 -186 193 -326 230
-73 20 -241 28 -312 16z"/>
<path d="M19820 3790 l0 -130 135 0 135 0 0 130 0 130 -135 0 -135 0 0 -130z"/>
<path d="M30700 3790 l0 -130 140 0 141 0 -3 128 -3 127 -137 3 -138 3 0 -131z"/>
<path d="M12770 3205 l0 -695 145 0 145 0 0 695 0 695 -145 0 -145 0 0 -695z"/>
<path d="M23762 3208 l3 -693 138 -3 137 -3 0 696 0 695 -140 0 -140 0 2 -692z"/>
<path d="M27392 3208 l3 -693 135 0 135 0 3 693 2 692 -140 0 -140 0 2 -692z"/>
<path d="M27922 3208 l3 -693 138 -3 137 -3 0 696 0 695 -140 0 -140 0 2 -692z"/>
<path d="M14508 3683 l-3 -138 -67 -3 -68 -3 0 -99 0 -100 70 0 70 0 0 -347
c0 -323 2 -351 20 -391 16 -36 29 -47 77 -69 54 -25 68 -27 198 -28 l140 0 3
108 3 107 -69 0 c-39 0 -73 5 -80 12 -9 9 -12 92 -12 310 l0 298 80 0 80 0 0
100 0 100 -80 0 -80 0 0 140 0 140 -140 0 -139 0 -3 -137z"/>
<path d="M19200 3680 l0 -140 -70 0 -71 0 3 -97 3 -98 67 -3 67 -3 3 -352 c3
-334 4 -354 24 -387 44 -75 136 -103 319 -98 l100 3 0 105 0 105 -65 3 c-105
5 -100 -13 -100 328 l0 293 83 3 82 3 3 97 3 97 -83 3 -83 3 -3 138 -3 137
-139 0 -140 0 0 -140z"/>
<path d="M32320 3680 l0 -140 -65 0 -65 0 0 -100 0 -100 64 0 64 0 4 -347 c3
-341 3 -349 26 -391 19 -35 35 -49 80 -70 53 -24 68 -26 197 -27 l140 0 3 108
3 107 -70 0 c-105 0 -101 -13 -101 332 l0 288 85 0 85 0 0 100 0 99 -82 3 -83
3 -3 138 -3 137 -139 0 -140 0 0 -140z"/>
<path d="M1775 3789 c-562 -57 -880 -283 -1029 -730 -36 -105 -81 -332 -72
-356 4 -10 90 -13 404 -13 l399 0 13 62 c6 34 21 86 32 116 26 70 121 172 193
207 133 65 394 72 581 14 55 -17 77 -31 130 -82 52 -51 65 -72 79 -121 24 -83
18 -190 -14 -234 -33 -46 -95 -89 -153 -107 -28 -8 -246 -44 -486 -80 -240
-36 -472 -75 -516 -86 -434 -110 -690 -378 -751 -786 -48 -320 25 -623 199
-820 101 -114 270 -211 453 -260 91 -25 114 -27 303 -27 222 -1 283 7 435 55
176 56 330 149 479 291 l93 87 12 -87 c7 -48 24 -129 38 -180 l26 -92 453 0
454 0 0 65 c0 60 -2 65 -27 79 -35 18 -86 72 -106 111 -8 17 -23 64 -33 105
-15 68 -18 175 -23 1110 -8 1149 -3 1073 -76 1227 -86 183 -199 289 -419 393
-215 103 -411 141 -746 145 -129 2 -275 -1 -325 -6z m735 -2215 c-25 -118
-110 -245 -222 -329 -135 -101 -276 -152 -449 -162 -91 -5 -116 -3 -175 16
-174 54 -262 188 -252 386 6 111 34 180 102 253 86 91 211 140 488 188 205 35
365 77 446 117 l67 32 3 -225 c1 -130 -2 -246 -8 -276z"/>
<path d="M5020 3789 c-434 -53 -770 -244 -975 -553 -151 -230 -247 -515 -286
-856 -19 -161 -16 -502 5 -644 101 -691 462 -1104 1074 -1227 152 -30 471 -38
632 -15 561 81 935 389 1110 915 39 116 75 285 64 302 -3 5 -188 9 -424 9
l-418 0 -7 -42 c-19 -127 -85 -258 -175 -349 -113 -115 -221 -159 -385 -159
-174 0 -290 45 -400 155 -118 117 -179 266 -211 509 -23 172 -15 554 14 677
68 287 209 473 417 551 52 19 80 22 215 23 155 0 155 0 224 -33 48 -23 89 -52
135 -100 75 -76 117 -153 154 -282 l25 -85 421 -3 421 -2 0 37 c0 21 -7 77
-15 126 -97 550 -449 901 -1029 1023 -100 21 -155 26 -316 29 -107 2 -229 0
-270 -6z"/>
<path d="M8585 3790 c-33 -5 -98 -21 -145 -36 -230 -71 -399 -204 -518 -409
l-47 -79 -5 224 -5 225 -400 0 -400 0 -3 -1577 -2 -1578 420 0 419 0 4 1037
c4 1144 1 1100 67 1240 34 73 123 169 188 202 133 68 391 68 524 0 59 -30 135
-111 164 -173 59 -128 57 -97 61 -1248 l4 -1058 414 0 414 0 4 1018 c4 1135 1
1092 74 1242 40 83 110 160 184 203 110 65 315 86 443 47 133 -41 239 -177
282 -360 16 -68 18 -165 21 -1112 l4 -1038 419 0 420 0 0 1088 c0 600 -5 1138
-10 1202 -44 533 -371 868 -918 941 -117 16 -327 6 -417 -19 -219 -60 -383
-175 -532 -372 -35 -47 -68 -83 -71 -80 -4 3 -31 39 -61 80 -146 205 -304 319
-511 371 -97 24 -380 35 -485 19z"/>
<path d="M13765 3557 c-72 -24 -122 -55 -159 -99 l-36 -43 0 63 0 62 -135 0
-135 0 2 -512 3 -513 135 0 135 0 5 335 c5 323 6 337 27 377 13 23 39 54 60
70 31 24 47 29 114 32 l78 3 40 -38 c57 -54 61 -86 61 -465 l0 -319 135 0 135
0 0 400 c0 383 -1 402 -21 456 -29 76 -84 135 -162 170 -50 23 -79 28 -152 31
-56 2 -105 -2 -130 -10z"/>
<path d="M15383 3556 c-133 -33 -231 -110 -287 -229 -48 -102 -61 -165 -60
-297 2 -239 77 -401 222 -478 79 -42 168 -62 283 -62 200 0 352 84 423 234 13
28 27 61 31 74 l6 22 -143 0 -143 -1 -20 -31 c-33 -52 -79 -73 -160 -72 -80 0
-117 16 -162 68 -30 34 -46 70 -57 134 l-5 32 349 0 350 0 0 80 c0 159 -48
310 -129 401 -46 53 -132 102 -216 124 -70 18 -209 18 -282 1z m227 -238 c52
-27 98 -87 107 -141 l6 -37 -202 0 c-110 0 -201 1 -201 3 0 2 7 26 15 53 15
52 70 115 115 133 44 17 113 12 160 -11z"/>
<path d="M16638 3560 c-61 -18 -110 -56 -149 -113 l-39 -59 0 76 0 76 -135 0
-135 0 0 -515 0 -516 138 3 137 3 5 315 c6 349 5 347 74 408 40 35 121 56 197
50 l49 -3 0 143 0 142 -57 -1 c-32 0 -70 -4 -85 -9z"/>
<path d="M17383 3556 c-58 -19 -105 -50 -147 -96 l-36 -40 0 60 0 60 -135 0
-135 0 0 -515 0 -516 138 3 137 3 5 340 c6 377 5 372 74 433 41 36 84 46 162
40 55 -5 91 -27 117 -73 8 -14 14 -134 17 -380 l5 -360 138 -3 137 -3 0 389
c0 325 -3 397 -16 442 -30 101 -80 157 -180 201 -62 28 -217 36 -281 15z"/>
<path d="M18348 3555 c-124 -31 -198 -88 -242 -185 -31 -69 -49 -160 -32 -166
7 -3 68 -3 136 -2 l124 3 7 35 c16 77 107 121 211 102 64 -12 95 -35 107 -78
21 -78 -10 -96 -223 -128 -199 -31 -267 -56 -326 -123 -53 -60 -75 -128 -74
-228 1 -140 59 -229 180 -275 50 -19 74 -21 159 -18 114 5 164 22 252 89 51
38 53 39 53 16 0 -13 5 -38 11 -56 l11 -32 146 3 c134 3 147 5 150 21 2 11 -9
32 -25 49 l-28 29 -5 368 -5 367 -30 60 c-25 48 -41 65 -85 92 -30 18 -77 40
-105 49 -70 22 -292 27 -367 8z m322 -612 c0 -86 -16 -133 -63 -180 -118 -123
-313 -83 -294 60 9 62 56 103 142 122 39 9 99 24 135 34 36 10 68 19 73 20 4
0 7 -25 7 -56z"/>
<path d="M20700 3564 c-266 -52 -413 -240 -414 -529 -1 -177 44 -306 139 -401
96 -96 224 -144 385 -144 110 0 184 17 271 61 184 92 283 320 249 568 -29 214
-139 357 -321 420 -63 22 -246 37 -309 25z m242 -269 c28 -21 53 -50 73 -90
28 -55 30 -65 30 -174 0 -100 -4 -123 -24 -169 -31 -70 -88 -118 -157 -133
-131 -29 -243 41 -279 174 -35 131 -5 306 63 370 52 48 81 57 169 55 72 -3 86
-6 125 -33z"/>
<path d="M21963 3551 c-69 -23 -128 -65 -156 -110 l-22 -36 -3 68 -3 67 -135
0 -134 0 2 -512 3 -513 137 -3 137 -3 3 333 c3 241 7 341 16 363 16 37 68 92
104 111 41 21 146 18 185 -6 69 -42 68 -35 71 -437 l3 -364 137 3 137 3 3 365
c2 242 -1 385 -8 425 -24 127 -96 208 -218 245 -81 25 -188 26 -259 1z"/>
<path d="M22940 3556 c-112 -24 -198 -83 -240 -166 -24 -46 -53 -166 -45 -180
4 -6 64 -10 135 -10 l128 0 7 31 c10 45 60 97 107 109 63 18 144 3 185 -33 30
-26 34 -35 31 -70 -5 -61 -27 -72 -221 -101 -241 -37 -315 -73 -368 -182 -23
-46 -33 -83 -37 -133 -10 -140 36 -236 141 -292 54 -29 73 -34 153 -37 133 -6
230 25 311 101 l32 30 6 -29 c4 -16 10 -40 14 -54 l8 -25 149 0 c137 0 149 1
152 18 2 11 -9 32 -25 49 l-28 29 -5 362 c-5 354 -6 363 -29 415 -55 122 -192
183 -410 181 -53 0 -121 -6 -151 -13z m305 -714 c-9 -46 -66 -105 -127 -132
-114 -49 -218 -4 -218 93 0 89 46 127 180 151 49 10 107 23 127 30 l38 13 3
-61 c2 -34 0 -76 -3 -94z"/>
<path d="M26535 3556 c-242 -59 -385 -253 -385 -526 0 -334 203 -540 530 -540
218 0 384 94 464 263 19 39 39 96 45 125 16 77 14 247 -4 317 -48 188 -178
315 -367 360 -75 18 -213 18 -283 1z m232 -237 c47 -17 111 -88 130 -143 24
-71 24 -223 -1 -295 -27 -79 -87 -136 -160 -151 -60 -12 -124 -6 -167 16 -44
22 -97 90 -113 145 -20 67 -21 210 -1 275 17 58 70 124 117 147 38 19 152 23
195 6z"/>
<path d="M28730 3559 c-75 -14 -184 -74 -230 -126 -92 -105 -137 -258 -127
-437 10 -175 48 -283 130 -373 48 -53 150 -106 236 -124 84 -17 263 -7 331 19
121 48 205 132 250 250 l20 52 -140 0 -140 0 -41 -45 c-42 -45 -85 -65 -144
-65 -93 0 -184 67 -210 153 -28 95 -61 86 333 89 l347 3 3 58 c5 87 -24 229
-62 312 -56 121 -147 195 -283 230 -62 16 -200 18 -273 4z m197 -230 c40 -15
92 -67 114 -114 36 -78 44 -75 -181 -75 -219 0 -210 -3 -189 61 36 107 154
167 256 128z"/>
<path d="M29775 3553 c-119 -43 -193 -108 -245 -218 -79 -165 -79 -424 -1
-591 42 -90 106 -154 193 -195 70 -32 78 -34 188 -34 102 0 120 3 160 24 25
13 62 42 84 65 l39 41 -6 -97 c-7 -112 -22 -153 -65 -190 -45 -38 -95 -51
-171 -46 -80 6 -130 30 -144 69 l-11 29 -154 0 -154 0 7 -32 c29 -138 126
-225 292 -264 96 -23 312 -15 405 15 130 42 211 119 248 237 19 63 20 92 20
620 l0 554 -130 0 -130 0 0 -61 0 -61 -47 50 c-66 70 -125 95 -238 99 -68 3
-102 -1 -140 -14z m249 -234 c54 -15 119 -83 142 -150 24 -71 25 -205 1 -275
-17 -49 -69 -110 -112 -132 -109 -53 -242 12 -279 137 -20 69 -21 202 0 270
17 58 72 127 119 147 37 16 78 17 129 3z"/>
<path d="M31474 3555 c-150 -33 -240 -120 -273 -266 -22 -95 -29 -90 120 -87
l131 3 14 40 c19 56 61 91 120 100 61 8 142 -10 171 -37 32 -30 40 -83 17
-109 -30 -33 -42 -36 -210 -63 -242 -38 -311 -71 -369 -177 -25 -47 -30 -67
-33 -151 -4 -91 -3 -101 26 -162 54 -114 150 -162 316 -154 103 4 177 32 251
93 l42 34 12 -55 12 -54 150 0 c147 0 149 0 149 22 0 12 -9 32 -21 44 -11 12
-25 39 -30 61 -5 21 -9 185 -9 364 0 352 -3 377 -55 445 -77 101 -329 153
-531 109z m315 -638 c-3 -71 -8 -90 -31 -125 -39 -57 -104 -93 -182 -99 -62
-5 -65 -4 -101 29 -34 31 -38 41 -38 81 0 87 47 126 186 152 51 10 106 24 122
31 17 7 34 13 39 13 4 1 6 -36 5 -82z"/>
<path d="M33198 3554 c-230 -55 -360 -264 -344 -554 18 -345 180 -510 502
-510 122 0 202 22 290 78 76 49 139 135 168 230 l7 22 -143 0 -144 0 -17 -29
c-24 -40 -76 -71 -134 -77 -125 -15 -223 63 -248 199 l-7 37 351 0 351 0 0 73
c-1 161 -54 326 -134 414 -43 48 -131 97 -211 118 -72 18 -210 18 -287 -1z
m228 -235 c47 -22 84 -66 102 -118 22 -64 31 -61 -189 -61 l-201 0 7 33 c27
131 164 203 281 146z"/>
<path d="M19820 3025 l0 -515 135 0 135 0 0 515 0 515 -135 0 -135 0 0 -515z"/>
<path d="M30700 3025 l0 -516 138 3 137 3 3 513 2 512 -140 0 -140 0 0 -515z"/>
<path d="M26228 2040 c-310 -56 -483 -265 -518 -625 -21 -213 24 -432 119
-578 108 -165 277 -247 511 -247 295 0 491 138 575 403 40 126 49 118 -121
115 l-146 -3 -15 -45 c-32 -96 -113 -178 -196 -201 -58 -16 -174 -7 -222 16
-129 63 -205 225 -205 440 0 222 80 386 218 448 56 25 176 29 236 8 72 -25
176 -147 176 -206 0 -13 22 -15 150 -15 l150 0 0 29 c0 49 -38 155 -78 217
-73 112 -188 193 -327 229 -72 19 -242 27 -307 15z"/>
<path d="M22340 1895 l0 -125 140 0 140 0 0 125 0 125 -140 0 -140 0 0 -125z"/>
<path d="M12790 1315 l0 -696 148 3 147 3 3 247 2 248 191 0 c228 0 299 13
387 70 69 44 100 81 141 170 101 216 32 496 -147 593 -97 53 -135 57 -519 57
l-353 0 0 -695z m645 434 c59 -17 112 -74 120 -132 16 -106 -18 -186 -95 -224
-40 -21 -58 -23 -207 -23 l-163 0 0 195 0 195 153 0 c83 0 170 -5 192 -11z"/>
<path d="M29508 1793 l-3 -138 -68 -3 -68 -3 3 -97 3 -97 68 -3 67 -3 0 -332
c0 -198 4 -347 10 -369 15 -53 53 -94 108 -115 37 -14 76 -18 187 -18 l140 0
0 105 0 105 -62 2 c-111 3 -103 -22 -103 323 l0 299 83 3 82 3 3 98 3 97 -86
0 -85 0 0 140 0 140 -140 0 -139 0 -3 -137z"/>
<path d="M32280 1790 l0 -140 -65 0 -65 0 0 -100 0 -100 64 0 64 0 4 -347 3
-348 25 -44 c43 -75 122 -101 311 -101 l109 0 0 109 0 109 -67 -1 c-107 0
-103 -11 -103 334 l0 289 85 0 85 0 0 100 0 99 -82 3 -83 3 -3 138 -3 137
-139 0 -140 0 0 -140z"/>
<path d="M14486 1664 c-57 -21 -99 -56 -137 -116 l-34 -53 -3 78 -3 77 -129 0
-130 0 0 -515 0 -515 134 0 134 0 4 308 c3 213 8 316 17 337 35 86 126 135
248 135 l64 0 -3 138 -3 137 -60 2 c-33 1 -78 -5 -99 -13z"/>
<path d="M15076 1664 c-84 -20 -188 -78 -240 -134 -55 -59 -101 -149 -122
-237 -22 -93 -14 -285 14 -365 59 -165 171 -268 342 -313 65 -17 217 -19 292
-4 87 18 191 74 248 135 159 168 187 478 64 705 -55 100 -187 190 -322 218
-71 15 -204 13 -276 -5z m250 -240 c52 -25 101 -86 120 -150 12 -42 15 -84 12
-163 -4 -116 -16 -150 -72 -209 -48 -52 -82 -66 -161 -66 -143 -1 -217 79
-240 259 -8 62 10 175 34 224 23 43 76 96 111 110 41 16 158 13 196 -5z"/>
<path d="M16207 1670 c-62 -16 -136 -59 -184 -106 -194 -194 -185 -669 15
-845 20 -18 66 -46 102 -63 61 -29 72 -31 180 -31 106 0 119 2 166 27 29 15
66 44 83 65 l31 38 0 -67 c0 -103 -17 -164 -57 -209 -43 -47 -94 -63 -183 -57
-79 6 -124 27 -142 68 l-13 30 -151 0 -151 0 8 -47 c23 -122 124 -211 281
-248 85 -20 270 -19 361 1 87 20 173 62 217 106 47 47 88 141 100 229 5 40 10
302 10 582 l0 507 -135 0 -135 0 0 -61 0 -61 -47 50 c-66 70 -126 95 -233 98
-47 2 -102 -1 -123 -6z m226 -241 c53 -14 101 -61 134 -127 25 -51 28 -67 28
-162 0 -95 -3 -110 -28 -163 -34 -69 -76 -103 -144 -117 -142 -31 -240 68
-251 251 -7 129 16 207 78 270 58 58 105 70 183 48z"/>
<path d="M17560 1671 c-68 -21 -121 -65 -166 -138 l-23 -38 -1 78 0 77 -135 0
-135 0 2 -512 3 -513 135 0 135 0 5 310 c4 277 7 314 24 348 40 80 132 123
247 115 l49 -3 0 143 0 142 -57 -1 c-32 0 -69 -4 -83 -8z"/>
<path d="M18104 1665 c-73 -16 -149 -53 -188 -91 -50 -50 -118 -226 -100 -256
3 -5 63 -8 134 -8 l129 0 10 38 c22 78 96 118 200 106 39 -5 62 -14 88 -37 30
-26 34 -35 31 -70 -5 -62 -27 -72 -222 -101 -243 -37 -322 -79 -378 -201 -29
-64 -32 -218 -5 -277 25 -55 74 -106 131 -136 47 -25 60 -27 171 -27 109 0
125 2 175 26 30 15 72 40 94 58 47 37 56 39 56 7 0 -14 4 -36 10 -51 l10 -26
147 3 c135 3 148 5 151 21 2 11 -9 32 -25 49 l-28 29 -5 367 c-5 324 -7 372
-23 407 -38 85 -124 145 -246 171 -82 17 -236 17 -317 -1z m295 -737 c-16 -40
-90 -102 -137 -116 -58 -18 -113 -15 -150 8 -78 48 -66 172 21 213 19 9 77 26
128 36 52 11 105 23 119 29 l25 9 3 -75 c2 -43 -2 -88 -9 -104z"/>
<path d="M19363 1666 c-59 -19 -107 -51 -147 -99 l-36 -42 0 63 0 62 -130 0
-130 0 0 -515 0 -515 134 0 135 0 3 353 c3 388 3 386 68 441 27 22 41 26 93
26 68 0 116 -21 139 -62 10 -17 14 -113 18 -388 l5 -365 137 -3 137 -3 3 353
c3 335 4 355 24 388 32 56 77 80 146 80 54 0 63 -3 93 -33 18 -18 38 -51 44
-72 7 -26 11 -163 11 -378 l0 -338 138 3 137 3 3 374 c2 407 -2 449 -54 538
-68 117 -274 177 -421 121 -41 -15 -73 -37 -109 -74 l-51 -52 -29 38 c-36 48
-79 78 -140 96 -58 17 -165 17 -221 0z"/>
<path d="M21075 1666 c-78 -25 -141 -72 -173 -131 -9 -16 -11 -7 -12 48 l0 67
-135 0 -135 0 2 -512 3 -513 138 -3 137 -3 0 333 c0 183 5 351 10 373 6 26 23
53 49 78 38 35 44 37 105 37 59 0 69 -3 100 -31 20 -17 40 -47 46 -67 6 -22
10 -178 10 -380 l0 -343 138 3 137 3 5 350 c5 330 6 352 26 385 31 54 77 80
141 80 65 0 102 -22 129 -77 17 -35 19 -70 22 -391 l3 -353 137 3 137 3 3 340
c2 192 -2 374 -7 417 -18 134 -73 212 -186 265 -53 24 -72 28 -160 28 -90 0
-105 -3 -152 -27 -28 -15 -68 -47 -89 -71 l-38 -44 -55 57 c-42 42 -70 60
-110 73 -62 20 -168 21 -226 3z"/>
<path d="M23313 1661 c-69 -23 -128 -65 -156 -110 l-22 -36 -3 68 -3 67 -135
0 -134 0 2 -512 3 -513 137 -3 137 -3 3 333 c4 361 5 367 61 427 42 44 84 61
154 61 74 0 117 -25 143 -83 18 -39 20 -68 20 -390 l0 -348 138 3 137 3 3 374
c2 407 -2 449 -54 538 -67 116 -279 177 -431 124z"/>
<path d="M24295 1663 c-120 -43 -193 -108 -245 -218 -79 -165 -79 -424 -1
-591 42 -90 106 -154 193 -195 70 -32 78 -34 188 -34 106 0 119 2 166 27 28
15 66 44 83 65 l32 38 -5 -96 c-6 -112 -16 -142 -59 -187 -37 -38 -80 -52
-162 -52 -79 0 -142 29 -158 70 l-11 30 -154 0 -154 0 7 -33 c39 -184 194
-277 466 -277 250 0 407 78 470 236 l24 59 3 573 3 572 -131 0 -130 0 0 -62 0
-63 -40 47 c-60 69 -132 100 -245 105 -69 3 -102 -1 -140 -14z m296 -258 c105
-69 147 -254 94 -406 -17 -47 -64 -103 -105 -124 -112 -57 -246 6 -284 134
-20 70 -21 202 0 270 18 62 81 136 128 151 49 15 124 4 167 -25z"/>
<path d="M27490 1673 c-108 -18 -243 -90 -298 -160 -175 -221 -156 -612 38
-787 49 -44 142 -91 217 -111 73 -19 233 -19 306 0 240 62 370 248 370 525 0
282 -135 466 -384 525 -59 14 -190 18 -249 8z m220 -256 c92 -48 139 -171 126
-324 -12 -142 -75 -230 -182 -254 -112 -25 -214 25 -266 129 -20 41 -23 62
-23 167 0 104 3 127 23 170 13 27 33 61 45 74 58 63 194 82 277 38z"/>
<path d="M28765 1666 c-67 -21 -108 -47 -152 -95 l-43 -46 0 63 0 62 -135 0
-135 0 2 -512 3 -513 138 -3 137 -3 0 305 c0 349 5 390 58 448 49 54 80 68
154 68 74 0 118 -22 145 -72 16 -30 18 -69 21 -391 l3 -358 137 3 137 3 0 400
c0 359 -2 405 -18 445 -40 101 -108 162 -216 194 -64 19 -180 20 -236 2z"/>
<path d="M30401 1669 c-67 -13 -164 -62 -214 -108 -55 -51 -111 -156 -133
-247 -25 -108 -16 -315 19 -413 50 -143 129 -224 262 -273 73 -26 254 -36 335
-19 82 18 174 68 225 122 42 45 105 157 105 187 0 9 -34 12 -136 12 l-136 0
-41 -45 c-54 -58 -111 -75 -193 -57 -97 20 -157 86 -171 187 l-6 45 347 0
c291 0 348 2 352 14 10 25 -16 232 -35 288 -59 173 -167 273 -329 307 -61 13
-187 13 -251 0z m205 -238 c51 -23 99 -81 113 -134 5 -23 9 -43 7 -44 -2 -2
-93 -2 -204 -1 l-201 3 18 53 c41 121 156 174 267 123z"/>
<path d="M31442 1669 c-175 -34 -286 -161 -286 -329 0 -184 86 -251 408 -322
154 -33 188 -46 212 -83 13 -20 14 -28 2 -51 -27 -55 -60 -69 -166 -69 -72 1
-105 5 -129 18 -39 21 -70 59 -78 97 l-7 30 -140 0 -141 0 6 -54 c20 -192 200
-306 481 -306 162 0 280 34 363 104 70 59 114 201 93 300 -31 151 -121 203
-482 281 -96 20 -142 49 -146 91 -7 68 106 111 218 84 55 -13 97 -53 107 -101
l6 -29 135 0 135 0 -6 55 c-7 66 -58 167 -102 201 -49 37 -135 72 -205 83 -75
13 -216 13 -278 0z"/>
<path d="M22340 1135 l0 -516 138 3 137 3 3 513 2 512 -140 0 -140 0 0 -515z"/>
</g>
</svg>
