<?xml version="1.0" encoding="UTF-8" standalone="no"?>
<!-- Created with Inkscape (http://www.inkscape.org/) -->

<svg
   width="39.11438mm"
   height="39.046021mm"
   viewBox="0 0 39.11438 39.046019"
   version="1.1"
   id="svg5"
   inkscape:version="1.1.2 (b8e25be833, 2022-02-05)"
   sodipodi:docname="test.svg"
   xmlns:inkscape="http://www.inkscape.org/namespaces/inkscape"
   xmlns:sodipodi="http://sodipodi.sourceforge.net/DTD/sodipodi-0.dtd"
   xmlns="http://www.w3.org/2000/svg"
   xmlns:svg="http://www.w3.org/2000/svg">
  <sodipodi:namedview
     id="namedview7"
     pagecolor="#ffffff"
     bordercolor="#666666"
     borderopacity="1.0"
     inkscape:pageshadow="2"
     inkscape:pageopacity="0.0"
     inkscape:pagecheckerboard="0"
     inkscape:document-units="mm"
     showgrid="false"
     inkscape:zoom="2.5620932"
     inkscape:cx="195.15294"
     inkscape:cy="-14.441317"
     inkscape:window-width="2560"
     inkscape:window-height="1506"
     inkscape:window-x="-11"
     inkscape:window-y="-11"
     inkscape:window-maximized="1"
     inkscape:current-layer="text5971"
     fit-margin-top="0"
     fit-margin-left="3.8"
     fit-margin-right="0"
     fit-margin-bottom="0"
     lock-margins="false" />
  <defs
     id="defs2">
    <rect
       x="154.56113"
       y="359.08139"
       width="243.55086"
       height="207.64272"
       id="rect5973" />
  </defs>
  <g
     inkscape:label="Layer 1"
     inkscape:groupmode="layer"
     id="layer1"
     transform="translate(-41.266214,-96.420538)">
    <g
       aria-label="S4Lab"
       transform="scale(0.26458333)"
       id="text5971"
       style="font-size:40px;line-height:1.25;font-family:'Rockwell Nova';-inkscape-font-specification:'Rockwell Nova';white-space:pre;shape-inside:url(#rect5973)">
      <path
         d="m 188.72587,426.0748 v -2.01171 h 3.59375 v 8.92578 h -3.59375 v -2.03125 q -2.28516,-3.4375 -6.25,-3.4375 -2.42188,0 -3.71094,0.97656 -1.28906,0.97656 -1.28906,2.8125 0,1.75781 1.21094,2.67578 1.23047,0.91797 3.75,1.5625 l 3.45703,0.91797 q 3.30078,0.87891 5.05859,2.32422 1.77735,1.44531 2.30469,3.0664 0.54687,1.6211 0.54687,3.61329 0,4.0039 -2.5,6.34765 -2.5,2.34375 -6.69921,2.34375 -4.00391,0 -7.28516,-2.92969 v 2.44141 h -3.67188 V 442.9498 h 3.67188 v 2.59766 q 2.63672,4.84375 6.875,4.84375 2.48047,0 3.84766,-1.26953 1.36718,-1.28906 1.36718,-3.61328 0,-3.16406 -4.45312,-4.39453 l -3.67188,-1.03516 q -3.96484,-1.13281 -5.85937,-3.06641 -1.89453,-1.93359 -1.89453,-5.09765 0,-3.88672 2.28515,-6.01563 2.30469,-2.14843 6.34766,-2.14843 3.51562,0 6.5625,2.32421 z"
         id="path13882" />
      <path
         d="m 216.81181,442.18809 v 3.55468 h -4.6875 v 4.33594 h 2.69531 v 3.59375 h -9.72656 v -3.59375 h 3.125 v -4.33594 h -9.88282 q -0.5664,-1.95312 -1.93359,-3.30078 l 12.28516,-18.45703 h 3.4375 v 18.20313 z m -8.59375,0 v -11.60157 l -7.73438,11.60157 z"
         id="path13884" />
      <path
         d="m 227.53446,427.91074 v 22.08985 h 9.66797 v -9.1211 h 3.65235 v 12.79297 h -21.5625 v -3.67187 h 3.78906 v -22.08985 h -3.78906 v -3.67187 h 12.03125 v 3.67187 z"
         id="path13886" />
      <path
         d="m 261.16728,440.39121 v 9.6875 h 3.4375 v 3.59375 h -6.99219 v -2.51953 q -2.92969,2.87109 -6.52344,2.87109 -1.89453,0 -3.47656,-0.8789 -1.5625,-0.87891 -2.51953,-2.34375 -0.9375,-1.48438 -0.9375,-3.28125 0,-1.9336 1.03515,-3.4375 1.05469,-1.52344 2.83203,-2.34375 1.77735,-0.82032 3.57422,-0.82032 3.00782,0 5.60547,1.75782 v -2.20703 q 0,-2.40235 -1.01562,-3.4375 -1.01563,-1.03516 -3.33985,-1.03516 -1.64062,0 -2.7539,0.60547 -1.09375,0.58594 -1.81641,1.79687 l -3.86719,-0.95703 q 1.3086,-2.4414 3.53516,-3.63281 2.22656,-1.21094 5.29297,-1.21094 4.12109,0 6.01562,1.875 1.91407,1.875 1.91407,5.91797 z m -9.53125,10.52734 q 2.96875,0 5.5664,-2.48046 v -2.40235 q -2.63672,-2.05078 -5.27344,-2.05078 -1.60156,0 -2.77343,1.01563 -1.15235,0.99609 -1.15235,2.51953 0,1.46484 1.01563,2.4414 1.01562,0.95703 2.61719,0.95703 z"
         id="path13888" />
      <path
         d="m 281.16728,432.59824 q 2.83203,0 5.11718,1.44531 2.28516,1.42579 3.55469,3.86719 1.28906,2.44141 1.28906,5.27344 0,2.92969 -1.30859,5.41016 -1.28906,2.48046 -3.57422,3.96484 -2.28516,1.46484 -5.11719,1.46484 -2.24609,0 -4.27734,-0.91797 -2.01172,-0.91796 -3.16406,-2.51953 v 3.08594 h -7.5586 v -3.59375 h 3.63282 v -22.28516 h -3.63282 v -3.55468 h 7.5586 v 11.83593 q 3.08593,-3.47656 7.48047,-3.47656 z m -0.83985,17.83203 q 1.91406,0 3.41797,-1.03515 1.50391,-1.03516 2.32422,-2.71485 0.82031,-1.67968 0.82031,-3.57422 0,-1.875 -0.83984,-3.4375 -0.83985,-1.5625 -2.32422,-2.48046 -1.48438,-0.91797 -3.35938,-0.91797 -1.875,0 -3.35937,0.95703 -1.48438,0.95703 -2.32422,2.59765 -0.83984,1.64063 -0.83984,3.65235 0,1.91406 0.85937,3.51562 0.85938,1.60157 2.34375,2.51953 1.48438,0.91797 3.28125,0.91797 z"
         id="path13890" />
    </g>
  </g>
</svg>
