<?xml version="1.0" encoding="UTF-8" standalone="no"?>
<svg
   viewBox="0 0 5510.2 5509.6"
   width="5510.2"
   height="5509.6"
   version="1.1"
   id="svg4"
   sodipodi:docname="sharif - Copy.svg"
   inkscape:version="1.1.2 (b8e25be833, 2022-02-05)"
   xmlns:inkscape="http://www.inkscape.org/namespaces/inkscape"
   xmlns:sodipodi="http://sodipodi.sourceforge.net/DTD/sodipodi-0.dtd"
   xmlns="http://www.w3.org/2000/svg"
   xmlns:svg="http://www.w3.org/2000/svg">
  <defs
     id="defs8" />
  <sodipodi:namedview
     id="namedview6"
     pagecolor="#ffffff"
     bordercolor="#666666"
     borderopacity="1.0"
     inkscape:pageshadow="2"
     inkscape:pageopacity="0.0"
     inkscape:pagecheckerboard="0"
     showgrid="false"
     inkscape:zoom="0.046138537"
     inkscape:cx="-4616.5313"
     inkscape:cy="4031.3372"
     inkscape:window-width="2560"
     inkscape:window-height="1506"
     inkscape:window-x="-11"
     inkscape:window-y="-11"
     inkscape:window-maximized="1"
     inkscape:current-layer="svg4" />
  <path
     d="M2444.2 5497c-473.3-54.3-972.1-254.2-1347.5-540C53.7 4163.1-291.8 2767.1 262 1585.1 851.7 326.4 2307.6-300.4 3616.3 140.8c844.3 284.7 1470.5 911.3 1753.6 1754.8 313.8 934.9 92.7 1974.6-576.7 2712.6-452.2 498.5-1073.6 815.1-1747.7 890.2-139.8 15.5-460.2 14.8-601.3-1.4zm680.5-125.3c1156.5-159 2081.9-1086.6 2246.2-2251.6 25.3-179.4 25.3-547.3 0-726.8C5206.6 1227.7 4294.1 312.3 3125 140.4c-191.7-28.2-548.8-28.2-740.4 0C1218.7 311.8 310.1 1218.8 139.2 2381.8c-27.3 185.6-27.3 564.2 0 749.8 128.4 873.2 691.1 1637.3 1479.9 2009.5 476.7 224.9 982.8 302.4 1505.6 230.6zm-634.2-79.3c-29.1-3-72.2-8.6-95.8-12.5l-42.9-7.1v-339.2l-82.6-21.1c-45.4-11.6-122.1-32.5-170.3-46.5l-87.7-25.4-82.4 144c-45.3 79.2-90.7 144-100.9 144-64.7 0-689.5-365.6-673.9-394.4 15.7-28.7 121.7-213.5 141.9-247.3l24.2-40.4-128.3-127.3-128.5-127.2-72.7 42.9c-40 23.6-106.3 62-147.3 85.3l-74.6 42.4L656 4193.9c-106.9-159.9-273.1-470.5-273.1-510.3 0-10.2 64.8-55.6 144-100.9l144-82.4-25.4-87.7c-14-48.2-34.9-124.9-46.5-170.3l-21.1-82.6H238.6l-10.5-49.6c-13.7-64.4-13.7-642.5 0-707l10.5-49.6H578l29.9-122.2c16.5-67.2 37.4-143.8 46.6-170.2l16.6-48-144.1-82.4c-79.3-45.4-144.2-90.8-144.2-101 0-39.8 166.2-350.4 273.1-510.3l112.8-168.7 74.6 42.4c41 23.3 107.3 61.7 147.3 85.3l72.7 42.9 128.3-127.3 128.3-127.3-24.2-40.4c-20.2-33.7-126.3-218.5-141.9-247.3-15.6-28.7 609.1-394.4 673.9-394.4 10.2 0 55.6 64.8 100.9 144l82.4 144 87.7-25.4c48.2-14 124.9-34.9 170.3-46.5l82.6-21.1v-339l49.6-10.5c64.4-13.7 642.5-13.7 707 0l49.6 10.5v337.8l170.9 46.2 170.9 46.2 81.8-143c45-78.6 90.2-143 100.3-143 64.7 0 689.5 365.6 673.9 394.4-15.7 28.7-121.7 213.5-141.9 247.3l-24.2 40.4 128.3 127.3 128.3 127.3 72.7-42.9c40-23.6 106.3-62 147.3-85.3l74.6-42.4 112.8 168.7c106.9 159.9 273.1 470.5 273.1 510.3 0 10.2-64.3 55.3-143 100.3l-143 81.8 46.2 170.9 46.2 170.9h337.9l10.5 49.6c5.8 27.3 10.5 186.3 10.5 353.5s-4.7 326.2-10.5 353.5l-10.5 49.6h-337.8l-46.2 170.9-46.2 170.9 143 81.8c78.6 45 143 90.2 143 100.3 0 39.8-166.2 350.4-273.1 510.3l-112.8 168.7-74.6-42.4c-41-23.3-107.3-61.7-147.3-85.3l-72.7-42.9-128.3 127.3-128.3 127.3 24.2 40.4c20.2 33.7 126.3 218.5 141.9 247.3 15.6 28.7-609.1 394.4-673.9 394.4-10.2 0-55.3-64.3-100.3-143l-81.8-143-170.9 46.2-170.9 46.2V5103c0 162.7-.9 168.2-29.7 176.7-34.8 10.2-559.7 20.7-637.7 12.7zm346.8-238.4l69.4-8.3v-325l62.8-7.6c116.8-14.1 405.7-88.8 517.7-133.9 61.3-24.6 114.4-41.8 118.1-38.1 3.7 3.7 42.9 68.8 87.3 144.8l80.6 138.1 111.9-65.4c61.5-36 120.2-70.7 130.4-77.2 14.9-9.5 2.2-40.2-63.9-155.5l-82.4-143.7 43.7-33.1c150.9-114.1 318.9-282.2 434.3-434.4l33.1-43.6L4523 3953c78.5 45 144.4 79.7 146.3 77.1 25-33.6 66.1-100.4 105-170.7l48-86.7-145.1-82.7c-79.8-45.5-145.1-84.7-145.1-87 0-2.4 17.6-45.6 39-96 44.7-105.1 132.7-433.6 132.9-496.5.4-103.2-2.1-101.7 177.9-101.7h161.8l8.8-75c4.8-41.3 4.9-109.6.1-152l-8.7-76.9H4882c-180.2 0-177.6 1.5-178-101.7-.3-62.9-88.2-391.4-132.9-496.5-21.5-50.4-39-93.7-39-96s65.3-41.5 145.1-87l145.1-82.7-48-86.7c-39-70.4-80-137.1-105-170.7-2-2.6-67.3 31.8-145.2 76.5-77.9 44.7-145.5 76.6-150.3 70.9s-47.7-58-95.5-116.1c-100.7-122.6-222.9-241.8-330.9-322.8-41.8-31.3-76-58.7-76-60.7s36.6-67.5 81.3-145.4c65.2-113.7 77.6-144 62.8-153.5-10.2-6.5-68.9-41.2-130.4-77.2l-111.9-65.4-80.6 138.1c-44.3 75.9-84.1 141.6-88.4 145.9-4.3 4.3-49.3-10.3-100-32.5-93.5-41-420.2-127-534.7-140.7l-62.8-7.5V467.7l-75-8.8c-41.3-4.8-109.6-4.9-152-.1l-76.9 8.7v325.8l-42.9 6.6c-23.6 3.6-72.2 10.4-107.9 15-77.6 9.9-382.7 96.3-479.3 135.7l-68.6 27.9L1820 834l-84-144.3-111.7 65.3c-61.4 35.9-120 70.6-130.2 77.1-14.9 9.5-2.4 40 63.3 154.4 45 78.4 77.1 146.3 71.4 150.9-209.3 168.6-282.3 237.9-397.1 377.1-48 58.1-91.1 110.4-95.9 116.1-4.8 5.7-72.4-26.2-150.3-70.9s-143.2-79.1-145.2-76.5c-25 33.6-66.1 100.4-105 170.7l-48 86.7 145.1 82.7c79.8 45.5 145.1 84.1 145.1 85.7s-20.6 53.3-45.9 114.7c-44.6 108.7-117.2 391.4-132.9 518l-7.8 62.8H465.5l-8.7 76.9c-4.8 42.3-4.7 110.7.1 152l8.8 75h325.6l6.2 42.9c30.8 213.7 90.3 444.6 148.6 576.4 17.3 39.1 31.4 72.9 31.4 75.1 0 2.2-65.3 41.3-145.1 86.8l-145.1 82.7 48 86.7c39 70.4 80 137.1 105 170.7 2 2.6 67.3-31.8 145.2-76.5 77.9-44.7 145.5-76.6 150.3-70.9 4.8 5.7 47.7 58 95.5 116.1 100.7 122.6 222.9 241.8 330.9 322.8 41.8 31.3 76 58.7 76 60.7s-36.6 67.5-81.3 145.4c-65.2 113.7-77.6 144-62.8 153.5 10.2 6.5 68.8 41.2 130.2 77.1l111.7 65.3 84-144.3 84-144.3 68.6 27.8c145.7 59.1 409.9 128.7 567.4 149.5l62.8 8.3v327.2l49.6 5.2c89.3 9.7 114.7 9.8 184.9 1.4zm-121-486.6c-22.5-29.5-53.2-50.7-86.1-59.6-28.1-7.6-54.3-22.1-58.3-32.3-8.2-21.5 168.2-276.5 195.5-282.6 19.6-4.4 218.6 251.8 218.6 281.5 0 10.4-22.9 21.4-56.2 27-41.5 6.9-68.6 22.8-103.7 60.6-26.1 28.2-53.7 51.2-61.2 51.2-7.5.1-29.4-20.6-48.6-45.8zm-883.1-201.5c-117.4-6.5-126.2-21.3-95.5-160.1 28.7-129.6 72.2-215 146.2-286.9 115.2-111.9 247.6-150.5 518.2-151.1 166.4-.3 187.4 8.7 187.4 80.4 0 104-.8 104.4-234.1 104.4-182.7 0-213.4 3.2-263.8 27.6-37.7 18.2-57 36.2-57 52.9 0 24 12.9 25.2 261.6 25.2 185.9 0 266.2 4.6 277.5 15.9 19.1 19.1 21.6 245.4 2.9 274.9-10.5 16.7-63.3 20-333.5 20.9-176.4.4-360.9-1.3-409.9-4.1zm1285.4-.4c-100.3-2.8-154.9-9.7-161.7-20.3-5.6-8.8-10.3-70.6-10.4-137.3-.3-174.8-14.1-167.4 303.1-161.3 221.5 4.3 258.3 2.3 258.3-14.5 0-10.8-26.8-34.5-59.5-52.9-56.4-31.6-70-33.3-262.7-33.3-191 0-204.3-1.7-221.4-27.4-12.7-19.1-15.6-46.5-9.6-90.4l8.6-63 239.2 4.8c276 5.6 316 17.1 429.9 123.6 112.2 105 177.4 250 170.1 378.4-3.9 67.3-6 71.1-50.3 86.2-44.5 15.3-262.1 17.8-633.6 7.4zM2699.4 4020c-54.1-33.9-70.2-65.2-70.2-136.7 0-137.6 176.5-187.9 256.9-73.2 11.3 16.2 20.6 54.8 20.6 85.8 0 112.4-115.4 181.6-207.3 124.1zm-955.6-235.8c-49.5-93.9-167-204.1-275.5-258.3-116.6-58.3-219.2-80.5-334.5-72.3-51 3.6-94.3.7-102-7-18.2-18.2 26.7-104.2 74.1-141.9 33.6-26.7 46.8-28.6 155.6-21.9 216.5 13.3 335.3 71.3 517.7 252.7 152.7 151.9 159.9 174 82.5 252.9-31.5 32.1-63.5 58.4-71.1 58.4s-28.6-28.1-46.8-62.6zm1928.5-14.4c-56.9-50.5-57-50.8-38.5-95.8 26.1-63.5 229.4-263.7 319-314.2 151.9-85.6 370.6-131.5 456.5-96 38.3 15.9 120 140.9 103.1 157.8-4.9 4.9-66.5 9.7-136.7 10.5-234.2 2.8-403.3 95.1-554.4 302.4-47.2 64.8-67.2 85.3-83.7 85.7-4.5.1-33.9-22.6-65.3-50.4zm-1666.2-108.3c-12-7-39.5-44-61-82.2-21.6-38.2-84.1-112.1-139.1-164.3-153.6-145.9-322.5-217.1-523.4-220.8-54.6-1-86.9-7.4-90.4-17.9-3-9 24.9-45.9 62-82 127.1-123.8 372-213.1 511.5-186.6 278.1 52.8 543.1 294.3 672.6 612.8 51.5 126.7 42.7 154.4-48.8 154.4-62.2 0-86.6-21-116.1-99.9-77.5-207.2-337.2-478.5-446.1-466-29.5 3.4-37 10.9-37 37.1 0 25.7 17.9 44.6 82.6 86.9 111.5 72.9 138.6 100.2 222.1 223.7 76.9 113.7 101.8 186.3 70.5 206.1-24.7 15.7-131.9 14.7-159.4-1.3zm570.3-3.6l-33-16.8 4.6-581c5-629.1-3.3-773.6-57.2-997.2-39-162-54.5-200.7-148.3-372.3-38.5-70.3-69.9-134.2-69.9-142.1 0-49.9 162.6 50.1 252.6 155.3 53 61.9 116 184.4 156.2 304 26.2 77.8 27.2 108.4 27.2 860.3 0 757.2-.7 780-25.6 793.3-33.8 18-66.3 17-106.6-3.5zm261.1 3c-21.5-12.5-22.6-62.6-16.6-795.8 6-741.1 7.8-787.6 33.8-881.4 15.1-54.5 45.9-133.5 68.3-175.6 45.1-84.7 167.7-206.3 250.3-248.5 95.6-48.7 95.3-28.6-1.8 163.5-71.2 140.8-98.8 213.7-134.2 354.3l-44.5 177.1-4 693.7c-3.6 625.9-6.1 695.4-25.8 710.3-26 19.8-93.5 21-125.5 2.4zm274 1.1c-36.4-6.8-39.6-11.8-38.7-60.2 2-112.4 182.2-407.8 320.5-525.1 88.5-75.1 200.1-134.9 300.2-161 188.7-49.2 354.2-6.5 558.6 144.1 64.8 47.7 82.5 68 79.3 90.6-3.9 27.2-9.9 28.8-90.8 24.6-219.6-11.4-509.6 157.7-636.4 371.1-63.4 106.6-111.5 136.5-197.1 122-41.2-7-51.2-14.3-51.2-37.5 0-61.5 98.7-200.3 248.3-349.5 123.1-122.7 147.1-152.9 134.2-168.5-23-27.8-50.8-23.4-124.8 19.7-132.4 77.1-273.5 249.4-337.5 412.1-43.8 111.5-75.7 134.3-164.6 117.6zm-738-459.5c-17.3-27.4-41.5-58.1-53.9-68.4-55.4-46-61.2-81.7-59.9-367.5.7-150.8-2.9-284.9-7.9-298-6.2-16.1-20.1-22.5-43-19.8-48.6 5.8-58.3 54.7-49.2 248.6 8.1 173.8.6 251-24.5 251-8.3 0-38.8-12.8-67.7-28.4-29-15.6-79.4-42-112.1-58.7l-59.5-30.3v-380.7c0-369.2-.9-382.4-29.7-437.2-49.5-94.3-37.5-109.9 85.5-110.4 199-.9 352.3 91.7 440 265.8 39.3 77.9 51.1 235 52 689.6.7 422.9-4.4 448.4-70.1 344.4zm717.9 26.6c-.2-5.5-1.5-209.1-2.9-452.6-2.8-493 4.3-550.6 83.5-671.5 42.9-65.6 145.6-150.4 223.7-184.8 66.3-29.2 269.8-29.2 299 0 19.9 19.9 19.1 24.9-9.9 65.6-31 43.4-31.5 50-38 427.3-3.6 210.8-11.8 391.2-18.1 401.1-6.3 9.8-32.3 26.6-57.8 37.2-25.4 10.6-69.7 34.2-98.5 52.3-93.6 59.1-95.6 55-103.1-205.2-5.8-199.9-9.6-231.6-29.7-244.2-16.8-10.6-29.4-10.6-46.2 0-20.6 13-23.9 47.4-29.7 310.5l-6.6 295.9-65.9 89.2c-58 78-98.7 110.5-99.8 79.2zm-1459.2-434c-18.1-18.1-20.5-59.4-17.5-300.6l3.6-279.6 36.8-4.2c53.5-6.1 109.5 58.6 128.1 148 19.2 92.6 6.9 431.9-16.2 446.5-28.6 18.2-112.8 11.9-134.8-10.1zm2130.1-6.4c-20.5-12-23.1-37.6-23.1-227.5 0-117.7 6.5-237.1 14.3-265.3 20.2-72.9 67.8-116.6 121.3-111.5l42.7 4.1-4.5 290.7c-3.9 247-7.7 293.2-25.7 307.2-25.2 19.8-92.8 21-125 2.3zM1244 2058.8c-38.7-41.2-36.4-48.7 14.8-48.7 50.6 0 107.9-53.3 185.8-173.1 47-72.3 47.6-75 27.4-115.5-28.4-57-20.6-113.3 16.5-118.6 18.7-2.7 34.1 5.8 43.8 23.9 18.7 34.9 62.5 30.6 88.5-8.8 17.5-26.5 16.1-29.9-18.1-46.3-54.1-25.9-57.2-63.8-5.3-63.8 55.2 0 93.5 40.9 93.5 99.9 0 38.1-12.3 60.1-64.3 115.6-35.4 37.7-98.5 124.1-140.2 191.9-102.6 166.8-178.3 211.7-242.4 143.5zm288.4-365.9c0-7.3-5.9-13.2-13.2-13.2s-13.2 5.9-13.2 13.2c0 7.3 5.9 13.2 13.2 13.2s13.2-5.9 13.2-13.2zm2542.3 383.8c-47.3-19.6-86-78.7-70.4-107.7 18.8-35.1 41.2-31.2 85.1 14.6 54.1 56.5 64.4 50.5 54.7-31.6-7-59.4-4.7-72.7 13.7-79.8 41.2-15.8 64.8 29 58.9 111.4-5.1 70.5-79.3 119.1-142 93.1zm-1319.8-92.8c-4.4-7.1-19.7-46.8-33.9-88.1-38.9-113.1-83-179.7-186.4-281.4-102.3-100.6-110.6-132.8-34.3-132.8 49.7 0 79.9 18.2 179.5 108.2 38.7 35 76.2 63.6 83.2 63.6s40.6-30.3 74.8-67.4c72.2-78.4 116.5-104.4 178-104.4 87.4 0 83.2 24.4-20.9 120.2-104 95.8-162.9 189.7-200.3 319.2-22.8 78.8-26.4 84.5-39.7 62.9zm-1177.8-68.8c-5.3-8.7-2.3-18.2 6.7-21.2s22-20.1 28.7-37.9c6.8-17.8 18.3-28.8 25.6-24.3 16.3 10.1 17.6 46.3 1.6 46.3-6.4 0-14.8 11.9-18.6 26.4-7.7 29.5-29.1 34.7-44 10.7zm2387-.8c.4-28.6 159.1-194.9 185.9-194.9 34.9 0 32.4 8.3-23.9 77.9-93.2 115.1-162.8 165.4-162 117zm-89.6-98c-9.2-3.7-33.8-31.5-54.7-61.7-48.7-70.5-144-167.3-164.5-167.3-8.7 0-35.4-17.8-59.3-39.6s-57.1-39.6-73.8-39.6c-45.5 0-100.1-48.7-100.1-89.4 0-52.3 130.7-280.6 160.6-280.6 33.3 0 31.3 8.1-23.7 99.1-67.4 111.5-74.8 143.4-42.5 184.6 23.7 30.1 64.1 46.1 64.1 25.3 0-4.5-10.4-37.4-23.1-73.2-28.2-79.4-14.9-94.3 76-84.7 32.7 3.5 99.9 10 149.3 14.6 78.2 7.2 87.7 10.9 73.3 28.2-12.9 15.6-40.5 19-126.4 15.4-93.5-3.9-108.6-1.6-101.7 15.3 4.5 10.9 12 49.6 16.7 85.9 7.7 59.9 13.1 68.3 58.1 90.3 27.3 13.3 49.6 29.8 49.6 36.7 0 6.8 14.9 18.1 33 25s33 21.6 33 32.7c0 11.1 8.8 20.1 19.7 20.1 10.8 0 34.7 23.8 53 52.9 37.3 59.1 59.4 67.7 59.7 23.1.3-42.5 18.9-66.1 47.6-60.6 40.8 7.8 36.9 56.9-8.8 108.9-39.3 44.6-72.4 55.8-115.1 38.6zM1299.6 1753c-9.4-24.5 4.3-46.9 28.8-46.9 11.5 0 19 13.1 19 33 0 36.4-35.3 46.6-47.8 13.9zm431-.9c0-3.8 20.8-37.2 46.2-74.2 59.5-86.5 59.3-113-.8-138.2-36.1-15.1-46.1-26.3-42.9-47.9 3.5-23.9 13.3-28.4 63.6-29.2 53.9-.9 60.6-4.6 72.7-40.6 10.9-32.7 19.5-38.9 48.6-35.6 28.3 3.3 36.2-2 39.7-26.4 3.7-26.1 11-30 50.4-26.7 36.6 3 42.7.4 29.7-12.6-21.8-21.8-20.8-63.9 1.4-63.9 25.6 0 61.5 43.8 61.5 75 0 29-38.3 70.4-65 70.4-16.4 0-52 24.5-138.1 95.3-41.3 33.9-43.3 39.6-37.7 106.3 5.1 61.9 1.5 75.7-29.8 112.9-21.9 26.1-47.9 42.3-67.5 42.3-17.6 0-32-3.1-32-6.9zm2325.7-152.6c0-18.9 7.1-26 23-23 34.4 6.6 38.3 50.4 4.4 50.4-18.9 0-27.4-8.5-27.4-27.4zm-1354.4-46.3c-21.8-18.3-53-44.4-69.4-58-38.8-32.4-27.6-58.9 42.3-99.9 69.2-40.6 122.6-41.5 179.1-3 68.3 46.5 79.2 74 39.8 100.3-18 12-51.5 38.2-74.4 58.2-50.9 44.5-66.7 44.8-117.4 2.4zm1161.7 2.7c-4.3-11.2-4.6-25.5-.7-31.8 3.9-6.3-6-11.1-22-10.5-17.5.6-29.1-6.9-29.1-18.8 0-10.9 11.9-20 26.4-20.3 14.5-.3 34.4-5.4 44.1-11.4 29-18 44.6 10.5 32.1 58.7-12.4 48.2-38.7 65.8-50.8 34.1zm-1690.9-175.4c-25-27-32.4-49.4-32.4-98 0-34.7 3.6-72.5 8-84 16-41.8 31.6-19.4 31.6 45.5 0 58.4 3.9 67.9 32.5 78.8 21.3 8.1 47.6 7.3 76-2.2 77.5-26.1 100.4-58.4 46.9-66-59.2-8.4-45.4-100.7 21.2-141.9 63.6-39.3 106.5-35.6 140.5 12.1 19.7 27.7 39.2 39.6 64.8 39.6 49.4 0 58.7-12.7 31.2-43.1-21.9-24.2-21.8-26.3 2.5-44 59.4-43.5 154.4-9.1 112.9 40.8-20.7 25 11.1 39.7 59.3 27.6 18.1-4.6 44.8-.8 59.4 8.4 21.5 13.4 31.9 13.3 54.3-.7 23.4-14.6 31.3-14 51.3 4.1 21.9 19.8 27.2 18.9 73.3-12.3 48-32.6 76-39.8 131.8-34 68.6 7.1 95.1 88.6 47.7 147.1-29.4 36.3-97.9 38-231 5.8-125.9-30.5-331.2-49.1-371.8-33.6-59.1 22.5-84.2 15.3-115.4-32.9-30.9-47.6-70.6-59.8-99.9-30.6-12.3 12.3-6.3 18.9 27.1 29.7 86.9 28.1 43.4 139.9-75.4 193.9-73.2 33.3-108.4 30.9-146.4-10.1zm968.6-179.8c-7.2-21.5-42.7-27.9-86.9-15.8l-35.3 9.7 33 10c53.7 16.3 95.3 14.4 89.2-3.9zm116.5 194c-28.6-28.6-26-60.1 9-111.5 44.7-65.7 68.9-76.5 102.6-46 36.5 33 26 106.1-21.3 148.5-39.2 35.1-61.9 37.3-90.3 9zm71.5-78.7c-9.2-11.1-19.4-17.4-22.8-14.1-9.2 9.2 9.5 34.2 25.4 34.2 8.8.1 7.8-7.5-2.6-20.1zm-1507.5-9.6c-.7-1.8-3.4-25.9-5.9-53.5-3.3-36.2 1.2-52.4 15.9-58.1 11.2-4.3 24.3-2.5 29 4 4.7 6.5 17.5 11.8 28.4 11.8s21.8 14.2 24.3 31.6c3.7 26.4-.1 30.4-23.1 24.4-20.9-5.5-27.6-1.1-27.6 18 0 13.9-8.9 25.2-19.8 25.2s-20.5-1.6-21.2-3.4zm1914.1-32.7c-70.6-7.4-61.6-24.6 9.9-18.9 32.7 2.6 59.5 10.1 59.5 16.6 0 6.5-4.5 10.9-9.9 9.7-5.5-1.2-32.3-4.6-59.5-7.4zM2404.6 986.2c0-12 13.2-20.8 33-22 18.2-1.1 40.5-2.6 49.6-3.3 9.1-.7 16.5 7.5 16.5 18.2 0 13.1-16.3 20.8-49.6 23.4-37.1 2.8-49.5-1.3-49.5-16.3zm387.4-1.5c-11.8-30.6 24.2-48.5 48.6-24.1 17.6 17.6 17.6 21.2 0 32.4-28.1 17.7-39.3 15.8-48.6-8.3z"
     id="path2"
     style="fill:#063579;stroke:#5599ff;fill-opacity:1" />
  <path
     style="fill:#063579;fill-opacity:1;stroke:#5599ff;stroke-width:5.41846"
     d="m 3400.9513,3663.5126 c -45.7343,-10.1075 -51.2504,-25.2145 -28.918,-79.1987 28.648,-69.2511 95.9692,-154.9315 240.8193,-306.4931 142.358,-148.954 145.1936,-153.2027 117.0291,-175.3569 -18.1452,-14.2731 -29.8781,-13.9839 -67.9482,1.6745 -141.0157,58.0003 -302.7792,239.6079 -386.683,434.1186 -45.478,105.4298 -65.2792,124.6529 -127.5674,123.8429 -19.6154,-0.255 -42.7794,-3.8641 -51.4754,-8.0201 -14.8514,-7.0979 -15.9078,-9.7574 -17.4073,-43.8237 -1.8802,-42.7162 13.3049,-92.5773 51.351,-168.6131 80.6545,-161.1898 200.4032,-314.3639 310.2652,-396.8695 53.0978,-39.8761 153.1869,-93.1184 211.6281,-112.5753 93.4855,-31.1243 196.4194,-39.5791 281.7601,-23.1433 103.0077,19.8383 235.0116,87.1354 343.5982,175.1704 44.678,36.222 55.4372,51.7955 48.8197,70.6644 l -5.2297,14.9117 -91.9979,3.5042 c -123.7166,4.7124 -185.7266,20.5805 -296.495,75.8718 -129.4046,64.5937 -248.5077,168.8911 -321.97,281.9458 -49.7041,76.4921 -72.399,102.7855 -103.0317,119.3688 -33.0147,17.8728 -66.227,21.9315 -106.5471,13.0206 z"
     id="path4667" />
  <path
     style="fill:#063579;fill-opacity:1;stroke:#5599ff;stroke-width:5.41846"
     d="m 3699.5067,3787.6765 c -50.4983,-41.6534 -74.5738,-66.7408 -74.4353,-77.5639 0.2277,-17.8024 20.0553,-52.9094 52.982,-93.8109 40.7977,-50.6789 171.4319,-177.8021 221.4781,-215.5256 108.215,-81.5697 288.1103,-142.4885 424.4027,-143.7174 75.6623,-0.6822 91.8974,5.7098 127.5408,50.215 30.3477,37.8927 64.3254,103.5968 57.2383,110.6839 -2.8074,2.8074 -48.579,7.2225 -101.7148,9.8114 -163.1582,7.9494 -232.6142,22.4051 -320.2663,66.6562 -100.5399,50.7575 -176.1267,117.6195 -265.4289,234.791 -45.1121,59.1907 -72.0932,88.0917 -82.2396,88.0917 -1.9984,0 -19.7991,-13.3342 -39.557,-29.6314 z"
     id="path4706" />
  <path
     style="fill:#063579;fill-opacity:1;stroke:#5599ff;stroke-width:5.41846"
     d="m 2432.8903,5282.9796 c -28.3115,-4.2922 -56.9269,-9.1285 -63.5899,-10.7475 l -12.1144,-2.9436 -1.4317,-168.7426 -1.4317,-168.7426 -116.497,-31.0762 c -64.0733,-17.092 -141.5339,-38.3923 -172.1348,-47.3342 l -55.6378,-16.2578 -22.2323,38.7058 c -68.5528,119.3486 -123.4737,208.2157 -140.6414,227.5706 l -19.4815,21.9635 -23.8662,-7.1114 c -85.3856,-25.4422 -527.4741,-281.6703 -630.6573,-365.5199 -16.0212,-13.0192 -16.0938,-13.324 -7.4751,-31.332 7.5351,-15.744 132.9266,-233.7913 152.108,-264.5057 6.3875,-10.2279 -2.2589,-20.2389 -114.4505,-132.5137 -66.748,-66.7975 -126.7471,-124.3331 -133.3314,-127.8569 -10.0849,-5.3973 -15.288,-4.3243 -33.0174,6.809 -11.5752,7.2687 -76.3616,45.1131 -143.96967,84.0985 l -122.92376,70.8828 -78.23107,-117.4373 c -43.02709,-64.5906 -99.65229,-154.012 -125.83378,-198.7143 -52.81382,-90.1744 -152.63909,-281.9102 -170.33753,-327.1697 -10.79166,-27.5971 -10.90435,-29.7026 -2.10984,-39.4204 14.31009,-15.8124 89.44587,-63.8494 186.21405,-119.053 48.26673,-27.5349 88.86027,-52.9367 90.20785,-56.4485 1.34758,-3.5117 -6.3345,-36.5912 -17.07129,-73.5099 -10.7368,-36.9187 -30.49031,-108.5762 -43.89669,-159.2388 -13.40639,-50.6627 -25.64325,-96.381 -27.19302,-101.5962 -2.60568,-8.7686 -15.57245,-9.4823 -172.26512,-9.4823 H 240.15069 l -7.64222,-39.2839 c -11.0279,-56.6875 -11.12448,-659.2691 -0.11549,-720.5806 l 7.52672,-41.918 170.72833,-1.4297 170.72834,-1.4297 30.69596,-121.9155 c 16.88277,-67.0535 37.24824,-141.4302 45.25658,-165.2816 8.00834,-23.8514 14.56062,-45.8605 14.56062,-48.9091 0,-3.0486 -40.33578,-28.6426 -89.63507,-56.8754 -49.2993,-28.2329 -113.3049,-67.3377 -142.23468,-86.8997 -43.49193,-29.4087 -52.35577,-37.7329 -51.19137,-48.0747 3.67011,-32.5968 96.69149,-216.0561 186.63357,-368.0839 45.45834,-76.8375 185.6962,-290.915 193.89001,-295.979 2.58146,-1.5954 70.0143,35.0029 149.8507,81.3298 l 145.15721,84.2305 129.3293,-129.3294 129.3295,-129.3294 -67.1982,-116.02628 c -36.9589,-63.81444 -74.2841,-128.69968 -82.9448,-144.18944 l -15.7466,-28.16317 13.4027,-14.31336 c 39.6314,-42.32446 370.6511,-242.25813 544.412,-328.82129 84.9879,-42.33872 108.851,-50.73793 119.3638,-42.01307 13.5944,11.28229 62.5611,87.99434 119.2421,186.80625 29.0613,50.66264 53.6216,93.04373 54.5782,94.1802 0.9567,1.13647 49.9822,-11.51614 108.9455,-28.11691 99.6191,-28.04715 154.39,-43.01665 211.5115,-57.80845 l 23.0285,-5.9633 V 412.46355 242.85992 l 39.2838,-7.64222 c 56.8562,-11.06071 679.0145,-11.17061 728.7834,-0.12874 l 33.8654,7.51348 v 169.00409 169.0041 l 166.6178,44.9995 c 91.6398,24.74972 170.0393,45.28748 174.2212,45.63945 4.414,0.37149 27.9961,-34.58995 56.2185,-83.34624 58.4011,-100.8923 108.4252,-179.06132 123.0733,-192.31767 10.3804,-9.39411 12.3226,-9.04508 59.3087,10.65816 129.4111,54.26751 566.4062,312.39399 609.5204,360.03453 11.0841,12.2479 11.92,10.55571 -103.9156,210.38395 -28.0672,48.41879 -50.2162,90.31219 -49.2199,93.09639 0.9963,2.7842 59.6032,61.4159 130.2376,130.2926 l 128.4261,125.2304 20.5816,-12.9775 c 30.7206,-19.3704 267.4172,-155.4621 270.3865,-155.4621 4.9019,0 158.117,236.1754 205.6359,316.9801 71.7915,122.0796 176.7498,331.5523 174.7545,348.7699 -2.3288,20.0959 -51.9271,55.7158 -177.4601,127.4464 -56.7843,32.4471 -103.1234,61.7068 -102.9759,65.0216 0.1474,3.3149 20.542,80.3954 45.3208,171.2901 l 45.0523,165.2632 170.0243,2.7092 170.0242,2.7092 7.5536,35.22 c 11.0359,51.4566 11.1,681.3034 0.074,728.7834 l -7.5497,32.5108 -169.0935,1.4315 -169.0936,1.4315 -5.6414,20.2424 c -35.9561,129.0175 -88.0371,326.994 -86.3663,328.3058 1.1749,0.9224 39.9299,23.1459 86.1223,49.3857 91.8782,52.1916 148.8701,87.7388 179.9961,112.2677 l 20.1513,15.8804 -12.9722,34.464 c -36.2375,96.2742 -172.5866,339.1647 -291.3212,518.9559 l -81.4255,123.2967 -16.9381,-10.1605 c -69.3614,-41.607 -273.9105,-157.8652 -277.7541,-157.8652 -2.6265,0 -62.0563,57.339 -132.0661,127.42 l -127.2907,127.42 8.6406,14.8147 c 116.2642,199.3398 157.4739,275.0242 153.2749,281.5001 -30.3056,46.7389 -583.4513,367.8105 -652.6711,378.8408 -19.2102,3.0612 -19.5851,2.7385 -52.1348,-44.8798 -18.032,-26.3797 -56.6125,-89.4144 -85.7345,-140.077 -29.122,-50.6627 -53.8022,-93.1141 -54.8447,-94.3364 -1.4831,-1.7387 -206.6696,52.2595 -328.2014,86.3716 l -20.0921,5.6395 -1.5817,162.176 c -1.403,143.8496 -2.6188,163.2123 -10.759,171.3456 -14.3739,14.362 -78.427,17.8479 -380.9522,20.732 -223.4402,2.1301 -286.1959,1.1406 -327.8171,-5.1694 z m 392.8387,-224.8227 c 26.8214,-2.9198 56.6906,-6.6677 66.3761,-8.3287 l 17.61,-3.0201 v -161.5389 -161.5388 l 50.1208,-6.6616 c 143.8463,-19.1187 384.1494,-81.582 548.6195,-142.6056 35.7619,-13.2688 71.6981,-25.7295 79.8582,-27.6903 17.4803,-4.2004 13.0487,-10.5576 113.6305,163.0034 36.6287,63.2055 68.8322,115.0195 71.5633,115.1424 8.8713,0.3993 246.2928,-141.8536 249.1403,-149.2742 5.412,-14.1033 -14.4082,-56.516 -81.0844,-173.511 -64.5329,-113.2343 -67.1282,-118.9636 -57.4051,-126.7238 5.601,-4.4703 36.7405,-29.1351 69.1989,-54.8108 142.8095,-112.9668 295.186,-270.0762 414.1519,-427.0155 l 13.7733,-18.1696 94.596,54.0824 c 110.0975,62.945 186.2824,104.5502 191.4461,104.5502 9.3097,0 155.1085,-243.8079 155.1085,-259.3759 0,-2.7607 -51.814,-34.8729 -115.1423,-71.3604 -63.3283,-36.4875 -127.8785,-74.4591 -143.4449,-84.3812 l -28.3025,-18.0402 24.4439,-58.344 c 33.3703,-79.6498 67.8564,-188.3776 102.7583,-323.9771 32.9958,-128.1935 45.8998,-195.8417 45.8998,-240.6258 0,-37.0771 9.3055,-52.2404 36.7344,-59.8582 11.4501,-3.18 80.2794,-5.6119 159.3198,-5.629 127.8143,-0.027 139.3939,-0.8033 142.026,-9.5125 9.1319,-30.2167 13.8794,-149.5144 8.5578,-215.0449 -3.1613,-38.9285 -6.6947,-73.5943 -7.852,-77.035 -1.4999,-4.4592 -44.6175,-6.8244 -150.1259,-8.2351 -187.8888,-2.5122 -188.6601,-2.8021 -188.6601,-70.9005 0,-79.437 -79.7581,-389.3572 -136.2487,-529.4284 -9.0532,-22.4479 -21.0188,-52.2455 -26.5902,-66.2171 l -10.1299,-25.4029 101.3852,-59.26 c 55.7618,-32.593 120.2561,-69.9279 143.3207,-82.9664 23.0645,-13.0385 41.9614,-26.1738 41.9931,-29.1895 0.082,-7.8636 -81.7803,-152.9786 -118.1641,-209.4649 -16.9324,-26.2877 -34.2123,-47.8074 -38.3998,-47.8217 -4.1875,-0.016 -57.8303,27.7262 -119.2062,61.6453 -123.9554,68.5034 -166.8961,88.6508 -173.3959,81.3561 -2.3799,-2.671 -33.5314,-40.2119 -69.2255,-83.4241 -125.5043,-151.9387 -226.7934,-252.554 -353.0761,-350.7271 -36.7858,-28.5976 -68.1494,-55.2954 -69.6971,-59.3283 -1.5475,-4.033 21.5477,-50.5752 51.3229,-103.4272 90.1474,-160.01513 100.125,-183.51301 83.8152,-197.39013 -10.4757,-8.91315 -231.6796,-139.20989 -239.7887,-141.24384 -2.832,-0.71033 -42.6954,62.10452 -88.5855,139.58856 -96.4887,162.91842 -79.2665,151.06195 -167.9968,115.6563 -134.1275,-53.52018 -398.3324,-124.10932 -542.5319,-144.95123 l -65.0215,-9.39789 -1.4334,-163.07183 -1.4334,-163.07183 -41.9143,-4.51877 c -53.8724,-5.80796 -170.8691,-5.80412 -224.7875,0.008 l -41.9931,4.52616 v 163.75206 163.75211 l -71.7946,9.59566 c -99.1936,13.25774 -163.2158,26.90159 -283.1148,60.33492 -126.2907,35.21563 -210.1685,61.96328 -283.4686,90.39494 -30.7412,11.92387 -56.743,20.82305 -57.7817,19.77593 -1.0388,-1.04734 -38.7687,-65.30008 -83.8443,-142.78411 -45.9548,-78.99555 -84.8157,-140.094 -88.4667,-139.0906 -3.5811,0.98421 -60.9936,33.77768 -127.5834,72.87437 -120.477,70.7355 -121.0563,71.16453 -117.834,87.27585 4.3194,21.59723 20.5458,54.70735 75.9814,155.04047 25.5219,46.1924 50.3747,94.3475 55.2283,107.0114 l 8.8246,23.0251 -15.6356,12.1579 c -70.135,54.5348 -190.0427,159.3929 -246.2862,215.375 -50.3091,50.0752 -188.5917,208.8621 -230.7259,264.9375 -3.5327,4.7016 -64.9402,-25.5635 -170.27401,-83.9208 -61.31284,-33.9688 -115.2788,-61.7613 -119.92437,-61.7613 -4.64557,0 -18.84032,15.9531 -31.54397,35.4513 -41.51854,63.7252 -129.54357,221.7373 -125.60811,225.4769 2.11387,2.0087 53.82875,32.1611 114.92193,67.0054 61.09318,34.8442 124.93574,71.7043 141.87234,81.9113 l 30.79378,18.5581 -26.05013,63.4948 C 884.23729,2130.6009 806.31144,2427.15 793.39534,2564.2885 l -3.69984,39.2838 H 625.9262 462.15691 l -6.2122,61.2753 c -7.83561,77.288 -7.83112,99.256 0.0368,181.201 l 6.37329,66.3762 h 163.54923 163.54922 l 6.55548,47.4115 c 26.26362,189.9486 90.06907,434.5448 149.9658,574.889 13.16166,30.8391 23.93026,59.2428 23.93026,63.1192 0,6.5813 -83.30205,57.5532 -226.0959,138.3466 l -60.83275,34.4195 25.17198,46.3773 c 35.05863,64.5926 102.85594,178.3366 118.85146,199.3978 l 13.3356,17.5589 36.3379,-18.3282 c 19.98578,-10.0805 76.56994,-40.595 125.74252,-67.8099 49.1726,-27.2149 98.8691,-52.3435 110.4368,-55.8412 19.6515,-5.9421 21.7856,-5.4621 32.5108,7.3134 6.3132,7.52 39.3232,47.6246 73.3554,89.1212 86.0952,104.9788 235.2681,252.371 330.9619,327.0113 43.2122,33.7051 79.22,64.0412 80.0171,67.4135 0.7973,3.3724 -22.0508,47.5828 -50.7733,98.2454 -65.1651,114.9422 -95.0552,175.737 -93.0826,189.3252 1.8419,12.6891 246.3966,158.7223 253.4159,151.3247 2.4555,-2.5878 40.4574,-66.882 84.4487,-142.876 43.9913,-75.9939 80.4349,-138.8255 80.9857,-139.6256 0.5507,-0.8002 17.8212,5.6941 38.3789,14.4316 145.862,61.9957 410.8445,133.6158 594.1246,160.5818 l 63.667,9.3672 v 163.8937 163.8937 l 58.2485,5.2565 c 81.3501,7.3412 110.647,7.6075 166.6177,1.5144 z"
     id="path4745" />
  <path
     style="fill:#063579;fill-opacity:1;stroke:#5599ff;stroke-width:5.41846"
     d="M 2548.1252,5501.9544 C 2230.7743,5485.4476 1845.2264,5376.6958 1510.9421,5209.3961 1099.6381,5003.5501 738.3199,4684.5077 477.46699,4296.8419 293.21354,4023.0142 169.63376,3748.8718 89.35771,3435.882 29.246628,3201.5139 5.5510126,3009.9611 5.5015572,2757.9982 5.4460981,2475.4448 38.791532,2241.2473 116.7485,1976.6692 290.10505,1388.3145 660.20461,870.82686 1162.2605,514.79349 1748.7296,98.898417 2480.9677,-75.393862 3175.2199,35.655214 3782.1657,132.73919 4362.8526,441.3624 4769.9277,883.20963 c 332.3155,360.70177 569.4421,816.61837 674.9578,1297.72207 39.6458,180.7687 55.1513,318.1262 58.7177,520.1726 6.0497,342.7473 -35.0797,612.1599 -141.865,929.2666 -275.1225,816.9963 -909.6486,1454.0858 -1725.1727,1732.1423 -351.5301,119.8556 -673.0585,161.0468 -1088.4403,139.4412 z m 480.7962,-115.7419 c 194.2443,-21.4307 366.6902,-57.5403 536.4279,-112.3262 866.4847,-279.6734 1536.9929,-1000.4246 1755.688,-1887.2464 51.9196,-210.5371 64.3992,-312.5135 68.6431,-560.9109 3.429,-200.7051 -2.9237,-342.4307 -20.6446,-460.5695 C 5252.6099,1588.9899 4793.8422,902.34634 4118.3433,493.23148 3854.5603,333.47178 3550.9717,217.15477 3242.3581,157.60634 3050.5397,120.5941 2812.2663,108.13664 2561.8083,122.02572 2241.8812,139.76718 1905.4549,230.30596 1595.7376,382.01388 1162.0638,594.43915 805.76861,909.12424 540.54282,1313.9775 c -218.49339,333.5186 -367.87809,741.5489 -410.6391,1121.6221 -17.00043,151.1051 -15.53343,515.0448 2.67555,663.7618 32.032,261.6127 122.12001,558.3832 246.72538,812.7696 379.50582,774.775 1091.68545,1308.4323 1937.67685,1451.9588 66.1132,11.2165 184.6156,24.9979 275.7535,32.0691 64.9752,5.0414 361.66,-1.724 436.1864,-9.9464 z"
     id="path4784" />
  <path
     style="fill:#063579;fill-opacity:1;stroke:#5599ff;stroke-width:5.41846"
     d="m 3775.4212,2789.6927 c -15.8314,-6.5679 -21.404,-12.6738 -25.7075,-28.1678 -6.8187,-24.549 -7.131,-336.4049 -0.4065,-405.9042 6.3519,-65.6489 17.5572,-97.7399 45.0233,-128.943 31.4525,-35.7319 65.5469,-47.6485 105.6089,-36.9123 l 12.1916,3.2672 -0.2134,141.6027 c -0.2769,183.6739 -8.5125,401.4837 -16.1779,427.8595 -4.6094,15.8605 -10.372,22.5659 -24.4474,28.447 -23.8926,9.983 -70.2529,9.379 -95.8711,-1.2491 z"
     id="path4823" />
  <path
     style="fill:#063579;fill-opacity:1;stroke:#5599ff;stroke-width:5.41846"
     d="m 3886.4438,1817.3193 c -13.3967,-3.9114 -28.0821,-18.9018 -61.9464,-63.2334 -51.41,-67.3005 -150.7947,-169.1246 -165.2602,-169.3166 -5.4459,-0.072 -20.8741,-8.6016 -34.2848,-18.954 -56.222,-43.4009 -79.3836,-56.6945 -108.3503,-62.1879 -49.1574,-9.3226 -95.765,-55.907 -90.2895,-90.2445 6.9513,-43.5914 70.9245,-168.165 120.0956,-233.8593 20.7856,-27.7702 30.2728,-36.2277 40.6385,-36.2277 19.1291,0 15.9058,11.3853 -21.4763,75.8585 -78.8495,135.9922 -85.3166,163.697 -48.1047,206.079 29.4127,33.4992 64.139,44.3134 64.139,19.9737 0,-5.4948 -7.3149,-31.6309 -16.2554,-58.0803 -18.1628,-53.7327 -20.368,-79.2461 -7.7543,-89.7146 5.35,-4.44 21.9197,-6.7788 44.7023,-6.3096 55.3714,1.1405 246.0049,21.9003 251.4918,27.3873 8.4392,8.4391 -11.043,21.7577 -37.6671,25.7502 -13.9918,2.0982 -56.0235,2.4075 -93.4038,0.6873 -37.3803,-1.7202 -74.9279,-1.7391 -83.439,-0.042 -14.4645,2.8843 -15.2455,4.3638 -11.9637,22.6636 1.9311,10.7678 7.7276,44.1475 12.8811,74.1772 5.1536,30.0297 13.5275,60.9444 18.6088,68.6995 5.0813,7.755 24.0816,22.0112 42.2229,31.6804 18.1412,9.6692 37.8759,23.8631 43.8548,31.5421 5.9789,7.679 23.4207,21.4015 38.7596,30.4944 17.9653,10.6498 28.9948,21.2541 30.9967,29.8016 1.9737,8.4272 10.5192,16.7809 23.4194,22.8937 11.6864,5.5377 27.6998,20.3608 37.7097,34.9066 27.4006,39.8171 53.0082,66.5469 63.7533,66.5469 7.7145,0 10.5808,-5.63 13.1038,-25.7377 5.7445,-45.7829 21.9098,-65.5093 48.263,-58.8951 30.7326,7.7134 28.591,43.5339 -5.4141,90.5568 -31.9289,44.152 -72.3167,63.8231 -109.0307,53.1037 z"
     id="path4862" />
  <path
     style="fill:#063579;fill-opacity:1;stroke:#5599ff;stroke-width:0.338654"
     d="m 4101.0999,2083.1859 c -12.2931,-1.2507 -25.1622,-5.338 -36.6096,-11.6274 -22.3509,-12.2802 -43.8626,-34.5271 -55.1437,-57.0282 -5.5768,-11.1236 -8.2818,-21.0746 -8.2517,-30.3565 0.028,-8.6824 1.7316,-13.4071 8.3625,-23.1954 2.7509,-4.0609 7.8705,-9.4106 10.8707,-11.3594 4.3226,-2.8079 8.9932,-4.0585 14.057,-3.764 10.2632,0.5969 23.476,8.2036 39.2758,22.6117 2.3237,2.1191 11.315,10.9535 19.9805,19.632 15.8445,15.8682 20.4038,20.0813 27.2698,25.199 4.9105,3.6602 8.5537,5.7565 11.7857,6.7819 3.3503,1.0628 5.3197,1.0665 7.5802,0.014 4.9059,-2.2842 7.2069,-10.514 7.2155,-25.8073 0.01,-9.5879 -1.0203,-23.065 -3.2181,-42.2847 -2.587,-22.622 -3.5456,-34.7481 -3.5494,-44.8975 0,-8.1895 0.4344,-13.1502 1.551,-17.5841 2.4323,-9.6592 7.8361,-14.8624 18.9349,-18.2324 5.3511,-1.6248 7.1299,-1.901 12.1916,-1.8933 5.6581,0.01 8.7956,0.7116 13.5461,3.0351 11.6481,5.697 20.5205,19.6634 25.5466,40.2139 3.3792,13.8166 4.7539,27.3441 4.7596,46.8337 0.01,30.4338 -2.5944,45.0188 -11.1779,62.626 -16.5822,34.015 -49.9473,57.4601 -86.9796,61.1192 -4.0935,0.4045 -13.8585,0.3848 -17.9975,-0.036 z"
     id="path4901" />
</svg>
