<?xml version="1.0" standalone="no"?>
<!DOCTYPE svg PUBLIC "-//W3C//DTD SVG 20010904//EN"
 "http://www.w3.org/TR/2001/REC-SVG-20010904/DTD/svg10.dtd">
<svg version="1.0" xmlns="http://www.w3.org/2000/svg"
 width="13130.000000pt" height="4564.000000pt" viewBox="0 0 13130.000000 4564.000000"
 preserveAspectRatio="xMidYMid meet">

<g transform="translate(0.000000,4564.000000) scale(0.100000,-0.100000)"
fill="#000000" stroke="none">
<path d="M4680 45634 c-512 -65 -938 -358 -1169 -805 -117 -226 -171 -447
-171 -704 0 -734 504 -1348 1225 -1491 127 -26 415 -26 540 -1 610 123 1060
566 1197 1178 20 91 23 131 23 314 0 183 -3 223 -23 314 -136 608 -592 1058
-1192 1176 -82 16 -356 28 -430 19z"/>
<path d="M7985 45629 c-329 -44 -633 -195 -866 -428 -460 -462 -575 -1161
-289 -1746 151 -309 386 -545 695 -695 120 -59 214 -91 355 -121 150 -33 437
-33 587 -1 299 65 534 193 754 412 228 227 362 478 426 795 25 126 25 434 0
560 -122 609 -581 1080 -1175 1205 -113 24 -376 34 -487 19z"/>
<path d="M11360 45634 c-14 -2 -68 -11 -120 -20 -191 -32 -388 -113 -570 -235
-122 -81 -305 -263 -387 -385 -218 -322 -308 -693 -258 -1067 45 -342 188
-631 435 -878 216 -217 475 -355 777 -416 134 -27 434 -24 566 5 304 67 544
197 757 412 223 223 360 481 422 793 31 159 31 405 0 564 -122 613 -581 1082
-1182 1204 -91 19 -379 34 -440 23z"/>
<path d="M14660 45630 c-232 -32 -449 -115 -649 -247 -121 -80 -319 -280 -404
-408 -114 -173 -184 -340 -229 -549 -19 -85 -22 -133 -22 -301 0 -171 3 -215
23 -305 32 -149 63 -238 131 -375 367 -738 1248 -1042 1985 -685 621 302 957
988 819 1675 -64 317 -253 639 -496 843 -209 175 -438 286 -698 337 -99 19
-365 28 -460 15z"/>
<path d="M18030 45633 c-222 -24 -463 -109 -647 -229 -439 -285 -694 -752
-695 -1274 -1 -320 85 -601 263 -865 216 -321 547 -541 943 -627 135 -30 424
-32 561 -4 607 121 1060 569 1198 1184 18 83 21 128 21 307 0 179 -3 224 -21
307 -32 143 -67 239 -133 373 -258 518 -782 842 -1350 833 -58 0 -121 -3 -140
-5z"/>
<path d="M21307 45624 c-571 -88 -1025 -473 -1207 -1023 -56 -169 -74 -285
-74 -481 0 -130 5 -189 22 -277 61 -310 201 -573 422 -794 213 -213 455 -344
758 -411 131 -29 432 -32 565 -5 743 149 1261 812 1223 1564 -19 388 -170 728
-445 1004 -195 194 -414 322 -668 389 -184 49 -417 62 -596 34z"/>
<path d="M24700 45634 c-174 -22 -355 -76 -500 -149 -168 -84 -291 -176 -426
-318 -197 -205 -332 -469 -391 -762 -25 -126 -25 -434 0 -560 61 -299 195
-559 401 -772 124 -130 237 -215 386 -292 136 -70 254 -113 393 -143 150 -32
437 -32 587 1 210 45 402 128 565 243 115 81 282 248 364 363 73 104 168 295
204 410 120 386 91 784 -83 1140 -208 425 -583 717 -1049 816 -94 19 -367 33
-451 23z"/>
<path d="M28040 45634 c-181 -23 -350 -73 -505 -150 -410 -203 -703 -583 -807
-1045 -20 -91 -23 -131 -23 -314 0 -183 3 -223 23 -314 137 -610 591 -1057
1197 -1177 127 -26 415 -26 540 -1 465 94 848 381 1058 795 115 226 156 388
164 647 5 154 2 198 -16 304 -107 625 -582 1114 -1201 1236 -82 16 -356 28
-430 19z"/>
<path d="M31345 45629 c-871 -117 -1458 -950 -1280 -1815 27 -126 63 -231 125
-359 76 -157 161 -276 290 -405 216 -216 456 -346 760 -411 150 -33 437 -33
587 -1 534 115 968 507 1131 1022 54 169 66 256 66 460 1 268 -37 443 -144
666 -118 246 -323 477 -556 626 -134 86 -348 170 -515 203 -100 20 -364 28
-464 14z"/>
<path d="M34660 45626 c-332 -51 -605 -189 -841 -425 -275 -275 -426 -616
-445 -1004 -38 -752 480 -1415 1223 -1564 133 -27 434 -24 565 5 543 120 956
490 1128 1011 55 167 74 285 74 476 0 189 -18 306 -74 475 -127 388 -397 703
-755 880 -220 109 -384 149 -630 155 -102 3 -191 -1 -245 -9z"/>
<path d="M38012 45629 c-183 -25 -395 -99 -557 -194 -365 -214 -622 -573 -718
-1003 -18 -83 -21 -128 -21 -307 0 -179 3 -224 21 -307 138 -615 591 -1063
1198 -1184 137 -28 426 -26 561 4 576 125 1012 539 1157 1097 37 144 49 240
49 394 -2 524 -255 990 -695 1275 -152 99 -339 174 -527 211 -102 20 -365 28
-468 14z"/>
<path d="M50385 45629 c-245 -33 -481 -126 -679 -267 -104 -73 -275 -245 -349
-348 -334 -471 -376 -1091 -108 -1601 214 -406 605 -695 1056 -779 147 -28
422 -25 562 4 307 66 567 212 788 443 200 209 336 479 391 774 26 139 26 401
0 540 -59 315 -195 574 -421 800 -220 221 -456 350 -757 416 -109 23 -373 33
-483 18z"/>
<path d="M53721 45630 c-317 -44 -607 -184 -834 -400 -240 -228 -388 -501
-454 -835 -25 -129 -25 -405 1 -540 55 -295 188 -559 389 -771 173 -183 369
-311 600 -393 162 -57 271 -74 472 -75 274 -1 445 37 680 154 753 373 1051
1315 656 2067 -73 138 -152 243 -271 363 -214 214 -458 347 -755 410 -114 24
-376 35 -484 20z"/>
<path d="M57052 45629 c-423 -57 -810 -301 -1052 -662 -244 -366 -315 -847
-189 -1280 39 -134 151 -359 236 -471 228 -303 554 -508 928 -582 127 -26 415
-26 540 -1 549 111 976 486 1150 1009 54 164 66 237 72 430 6 194 -3 285 -43
437 -148 567 -601 994 -1174 1106 -102 20 -365 28 -468 14z"/>
<path d="M60395 45629 c-709 -96 -1246 -666 -1305 -1387 -48 -585 251 -1148
765 -1441 421 -240 948 -253 1389 -35 152 75 252 149 387 283 225 226 353 460
421 775 32 147 32 455 0 602 -65 298 -193 540 -396 752 -124 129 -237 214
-386 291 -225 116 -395 160 -645 166 -88 2 -191 0 -230 -6z"/>
<path d="M63705 45625 c-336 -55 -601 -189 -835 -425 -128 -127 -211 -242
-287 -395 -215 -430 -215 -929 -1 -1359 76 -153 160 -269 288 -396 215 -216
452 -345 757 -412 82 -18 130 -22 293 -22 163 0 211 4 293 22 305 67 542 196
757 412 128 127 212 243 288 396 214 429 214 932 0 1359 -77 153 -161 268
-288 396 -213 214 -466 350 -760 410 -129 27 -383 34 -505 14z"/>
<path d="M67070 45630 c-232 -32 -449 -115 -650 -248 -117 -78 -318 -280 -399
-401 -115 -173 -188 -348 -233 -555 -32 -147 -32 -455 0 -602 68 -315 196
-549 421 -775 135 -134 237 -209 388 -284 442 -219 973 -203 1398 41 314 181
566 487 680 828 148 441 88 932 -161 1313 -230 354 -574 588 -984 668 -99 19
-365 28 -460 15z"/>
<path d="M70440 45634 c-669 -85 -1176 -552 -1317 -1214 -26 -122 -26 -468 0
-590 118 -552 499 -982 1017 -1148 169 -54 256 -67 455 -66 199 0 289 13 455
66 515 165 906 608 1017 1154 28 137 25 463 -5 597 -134 603 -581 1053 -1170
1177 -95 20 -367 35 -452 24z"/>
<path d="M73717 45624 c-334 -52 -612 -194 -847 -433 -111 -114 -191 -221
-261 -354 -234 -445 -234 -979 0 -1424 210 -398 578 -675 1029 -775 142 -32
443 -32 589 0 1003 217 1508 1338 1007 2234 -197 351 -537 617 -921 718 -184
49 -417 62 -596 34z"/>
<path d="M77110 45634 c-250 -32 -478 -118 -685 -257 -122 -83 -312 -274 -393
-397 -119 -178 -199 -376 -238 -585 -26 -139 -26 -401 0 -540 78 -419 326
-789 682 -1017 133 -85 329 -164 497 -200 140 -29 415 -32 562 -4 207 39 422
129 590 248 111 78 281 246 358 354 279 394 356 890 210 1359 -36 115 -131
306 -204 410 -79 112 -248 281 -357 359 -164 116 -363 203 -567 246 -98 20
-369 35 -455 24z"/>
<path d="M80450 45634 c-533 -68 -966 -377 -1194 -855 -110 -229 -152 -439
-143 -709 9 -257 52 -425 168 -651 210 -407 595 -694 1054 -785 127 -26 415
-26 540 -1 649 131 1129 642 1216 1294 18 138 6 404 -24 533 -142 597 -595
1039 -1187 1155 -82 16 -356 28 -430 19z"/>
<path d="M83755 45629 c-503 -68 -933 -379 -1155 -834 -346 -709 -95 -1568
577 -1972 437 -262 973 -283 1428 -56 151 75 251 149 386 283 186 186 300 370
377 610 54 170 66 255 66 465 0 209 -12 294 -66 465 -162 512 -600 909 -1126
1020 -113 24 -376 34 -487 19z"/>
<path d="M96217 45624 c-571 -89 -1028 -476 -1207 -1024 -56 -169 -74 -286
-74 -475 0 -191 19 -309 74 -476 172 -521 585 -891 1128 -1011 131 -29 432
-32 565 -5 714 144 1227 767 1227 1492 0 682 -465 1293 -1117 1465 -184 49
-417 62 -596 34z"/>
<path d="M99610 45634 c-222 -29 -464 -113 -634 -222 -161 -103 -344 -281
-446 -433 -115 -172 -200 -380 -237 -582 -25 -129 -24 -428 1 -552 121 -610
578 -1077 1179 -1207 150 -32 437 -32 587 1 210 45 402 128 565 243 115 81
282 248 364 363 275 390 351 903 200 1360 -170 514 -594 893 -1128 1006 -94
19 -367 33 -451 23z"/>
<path d="M102950 45634 c-181 -23 -350 -73 -505 -150 -430 -213 -734 -625
-816 -1105 -18 -106 -21 -150 -16 -304 8 -259 49 -421 164 -647 210 -414 593
-701 1058 -795 125 -25 413 -25 540 1 606 120 1060 567 1197 1177 20 91 23
131 23 314 0 183 -3 223 -23 314 -136 605 -595 1059 -1192 1176 -82 16 -356
28 -430 19z"/>
<path d="M106251 45629 c-867 -117 -1452 -951 -1275 -1819 91 -445 393 -839
799 -1040 137 -68 226 -99 375 -131 150 -33 437 -33 587 -1 139 30 257 73 393
143 149 77 262 162 386 291 206 214 341 474 401 773 25 126 25 434 0 560 -41
204 -124 405 -237 574 -102 152 -285 330 -446 433 -134 86 -348 170 -515 203
-101 20 -364 28 -468 14z"/>
<path d="M109570 45626 c-332 -51 -605 -190 -840 -425 -249 -250 -389 -534
-435 -879 -85 -642 246 -1267 824 -1557 110 -55 262 -107 388 -132 133 -27
434 -24 565 5 611 135 1059 592 1180 1205 28 146 31 393 4 542 -84 475 -388
886 -811 1095 -220 109 -384 149 -630 155 -102 3 -191 -1 -245 -9z"/>
<path d="M112922 45629 c-253 -34 -528 -151 -724 -307 -276 -221 -463 -518
-544 -867 -26 -111 -28 -135 -28 -330 0 -195 2 -219 28 -330 170 -727 803
-1215 1531 -1182 656 31 1213 484 1378 1122 37 144 49 242 49 395 -1 522 -256
989 -695 1274 -152 99 -339 174 -527 211 -102 20 -365 28 -468 14z"/>
<path d="M116300 45634 c-94 -12 -214 -38 -300 -66 -457 -146 -816 -504 -969
-968 -97 -292 -97 -660 -1 -950 277 -832 1176 -1254 1981 -931 335 135 614
395 779 726 68 137 99 226 131 375 20 90 23 134 23 305 0 169 -3 216 -22 301
-68 315 -196 549 -421 775 -218 217 -456 347 -749 409 -95 20 -367 35 -452 24z"/>
<path d="M119575 45625 c-567 -93 -1011 -464 -1199 -1004 -59 -169 -80 -299
-80 -496 0 -135 5 -193 22 -282 62 -311 201 -573 422 -794 213 -213 455 -344
758 -411 131 -29 432 -32 565 -5 438 88 813 360 1033 749 157 277 222 619 179
941 -45 342 -189 632 -435 877 -215 216 -465 351 -758 411 -131 27 -384 34
-507 14z"/>
<path d="M122940 45630 c-579 -81 -1063 -488 -1238 -1040 -54 -171 -66 -256
-66 -465 0 -210 12 -295 66 -465 77 -240 191 -424 377 -610 135 -134 235 -208
386 -283 455 -227 991 -206 1428 56 672 404 923 1263 577 1972 -206 423 -585
717 -1049 815 -110 24 -376 34 -481 20z"/>
<path d="M126310 45634 c-662 -84 -1166 -543 -1312 -1195 -20 -91 -23 -131
-23 -314 0 -183 3 -223 23 -314 137 -611 588 -1055 1197 -1178 125 -25 413
-25 540 1 459 91 844 378 1054 785 116 226 159 394 168 651 4 126 2 192 -11
277 -94 638 -576 1144 -1206 1268 -82 16 -356 28 -430 19z"/>
<path d="M129615 45629 c-417 -57 -792 -284 -1034 -624 -201 -285 -302 -658
-272 -1005 33 -373 179 -688 441 -950 220 -220 483 -360 785 -416 147 -28 422
-25 562 4 307 66 567 212 788 443 153 161 269 355 338 569 55 168 72 280 72
475 0 195 -17 307 -72 475 -75 233 -188 415 -368 595 -220 221 -456 350 -757
416 -109 23 -373 33 -483 18z"/>
<path d="M1340 42259 c-174 -19 -391 -85 -540 -167 -403 -220 -674 -585 -771
-1042 -33 -151 -33 -448 -1 -596 131 -607 568 -1053 1163 -1186 91 -20 131
-23 309 -23 223 0 291 10 463 66 321 105 623 343 804 634 169 270 254 628 224
935 -22 216 -67 374 -157 555 -278 560 -874 888 -1494 824z"/>
<path d="M4690 42261 c-353 -38 -652 -181 -906 -435 -218 -219 -348 -457 -417
-764 -29 -134 -32 -473 -3 -602 135 -621 577 -1067 1186 -1197 123 -26 449
-26 575 1 424 89 793 356 1009 731 87 151 158 361 185 542 18 118 14 346 -8
475 -54 314 -195 583 -425 814 -222 222 -472 356 -768 413 -119 23 -320 33
-428 22z"/>
<path d="M8024 42260 c-516 -55 -962 -367 -1194 -838 -279 -566 -175 -1258
258 -1714 242 -254 551 -414 888 -459 115 -15 394 -6 494 16 199 44 411 137
573 252 108 77 267 237 346 348 71 101 168 292 205 405 53 162 70 271 70 470
1 210 -14 317 -69 487 -219 670 -881 1105 -1571 1033z"/>
<path d="M11355 42259 c-495 -51 -944 -359 -1173 -806 -376 -733 -111 -1620
605 -2029 105 -60 263 -120 397 -152 101 -24 130 -26 321 -27 184 0 223 3 315
23 273 61 509 187 708 376 221 211 361 447 433 733 106 418 26 874 -213 1228
-312 460 -846 710 -1393 654z"/>
<path d="M14735 42264 c-363 -37 -662 -171 -917 -412 -409 -389 -568 -986
-407 -1535 38 -129 138 -336 220 -452 78 -110 237 -270 347 -348 160 -115 372
-208 572 -252 46 -10 144 -19 250 -22 147 -4 194 -2 295 15 312 53 577 192
805 421 263 263 409 582 440 956 22 281 -36 565 -171 824 -77 149 -161 261
-290 386 -269 261 -609 406 -981 419 -68 2 -141 2 -163 0z"/>
<path d="M18035 42261 c-339 -40 -636 -178 -878 -410 -139 -133 -227 -252
-310 -417 -122 -244 -176 -517 -156 -797 51 -692 564 -1262 1244 -1379 101
-17 147 -19 295 -15 191 6 264 18 428 73 500 166 880 596 993 1122 30 140 37
383 15 530 -40 267 -134 492 -297 709 -223 294 -569 506 -932 568 -110 18
-309 26 -402 16z"/>
<path d="M21365 42259 c-369 -38 -735 -230 -974 -513 -213 -252 -331 -535
-363 -866 -31 -340 60 -688 258 -988 80 -119 281 -320 403 -401 165 -110 341
-184 541 -227 68 -15 126 -19 295 -19 191 1 220 3 321 27 595 141 1038 608
1150 1213 25 134 25 400 1 535 -39 209 -141 449 -264 623 -70 98 -222 254
-317 324 -307 228 -678 330 -1051 292z"/>
<path d="M24700 42259 c-187 -20 -420 -95 -575 -185 -127 -75 -223 -149 -330
-258 -212 -215 -355 -490 -411 -791 -28 -147 -26 -432 4 -571 88 -411 312
-745 652 -971 151 -101 339 -179 530 -220 122 -26 459 -26 580 1 197 43 374
117 540 228 123 81 314 271 397 393 240 356 324 783 234 1195 -164 750 -862
1257 -1621 1179z"/>
<path d="M28050 42261 c-353 -38 -652 -181 -906 -435 -293 -293 -444 -656
-444 -1066 0 -162 11 -257 47 -395 70 -271 202 -498 407 -700 162 -161 354
-278 570 -350 179 -60 248 -70 471 -70 223 0 292 10 471 70 448 149 808 513
952 965 51 161 63 233 69 425 4 153 2 198 -15 300 -55 322 -194 588 -426 821
-222 222 -472 356 -768 413 -119 23 -320 33 -428 22z"/>
<path d="M31384 42260 c-188 -20 -336 -64 -519 -155 -371 -184 -657 -526 -770
-923 -43 -153 -58 -265 -58 -432 0 -185 19 -305 73 -470 78 -240 191 -422 375
-605 217 -217 453 -345 755 -411 121 -27 458 -27 580 -1 604 129 1049 578
1182 1191 32 148 32 446 -1 596 -95 443 -350 798 -736 1024 -248 145 -588 217
-881 186z"/>
<path d="M34710 42259 c-262 -29 -519 -132 -736 -292 -95 -70 -247 -226 -317
-324 -123 -173 -225 -414 -264 -623 -24 -132 -24 -411 0 -535 90 -460 356
-834 754 -1061 105 -60 263 -120 397 -152 101 -24 130 -26 321 -27 169 0 227
4 295 19 200 43 376 117 541 227 126 84 324 282 407 408 196 297 284 640 253
979 -30 332 -148 616 -362 868 -216 256 -542 441 -877 499 -110 19 -306 26
-412 14z"/>
<path d="M38095 42264 c-363 -37 -662 -171 -917 -412 -246 -234 -403 -540
-454 -884 -22 -147 -15 -390 15 -530 113 -526 493 -956 993 -1122 164 -55 237
-67 428 -73 148 -4 194 -2 295 15 680 117 1193 687 1244 1379 25 352 -64 685
-262 978 -83 123 -275 314 -396 394 -177 118 -357 192 -555 230 -102 20 -310
33 -391 25z"/>
<path d="M47085 42261 c-356 -42 -648 -183 -901 -435 -296 -297 -444 -655
-444 -1074 0 -428 150 -787 454 -1087 218 -216 512 -364 811 -411 135 -20 408
-15 525 11 595 131 1032 568 1171 1170 26 116 37 382 20 510 -46 346 -187 632
-436 881 -279 280 -610 424 -1009 438 -66 3 -152 1 -191 -3z"/>
<path d="M50424 42260 c-510 -54 -959 -366 -1188 -825 -263 -528 -202 -1158
157 -1618 222 -284 529 -475 887 -553 122 -27 459 -27 580 0 135 29 237 64
355 121 430 208 723 587 827 1069 32 148 32 445 -1 596 -142 666 -667 1143
-1330 1210 -114 11 -180 11 -287 0z"/>
<path d="M53750 42259 c-332 -35 -649 -188 -890 -429 -218 -219 -355 -472
-422 -783 -29 -136 -32 -423 -5 -567 114 -612 572 -1082 1187 -1216 121 -27
458 -27 580 0 590 128 1043 575 1171 1156 112 511 -42 1040 -412 1409 -320
320 -759 476 -1209 430z"/>
<path d="M57096 42260 c-356 -41 -650 -183 -901 -434 -218 -218 -339 -439
-412 -746 -37 -157 -43 -409 -14 -579 106 -622 563 -1100 1181 -1236 118 -26
390 -31 525 -10 642 100 1148 611 1251 1262 24 157 15 427 -19 573 -70 294
-197 522 -411 736 -223 222 -471 356 -770 413 -124 24 -319 33 -430 21z"/>
<path d="M60434 42260 c-517 -59 -956 -364 -1188 -825 -212 -422 -213 -942 -3
-1362 226 -449 656 -759 1143 -824 115 -15 394 -6 494 16 199 44 411 137 573
252 107 77 267 237 344 346 121 171 208 373 255 587 19 90 22 134 22 305 0
168 -4 216 -22 302 -133 616 -610 1082 -1215 1187 -109 19 -309 27 -403 16z"/>
<path d="M63757 42258 c-357 -36 -720 -226 -958 -501 -529 -611 -498 -1522 72
-2085 206 -203 442 -333 723 -400 101 -24 130 -26 321 -27 184 0 223 3 315 23
116 26 260 77 361 127 180 91 397 274 524 444 255 339 357 783 276 1199 -128
661 -664 1155 -1325 1221 -123 12 -183 12 -309 -1z"/>
<path d="M67150 42264 c-120 -14 -200 -28 -268 -45 -548 -144 -970 -591 -1094
-1162 -19 -87 -22 -131 -22 -307 0 -172 4 -221 22 -303 47 -213 134 -413 255
-584 77 -109 237 -269 344 -346 162 -115 373 -208 573 -252 46 -10 144 -19
250 -22 197 -6 344 13 495 62 669 220 1105 872 1045 1561 -36 413 -205 753
-512 1029 -189 171 -467 305 -723 349 -92 16 -302 28 -365 20z"/>
<path d="M70445 42261 c-356 -42 -648 -183 -901 -435 -214 -214 -341 -442
-411 -736 -34 -146 -43 -416 -19 -573 103 -651 609 -1162 1251 -1262 135 -21
407 -16 525 10 422 93 775 347 995 716 93 158 162 356 191 551 22 149 15 402
-15 533 -48 209 -133 404 -246 566 -82 117 -268 300 -384 378 -177 118 -384
201 -584 236 -110 18 -309 26 -402 16z"/>
<path d="M73775 42259 c-332 -35 -654 -189 -894 -430 -446 -445 -572 -1115
-319 -1692 167 -384 511 -697 905 -826 172 -56 240 -66 463 -66 178 0 219 3
310 23 517 116 931 483 1104 981 62 177 81 299 80 511 -1 267 -38 430 -153
665 -78 158 -163 277 -291 405 -248 248 -558 395 -909 430 -116 11 -179 11
-296 -1z"/>
<path d="M77110 42259 c-645 -67 -1171 -552 -1311 -1209 -33 -151 -33 -448 -1
-596 131 -607 568 -1053 1163 -1186 91 -20 131 -23 309 -23 162 0 223 4 290
19 196 42 372 117 540 227 121 80 313 270 397 394 241 357 324 781 233 1196
-76 352 -283 672 -575 892 -100 75 -309 183 -428 221 -202 65 -406 86 -617 65z"/>
<path d="M80460 42261 c-353 -38 -653 -182 -905 -435 -249 -249 -390 -535
-436 -881 -17 -128 -6 -394 20 -510 124 -539 491 -953 994 -1120 180 -60 249
-70 472 -70 223 0 292 10 471 70 345 115 644 360 828 680 87 151 158 361 185
542 18 118 14 346 -8 475 -54 314 -195 583 -425 814 -222 222 -472 356 -768
413 -119 23 -320 33 -428 22z"/>
<path d="M83794 42260 c-515 -54 -964 -369 -1194 -838 -177 -361 -204 -770
-75 -1158 179 -540 661 -940 1221 -1015 115 -15 394 -6 494 16 598 131 1042
581 1171 1185 31 143 33 426 5 575 -125 670 -663 1167 -1335 1235 -114 11
-180 11 -287 0z"/>
<path d="M92945 42261 c-252 -30 -473 -111 -686 -252 -121 -80 -313 -271 -396
-394 -198 -293 -284 -615 -261 -976 43 -687 563 -1263 1243 -1381 101 -17 147
-19 295 -15 191 6 264 18 428 73 500 166 880 595 993 1122 32 152 37 403 11
558 -24 139 -68 284 -122 399 -205 444 -627 768 -1103 850 -110 18 -309 26
-402 16z"/>
<path d="M96275 42259 c-369 -38 -735 -230 -974 -513 -214 -252 -332 -536
-362 -868 -31 -339 57 -682 253 -979 83 -126 281 -324 407 -408 165 -110 342
-184 541 -227 67 -15 128 -19 290 -19 178 0 219 3 310 23 390 87 713 309 936
643 348 522 335 1215 -34 1733 -69 97 -222 253 -316 323 -307 228 -678 330
-1051 292z"/>
<path d="M99610 42259 c-187 -20 -420 -95 -575 -185 -127 -75 -223 -149 -330
-258 -208 -210 -341 -462 -406 -766 -33 -150 -33 -448 -1 -596 89 -411 313
-745 652 -971 151 -101 339 -179 530 -220 122 -26 459 -26 580 1 197 43 374
117 540 228 123 81 314 271 397 393 241 357 323 781 233 1196 -76 352 -282
671 -576 892 -99 75 -308 183 -427 221 -202 65 -406 86 -617 65z"/>
<path d="M102960 42261 c-353 -38 -652 -181 -906 -435 -294 -294 -444 -656
-444 -1069 0 -429 152 -794 454 -1092 162 -161 354 -278 570 -350 179 -60 248
-70 471 -70 223 0 292 10 471 70 216 72 408 189 570 350 198 196 321 403 399
670 79 273 73 615 -15 885 -77 236 -194 426 -374 606 -222 222 -472 356 -768
413 -119 23 -320 33 -428 22z"/>
<path d="M106294 42260 c-516 -55 -962 -367 -1194 -838 -280 -567 -175 -1258
260 -1716 241 -253 549 -412 886 -457 115 -15 394 -6 494 16 184 40 372 119
520 218 340 226 564 560 652 971 30 139 32 424 4 571 -82 442 -349 820 -741
1049 -248 145 -588 217 -881 186z"/>
<path d="M109620 42259 c-262 -29 -519 -132 -736 -292 -95 -70 -247 -226 -317
-324 -123 -173 -224 -413 -263 -623 -25 -131 -25 -410 -1 -535 89 -458 356
-834 754 -1061 105 -60 263 -120 397 -152 101 -24 130 -26 321 -27 169 0 227
4 295 19 200 43 376 117 541 227 122 81 323 282 403 401 198 300 289 648 258
988 -32 331 -150 614 -363 866 -216 256 -542 441 -877 499 -110 19 -306 26
-412 14z"/>
<path d="M113005 42264 c-363 -37 -662 -171 -917 -412 -246 -234 -403 -540
-454 -884 -22 -147 -15 -390 15 -530 62 -289 206 -553 416 -763 167 -166 361
-288 575 -359 166 -55 238 -67 430 -73 148 -4 194 -2 295 15 680 117 1193 687
1244 1379 20 280 -34 553 -156 797 -83 165 -171 284 -310 417 -268 257 -606
400 -975 413 -68 2 -141 2 -163 0z"/>
<path d="M116304 42260 c-263 -30 -510 -125 -721 -276 -116 -83 -290 -262
-364 -374 -195 -295 -284 -630 -259 -971 29 -373 176 -695 440 -960 228 -229
493 -368 805 -421 101 -17 148 -19 295 -15 192 6 264 18 430 73 213 71 406
191 574 359 210 209 351 469 417 767 29 135 36 379 15 526 -96 653 -591 1167
-1229 1277 -110 18 -309 26 -403 15z"/>
<path d="M119635 42259 c-514 -53 -979 -387 -1199 -862 -149 -320 -183 -680
-97 -1020 140 -556 582 -984 1141 -1109 92 -20 131 -23 315 -23 191 1 220 3
321 27 351 83 655 281 868 565 350 466 402 1094 134 1616 -281 548 -872 869
-1483 806z"/>
<path d="M122970 42259 c-198 -21 -424 -96 -595 -198 -380 -226 -640 -599
-721 -1036 -28 -149 -26 -432 5 -575 100 -471 389 -848 812 -1061 91 -45 247
-100 359 -124 100 -22 379 -31 494 -16 929 124 1519 1078 1225 1981 -220 672
-879 1101 -1579 1029z"/>
<path d="M126320 42261 c-353 -38 -652 -181 -906 -435 -295 -295 -444 -655
-444 -1073 0 -162 10 -243 47 -388 70 -271 201 -496 407 -700 162 -160 354
-278 570 -350 179 -60 248 -70 471 -70 155 0 219 4 285 18 601 128 1042 566
1181 1172 26 116 37 382 20 510 -46 346 -187 632 -436 881 -220 221 -471 356
-771 414 -115 22 -317 32 -424 21z"/>
<path d="M129654 42260 c-510 -54 -960 -366 -1188 -825 -250 -501 -209 -1082
107 -1550 84 -124 276 -314 397 -394 168 -110 344 -185 540 -227 122 -27 459
-27 580 0 135 29 237 64 355 121 430 208 723 587 827 1069 32 148 32 445 -1
596 -142 666 -667 1143 -1330 1210 -114 11 -180 11 -287 0z"/>
<path d="M1315 38883 c-86 -11 -241 -49 -325 -80 -497 -185 -847 -595 -962
-1127 -32 -148 -32 -445 1 -596 134 -628 600 -1084 1221 -1197 64 -11 146 -17
250 -17 248 1 428 42 645 148 163 80 282 164 404 287 522 521 595 1326 178
1944 -83 122 -274 312 -396 392 -263 175 -530 255 -839 252 -81 -1 -160 -4
-177 -6z"/>
<path d="M4600 38876 c-326 -59 -589 -196 -821 -427 -211 -211 -347 -466 -415
-779 -29 -129 -26 -468 3 -602 69 -307 199 -545 417 -764 225 -224 469 -355
779 -416 144 -28 384 -30 527 -4 306 55 570 195 796 420 296 296 444 654 444
1073 0 162 -10 243 -47 388 -109 421 -396 775 -786 972 -98 49 -252 103 -367
128 -102 23 -426 29 -530 11z"/>
<path d="M7910 38870 c-838 -153 -1384 -981 -1201 -1820 173 -789 941 -1307
1726 -1164 535 98 982 486 1155 1003 61 181 74 266 74 486 0 171 -3 215 -23
305 -88 408 -312 742 -651 967 -148 99 -303 165 -490 210 -149 35 -436 42
-590 13z"/>
<path d="M11295 38880 c-333 -52 -621 -203 -861 -452 -205 -213 -330 -454
-395 -758 -32 -152 -33 -418 -1 -577 87 -438 344 -802 723 -1028 252 -149 578
-223 870 -196 649 59 1170 505 1330 1138 98 388 37 808 -167 1150 -213 358
-559 608 -973 705 -99 22 -422 34 -526 18z"/>
<path d="M14665 38884 c-251 -37 -491 -131 -688 -271 -107 -77 -267 -237 -344
-346 -119 -169 -209 -373 -254 -579 -29 -135 -36 -379 -15 -526 28 -192 92
-381 182 -537 357 -621 1088 -907 1761 -689 104 34 281 120 373 183 146 98
305 258 405 406 361 538 343 1250 -46 1768 -218 291 -533 491 -899 572 -73 16
-403 29 -475 19z"/>
<path d="M17950 38876 c-486 -88 -889 -384 -1100 -811 -97 -195 -143 -363
-159 -572 -31 -438 116 -851 414 -1162 145 -151 271 -242 445 -325 289 -136
601 -176 914 -115 601 115 1068 587 1193 1204 27 137 25 454 -5 592 -44 204
-132 406 -250 573 -81 115 -238 274 -350 353 -160 115 -373 208 -572 252 -103
23 -427 29 -530 11z"/>
<path d="M21305 38880 c-107 -17 -258 -60 -360 -104 -197 -83 -344 -186 -500
-348 -634 -658 -542 -1727 195 -2275 283 -210 666 -318 1009 -284 364 36 671
180 921 431 117 117 196 222 266 354 235 443 244 954 23 1401 -200 405 -567
698 -1008 802 -89 21 -137 25 -296 28 -104 2 -217 0 -250 -5z"/>
<path d="M24675 38883 c-157 -20 -314 -67 -460 -138 -431 -209 -724 -587 -827
-1069 -30 -139 -32 -424 -4 -571 159 -851 980 -1396 1811 -1203 721 167 1222
862 1156 1602 -64 702 -577 1261 -1261 1371 -87 14 -334 19 -415 8z"/>
<path d="M27960 38876 c-277 -50 -513 -158 -722 -333 -213 -177 -381 -427
-466 -693 -51 -161 -63 -233 -69 -425 -4 -153 -2 -198 15 -300 55 -322 194
-588 426 -821 225 -224 469 -355 779 -416 158 -31 386 -31 544 0 310 61 554
192 779 416 232 233 371 499 426 821 27 156 21 429 -11 570 -48 207 -117 369
-230 537 -218 325 -547 546 -941 633 -102 23 -426 29 -530 11z"/>
<path d="M31275 38871 c-324 -60 -598 -208 -825 -447 -561 -591 -552 -1534 20
-2113 391 -396 960 -544 1487 -385 540 162 944 616 1049 1179 28 147 26 432
-4 571 -103 482 -397 862 -827 1069 -216 104 -350 135 -610 141 -155 3 -208 0
-290 -15z"/>
<path d="M34657 38880 c-327 -52 -614 -198 -844 -430 -218 -220 -358 -489
-420 -805 -24 -124 -24 -403 0 -535 39 -209 140 -449 264 -623 118 -167 321
-345 513 -449 238 -130 548 -194 821 -169 471 43 876 287 1132 681 291 451
324 1021 87 1503 -78 158 -153 261 -290 398 -217 217 -439 341 -739 411 -98
22 -423 34 -524 18z"/>
<path d="M37975 38876 c-318 -53 -592 -194 -820 -421 -211 -211 -353 -471
-417 -768 -30 -139 -32 -454 -5 -592 43 -211 134 -427 252 -596 82 -117 268
-300 384 -378 595 -396 1356 -331 1865 159 139 134 227 252 311 420 176 350
207 773 84 1155 -45 138 -138 316 -228 436 -221 293 -535 493 -901 574 -102
23 -416 29 -525 11z"/>
<path d="M47000 38876 c-456 -82 -837 -347 -1064 -741 -89 -155 -160 -365
-187 -554 -19 -133 -6 -411 24 -541 70 -294 197 -522 411 -736 226 -225 490
-365 796 -420 143 -26 383 -24 527 4 293 58 544 188 755 391 307 294 468 671
468 1098 0 216 -33 384 -113 582 -78 193 -182 348 -337 501 -205 203 -459 341
-750 405 -102 23 -426 29 -530 11z"/>
<path d="M50310 38870 c-200 -36 -394 -115 -570 -231 -122 -81 -313 -271 -397
-395 -317 -467 -357 -1051 -107 -1549 214 -428 614 -726 1089 -812 124 -22
370 -22 495 0 621 113 1087 569 1221 1197 33 151 33 448 1 596 -129 597 -561
1044 -1142 1181 -149 35 -436 42 -590 13z"/>
<path d="M53725 38883 c-86 -11 -241 -49 -325 -80 -435 -162 -763 -501 -910
-942 -60 -178 -74 -275 -74 -491 0 -153 4 -203 23 -290 125 -589 552 -1037
1120 -1174 229 -56 472 -56 697 -1 502 121 908 496 1073 990 125 377 97 800
-76 1150 -218 441 -619 745 -1091 826 -106 18 -340 24 -437 12z"/>
<path d="M57010 38876 c-166 -30 -297 -74 -443 -148 -423 -216 -716 -620 -798
-1099 -29 -170 -23 -422 14 -579 73 -307 195 -529 412 -746 223 -224 468 -355
778 -416 144 -28 384 -30 527 -4 306 55 571 195 795 420 216 217 342 441 412
736 34 146 43 416 19 573 -99 627 -560 1113 -1186 1252 -102 23 -426 29 -530
11z"/>
<path d="M60400 38884 c-146 -27 -198 -39 -280 -66 -442 -143 -807 -507 -955
-952 -107 -322 -107 -651 1 -976 162 -489 564 -860 1064 -984 821 -202 1640
322 1822 1167 18 86 22 134 22 302 0 171 -3 215 -22 305 -75 347 -252 645
-506 858 -197 164 -388 260 -636 319 -88 21 -135 25 -295 28 -104 2 -201 1
-215 -1z"/>
<path d="M63705 38879 c-465 -72 -874 -360 -1100 -774 -128 -233 -196 -532
-182 -796 21 -386 171 -730 437 -999 200 -202 426 -332 696 -401 752 -190
1521 229 1778 968 166 479 82 1016 -224 1421 -32 43 -105 123 -163 178 -203
196 -432 320 -716 386 -99 22 -423 34 -526 17z"/>
<path d="M67075 38884 c-251 -37 -491 -131 -688 -271 -107 -77 -267 -237 -344
-346 -175 -248 -268 -525 -280 -828 -12 -296 51 -561 193 -811 429 -761 1407
-996 2129 -512 565 378 807 1096 590 1750 -74 222 -192 412 -365 584 -213 214
-450 345 -745 411 -69 16 -134 22 -275 24 -102 2 -198 1 -215 -1z"/>
<path d="M70360 38876 c-656 -118 -1143 -613 -1246 -1263 -24 -157 -15 -427
19 -573 70 -295 196 -519 412 -736 224 -225 489 -365 795 -420 143 -26 383
-24 527 4 310 61 555 192 778 416 217 217 339 439 412 746 34 145 42 388 19
548 -50 336 -194 622 -436 862 -205 203 -461 342 -750 405 -103 23 -427 29
-530 11z"/>
<path d="M73670 38870 c-412 -75 -783 -327 -1008 -685 -94 -151 -175 -365
-208 -550 -23 -134 -24 -385 0 -512 60 -329 201 -599 432 -828 193 -191 434
-327 698 -390 501 -122 1029 28 1396 395 128 128 213 247 291 405 66 135 100
233 131 379 29 138 31 425 4 566 -102 524 -452 952 -935 1141 -178 70 -287 90
-506 95 -157 3 -208 0 -295 -16z"/>
<path d="M77085 38883 c-86 -11 -241 -49 -325 -80 -428 -160 -755 -492 -904
-922 -65 -186 -80 -280 -80 -501 0 -164 4 -211 23 -300 120 -562 509 -993
1044 -1154 299 -91 639 -81 932 26 763 280 1171 1126 915 1899 -180 544 -633
934 -1190 1024 -87 14 -332 19 -415 8z"/>
<path d="M80370 38876 c-452 -81 -822 -337 -1056 -729 -91 -153 -167 -376
-193 -561 -15 -109 -13 -324 4 -436 86 -560 466 -1021 994 -1204 166 -58 300
-80 486 -80 189 1 298 18 466 74 234 77 404 184 585 364 293 293 444 656 444
1066 0 162 -11 257 -47 395 -144 556 -581 974 -1153 1100 -102 23 -426 29
-530 11z"/>
<path d="M83680 38870 c-317 -58 -594 -209 -822 -448 -432 -455 -537 -1149
-258 -1714 466 -946 1713 -1136 2430 -371 197 211 332 480 386 768 28 147 26
432 -4 571 -103 483 -396 861 -827 1069 -216 104 -350 135 -610 141 -157 3
-208 0 -295 -16z"/>
<path d="M92860 38876 c-628 -113 -1109 -579 -1235 -1194 -37 -182 -35 -444 5
-626 66 -304 209 -557 436 -776 406 -391 986 -518 1516 -334 219 76 388 184
559 354 63 63 142 153 174 199 116 166 205 375 252 591 28 130 25 457 -5 597
-45 206 -131 405 -250 573 -82 116 -239 275 -349 353 -162 115 -374 208 -573
252 -103 23 -427 29 -530 11z"/>
<path d="M96215 38880 c-107 -17 -258 -60 -360 -104 -197 -83 -345 -186 -500
-348 -358 -372 -502 -903 -380 -1406 133 -549 552 -977 1090 -1112 511 -130
1043 17 1415 390 58 58 131 141 162 186 202 284 303 628 284 968 -12 223 -58
399 -157 601 -198 404 -567 698 -1008 802 -89 21 -137 25 -296 28 -104 2 -217
0 -250 -5z"/>
<path d="M99585 38883 c-157 -20 -314 -67 -460 -138 -430 -208 -724 -588 -827
-1069 -30 -139 -32 -424 -4 -571 159 -851 980 -1396 1811 -1203 719 167 1221
860 1156 1597 -63 706 -575 1265 -1261 1376 -87 14 -334 19 -415 8z"/>
<path d="M102870 38876 c-422 -76 -769 -299 -1001 -644 -113 -168 -182 -330
-230 -537 -32 -141 -38 -414 -11 -570 55 -322 194 -588 426 -821 225 -224 469
-355 779 -416 158 -31 386 -31 544 0 310 61 554 192 779 416 232 233 371 499
426 821 17 102 19 147 15 300 -6 192 -18 264 -69 425 -44 137 -99 249 -183
375 -221 331 -547 552 -945 640 -102 23 -426 29 -530 11z"/>
<path d="M106185 38871 c-325 -60 -598 -208 -827 -449 -559 -588 -549 -1536
23 -2112 351 -353 832 -508 1319 -424 611 105 1100 595 1216 1219 28 147 26
432 -4 571 -87 407 -311 742 -647 969 -83 56 -264 144 -355 174 -152 49 -238
62 -435 67 -155 3 -208 0 -290 -15z"/>
<path d="M109595 38884 c-446 -65 -813 -295 -1061 -665 -111 -166 -189 -361
-231 -574 -24 -125 -24 -405 0 -535 39 -209 140 -449 264 -623 118 -167 321
-345 513 -449 238 -130 548 -194 821 -169 473 43 875 286 1134 684 287 442
321 1015 89 1493 -76 156 -157 268 -294 405 -217 217 -439 341 -739 411 -66
15 -131 20 -276 23 -104 2 -203 1 -220 -1z"/>
<path d="M112885 38876 c-318 -53 -590 -193 -819 -421 -126 -125 -210 -243
-292 -410 -106 -217 -154 -425 -154 -665 0 -427 168 -817 477 -1110 395 -374
960 -502 1480 -334 115 37 305 134 410 210 116 83 290 263 364 374 196 296
283 624 258 973 -16 209 -62 377 -159 572 -201 405 -582 699 -1040 800 -102
23 -416 29 -525 11z"/>
<path d="M116270 38884 c-220 -40 -330 -74 -473 -145 -412 -204 -709 -587
-808 -1042 -41 -187 -42 -433 -4 -624 41 -200 149 -442 269 -603 84 -112 260
-281 366 -351 460 -305 1022 -340 1506 -94 314 160 578 445 708 765 89 217
121 405 113 645 -9 243 -56 426 -163 636 -76 149 -161 265 -279 384 -206 205
-437 334 -725 402 -88 21 -135 25 -295 28 -104 2 -201 1 -215 -1z"/>
<path d="M119575 38880 c-312 -49 -590 -188 -818 -409 -210 -203 -344 -434
-416 -714 -171 -663 126 -1366 719 -1702 255 -144 578 -214 862 -186 365 37
672 182 928 441 420 424 551 1059 335 1622 -149 387 -468 708 -854 859 -179
70 -287 90 -506 94 -104 2 -217 0 -250 -5z"/>
<path d="M122945 38883 c-157 -20 -314 -67 -460 -138 -432 -209 -724 -587
-827 -1069 -30 -139 -32 -424 -4 -571 116 -623 596 -1106 1211 -1219 309 -56
637 -9 920 131 679 338 1002 1122 760 1849 -173 522 -626 912 -1163 1005 -107
18 -341 25 -437 12z"/>
<path d="M126230 38876 c-600 -108 -1063 -532 -1213 -1111 -36 -138 -47 -233
-47 -395 0 -410 151 -773 444 -1066 226 -225 490 -365 796 -420 143 -26 383
-24 527 4 293 58 544 188 755 391 307 294 468 671 468 1098 0 216 -33 384
-113 582 -78 193 -182 348 -337 501 -205 203 -459 341 -750 405 -102 23 -426
29 -530 11z"/>
<path d="M129545 38871 c-324 -60 -598 -208 -825 -447 -346 -364 -488 -879
-380 -1375 61 -282 204 -541 411 -748 217 -218 495 -362 804 -418 124 -22 370
-22 495 0 621 113 1087 569 1221 1197 33 151 33 448 1 596 -129 597 -561 1044
-1142 1181 -147 35 -436 42 -585 14z"/>
<path d="M1340 35514 c-250 -32 -478 -118 -685 -257 -122 -83 -312 -274 -393
-397 -119 -178 -199 -376 -238 -585 -29 -156 -26 -422 8 -580 86 -404 328
-756 674 -977 133 -85 329 -164 497 -200 140 -29 415 -32 562 -4 207 39 422
129 590 248 111 78 281 246 358 354 377 532 377 1246 0 1778 -77 108 -247 276
-358 354 -162 115 -358 199 -560 242 -98 20 -369 35 -455 24z"/>
<path d="M4680 35514 c-512 -65 -939 -359 -1169 -804 -118 -227 -171 -448
-171 -705 0 -734 504 -1348 1225 -1491 127 -26 415 -26 540 -1 603 122 1049
556 1192 1157 30 129 42 395 24 533 -87 649 -571 1166 -1211 1292 -82 16 -356
28 -430 19z"/>
<path d="M7985 35509 c-329 -44 -633 -195 -866 -428 -696 -699 -554 -1872 288
-2378 437 -262 973 -283 1428 -56 151 75 251 149 386 283 228 227 362 478 426
795 25 126 25 434 0 560 -61 299 -195 559 -401 772 -124 130 -237 215 -386
292 -225 116 -395 160 -645 166 -88 2 -191 0 -230 -6z"/>
<path d="M11360 35514 c-14 -2 -68 -11 -120 -20 -191 -32 -388 -113 -570 -235
-122 -81 -305 -263 -388 -385 -218 -322 -307 -693 -257 -1067 45 -342 188
-631 435 -878 216 -217 475 -355 777 -416 134 -27 434 -24 566 5 303 67 543
197 757 412 221 220 360 482 422 793 31 159 31 405 0 564 -122 613 -581 1082
-1182 1204 -91 19 -379 34 -440 23z"/>
<path d="M47080 35514 c-703 -89 -1238 -616 -1331 -1311 -18 -138 -6 -404 24
-533 127 -534 501 -946 1007 -1108 169 -54 256 -67 455 -66 262 0 438 40 660
150 513 254 835 778 835 1359 0 732 -506 1350 -1220 1490 -82 16 -356 28 -430
19z"/>
<path d="M50385 35509 c-245 -33 -481 -126 -679 -267 -104 -73 -275 -245 -349
-348 -377 -532 -377 -1246 0 -1778 77 -108 247 -276 358 -354 168 -119 383
-209 590 -248 147 -28 422 -25 562 4 307 66 567 212 788 443 200 209 336 479
391 774 26 139 26 401 0 540 -39 209 -119 407 -238 585 -81 123 -271 314 -393
397 -172 116 -372 200 -566 238 -100 20 -365 28 -464 14z"/>
<path d="M53721 35510 c-589 -82 -1075 -497 -1245 -1062 -47 -156 -60 -251
-61 -438 0 -200 16 -310 72 -480 75 -233 188 -415 368 -595 219 -220 461 -353
758 -417 140 -29 415 -32 562 -4 451 84 842 373 1056 779 268 510 226 1130
-108 1601 -77 108 -247 276 -358 354 -162 115 -357 199 -560 242 -114 24 -376
35 -484 20z"/>
<path d="M57052 35509 c-312 -42 -634 -201 -854 -422 -459 -460 -580 -1156
-302 -1736 211 -441 598 -742 1079 -837 127 -26 415 -26 540 -1 549 111 975
485 1150 1009 60 183 70 249 70 483 0 234 -10 300 -71 484 -173 520 -605 900
-1144 1006 -102 20 -365 28 -468 14z"/>
<path d="M92940 35513 c-722 -77 -1290 -671 -1339 -1398 -37 -567 219 -1082
692 -1389 151 -99 316 -166 511 -208 135 -30 424 -32 561 -4 607 121 1060 569
1198 1184 18 83 21 128 21 307 0 179 -3 224 -21 307 -32 142 -66 238 -133 373
-255 516 -782 842 -1350 833 -58 0 -121 -3 -140 -5z"/>
<path d="M96217 35504 c-571 -88 -1025 -473 -1207 -1023 -55 -167 -74 -285
-74 -476 0 -191 19 -309 74 -476 172 -521 585 -891 1128 -1011 131 -29 432
-32 565 -5 714 144 1227 767 1227 1492 0 682 -465 1293 -1117 1465 -184 49
-417 62 -596 34z"/>
<path d="M99580 35510 c-168 -24 -325 -72 -474 -147 -163 -82 -288 -175 -422
-316 -197 -205 -332 -469 -391 -762 -25 -126 -25 -434 0 -560 123 -611 579
-1077 1180 -1207 150 -32 437 -32 587 1 210 45 402 128 565 243 115 81 282
248 364 363 73 104 168 295 204 410 162 518 50 1066 -300 1470 -214 247 -502
416 -832 486 -110 23 -376 33 -481 19z"/>
<path d="M1385 32143 c-118 -14 -196 -27 -263 -44 -553 -145 -969 -589 -1093
-1169 -33 -151 -33 -448 -1 -596 131 -607 568 -1053 1163 -1186 91 -20 131
-23 309 -23 162 0 223 4 290 19 303 66 541 195 755 410 184 184 295 364 375
605 55 167 73 285 73 476 0 252 -48 458 -159 680 -198 398 -571 694 -999 793
-143 33 -339 49 -450 35z"/>
<path d="M4685 32141 c-356 -42 -648 -183 -901 -435 -218 -219 -348 -457 -417
-764 -29 -134 -32 -473 -3 -602 135 -621 577 -1067 1186 -1197 66 -14 130 -18
285 -18 223 0 292 10 471 70 345 115 644 360 828 680 87 151 158 361 185 542
30 199 5 488 -59 683 -126 384 -407 712 -763 892 -104 52 -289 113 -402 132
-110 19 -315 28 -410 17z"/>
<path d="M8010 32139 c-361 -40 -717 -226 -957 -500 -360 -412 -472 -973 -298
-1495 179 -540 661 -940 1221 -1015 115 -15 394 -6 494 16 199 44 411 137 573
252 108 77 267 237 346 348 71 101 168 292 205 405 56 169 70 270 70 485 0
168 -4 216 -22 298 -46 211 -118 380 -231 549 -227 339 -577 568 -980 643
-106 19 -311 26 -421 14z"/>
<path d="M11350 32138 c-256 -26 -518 -130 -736 -291 -93 -69 -246 -226 -317
-325 -256 -358 -346 -821 -242 -1250 135 -559 567 -987 1129 -1120 101 -24
130 -26 321 -27 184 0 223 3 315 23 407 91 761 346 974 705 404 678 218 1560
-425 2020 -206 146 -458 240 -713 266 -123 12 -183 12 -306 -1z"/>
<path d="M14725 32143 c-412 -34 -814 -256 -1064 -586 -222 -295 -321 -610
-308 -982 9 -243 56 -426 163 -636 77 -150 162 -267 280 -384 168 -168 361
-288 574 -359 166 -55 238 -67 430 -73 147 -4 194 -2 295 15 312 53 577 192
805 421 411 413 549 1003 364 1560 -44 134 -137 312 -218 421 -85 113 -260
281 -370 354 -283 187 -624 277 -951 249z"/>
<path d="M18034 32140 c-340 -39 -636 -177 -878 -410 -138 -133 -227 -252
-309 -416 -122 -244 -176 -517 -156 -797 51 -692 564 -1262 1244 -1379 101
-17 147 -19 295 -15 192 6 264 18 430 73 214 71 408 193 575 359 211 211 354
473 416 763 30 140 37 383 15 530 -95 644 -574 1150 -1204 1272 -117 23 -323
33 -428 20z"/>
<path d="M21357 32138 c-362 -37 -728 -231 -966 -512 -213 -252 -331 -535
-363 -866 -31 -340 60 -688 258 -988 80 -119 281 -320 403 -401 165 -110 341
-184 541 -227 68 -15 126 -19 295 -19 191 1 220 3 321 27 447 106 813 396
1013 803 100 203 146 380 157 605 18 339 -83 681 -284 965 -31 44 -104 127
-162 185 -248 248 -558 395 -909 430 -117 11 -179 11 -304 -2z"/>
<path d="M24745 32143 c-118 -14 -196 -27 -263 -44 -560 -147 -990 -614 -1098
-1194 -28 -147 -26 -432 4 -571 88 -411 312 -745 652 -971 151 -101 339 -179
530 -220 122 -26 459 -26 580 1 197 43 374 117 540 228 123 81 314 271 397
393 240 356 324 783 234 1195 -124 568 -566 1016 -1133 1150 -135 31 -333 47
-443 33z"/>
<path d="M28045 32141 c-356 -42 -648 -183 -901 -435 -230 -231 -371 -500
-425 -814 -23 -138 -25 -355 -4 -492 84 -559 478 -1028 1009 -1205 179 -60
248 -70 471 -70 223 0 292 10 472 70 443 147 800 506 946 950 53 159 68 250
74 440 4 153 2 198 -15 300 -55 322 -194 588 -426 821 -223 222 -471 356 -771
414 -120 23 -326 33 -430 21z"/>
<path d="M31375 32140 c-640 -73 -1168 -550 -1305 -1179 -59 -270 -45 -541 40
-801 181 -554 658 -955 1226 -1031 115 -15 394 -6 494 16 598 131 1040 580
1172 1189 32 148 32 445 -1 596 -120 563 -509 992 -1044 1154 -171 52 -410 75
-582 56z"/>
<path d="M34710 32138 c-257 -26 -518 -130 -736 -291 -95 -70 -247 -226 -317
-324 -123 -173 -225 -414 -264 -623 -24 -132 -24 -411 0 -535 90 -460 356
-834 754 -1061 105 -60 263 -120 397 -152 101 -24 130 -26 321 -27 169 0 227
4 295 19 200 43 376 117 541 227 122 81 323 282 403 401 242 365 321 802 221
1216 -133 548 -552 977 -1088 1112 -180 45 -346 57 -527 38z"/>
<path d="M47084 32140 c-354 -40 -647 -182 -900 -434 -214 -214 -341 -442
-411 -736 -30 -130 -43 -408 -24 -541 50 -349 195 -637 445 -884 204 -201 466
-341 751 -401 126 -27 452 -27 575 -1 601 128 1042 566 1180 1172 27 117 37
375 21 508 -72 570 -462 1054 -999 1241 -191 66 -453 98 -638 76z"/>
<path d="M50415 32140 c-505 -57 -951 -368 -1179 -825 -182 -363 -213 -773
-86 -1157 173 -523 589 -896 1130 -1014 122 -27 459 -27 580 0 135 29 237 64
355 121 430 208 723 587 827 1069 32 148 32 445 -1 596 -134 625 -606 1089
-1216 1195 -113 20 -305 27 -410 15z"/>
<path d="M53745 32139 c-653 -79 -1166 -554 -1306 -1209 -30 -139 -33 -425 -6
-570 114 -612 573 -1083 1187 -1216 122 -27 458 -27 580 0 359 78 665 269 887
553 471 603 416 1469 -127 2013 -216 215 -501 363 -799 415 -110 20 -315 26
-416 14z"/>
<path d="M57095 32141 c-356 -42 -649 -183 -900 -435 -217 -217 -339 -439
-412 -746 -37 -157 -43 -409 -14 -579 106 -622 563 -1100 1181 -1236 118 -26
390 -31 525 -10 569 88 1047 512 1210 1071 44 155 58 280 52 479 -6 194 -27
311 -82 465 -129 354 -411 672 -748 842 -104 52 -289 113 -402 132 -110 19
-315 28 -410 17z"/>
<path d="M60420 32139 c-429 -47 -834 -294 -1076 -656 -303 -452 -342 -1048
-101 -1530 219 -435 619 -733 1092 -815 101 -17 147 -19 295 -15 192 6 264 18
430 73 214 71 407 192 575 359 213 213 350 469 417 775 19 90 22 134 22 305 0
168 -4 216 -22 302 -103 477 -416 873 -848 1074 -98 45 -249 92 -363 114 -106
19 -311 26 -421 14z"/>
<path d="M63760 32139 c-491 -51 -940 -361 -1168 -806 -340 -664 -156 -1471
437 -1918 166 -126 355 -213 565 -263 101 -24 130 -26 321 -27 184 0 223 3
315 23 278 62 512 188 718 386 219 211 357 450 426 735 217 897 -400 1779
-1308 1870 -123 12 -183 12 -306 0z"/>
<path d="M67130 32143 c-343 -27 -700 -199 -946 -454 -393 -410 -526 -1007
-344 -1551 40 -118 126 -285 203 -395 77 -109 237 -269 344 -346 162 -115 373
-208 573 -252 46 -10 144 -19 250 -22 148 -4 194 -2 295 15 328 57 608 208
839 453 384 408 509 988 330 1529 -217 655 -855 1077 -1544 1023z"/>
<path d="M70444 32140 c-354 -40 -647 -182 -900 -434 -214 -214 -341 -442
-411 -736 -34 -146 -43 -416 -19 -573 103 -651 609 -1162 1251 -1262 135 -21
407 -16 525 10 422 93 775 347 995 716 93 158 162 356 191 551 23 160 15 403
-19 548 -72 306 -195 528 -412 745 -222 223 -470 357 -770 415 -120 23 -326
33 -431 20z"/>
<path d="M73775 32139 c-179 -18 -345 -68 -517 -156 -146 -74 -264 -159 -378
-273 -404 -405 -549 -1000 -374 -1545 146 -457 512 -827 961 -974 172 -56 240
-66 463 -66 178 0 219 3 310 23 517 116 931 483 1104 981 62 177 81 299 80
511 -1 267 -38 430 -153 665 -78 158 -163 277 -291 405 -245 245 -553 392
-902 430 -109 11 -186 11 -303 -1z"/>
<path d="M77155 32143 c-118 -14 -196 -27 -263 -44 -552 -145 -969 -590 -1093
-1169 -33 -151 -33 -448 -1 -596 131 -607 568 -1053 1163 -1186 91 -20 131
-23 309 -23 162 0 223 4 290 19 196 42 372 117 540 227 121 80 313 270 397
394 201 297 297 661 264 995 -22 216 -67 374 -157 555 -199 400 -568 692
-1006 795 -135 31 -333 47 -443 33z"/>
<path d="M80455 32141 c-339 -40 -636 -179 -877 -410 -257 -246 -415 -559
-459 -908 -16 -133 -6 -391 21 -508 123 -538 490 -953 993 -1120 180 -60 249
-70 472 -70 223 0 292 10 471 70 345 115 644 360 828 680 89 155 161 369 185
548 18 127 14 340 -8 469 -54 314 -195 583 -425 814 -223 222 -471 356 -771
414 -120 23 -326 33 -430 21z"/>
<path d="M92944 32140 c-339 -39 -636 -178 -878 -410 -138 -133 -227 -252
-309 -416 -122 -243 -174 -506 -155 -795 43 -687 563 -1263 1243 -1381 101
-17 147 -19 295 -15 106 3 204 12 250 22 596 131 1042 579 1172 1178 30 140
33 467 4 597 -121 556 -496 984 -1012 1154 -176 58 -437 86 -610 66z"/>
<path d="M96267 32138 c-435 -44 -845 -300 -1090 -678 -252 -390 -312 -871
-165 -1314 75 -226 188 -407 368 -587 181 -181 362 -295 585 -367 175 -57 242
-67 465 -67 232 0 333 16 510 82 651 242 1056 896 980 1584 -38 356 -186 665
-440 919 -247 247 -558 395 -909 430 -117 11 -179 11 -304 -2z"/>
<path d="M99655 32143 c-269 -32 -450 -89 -640 -202 -373 -222 -622 -574 -716
-1011 -33 -151 -33 -448 -1 -596 132 -613 578 -1062 1182 -1191 122 -26 459
-26 580 1 197 43 374 117 540 228 123 81 314 271 397 393 201 298 298 666 263
1000 -22 212 -67 371 -156 550 -199 400 -568 692 -1006 795 -135 31 -333 47
-443 33z"/>
<path d="M1260 28756 c-162 -29 -298 -74 -431 -142 -416 -214 -700 -588 -801
-1058 -32 -148 -32 -445 1 -596 127 -592 552 -1037 1121 -1175 351 -85 703
-41 1031 127 412 211 698 598 790 1070 29 146 31 384 5 533 -36 206 -128 430
-249 610 -83 122 -275 314 -396 394 -160 106 -328 178 -520 223 -112 26 -438
34 -551 14z"/>
<path d="M4600 28755 c-416 -71 -769 -298 -1001 -643 -115 -172 -189 -347
-235 -562 -29 -129 -26 -468 3 -602 69 -307 199 -545 417 -764 225 -224 469
-355 779 -416 158 -31 386 -31 544 0 310 61 554 192 779 416 295 295 444 655
444 1073 0 162 -10 243 -47 388 -70 271 -201 496 -407 700 -214 211 -493 356
-784 406 -133 22 -373 25 -492 4z"/>
<path d="M7955 28759 c-851 -130 -1425 -963 -1250 -1811 179 -862 1060 -1394
1892 -1142 472 143 845 508 998 977 55 170 70 277 69 487 0 199 -17 308 -70
470 -37 113 -134 304 -205 405 -79 111 -238 271 -346 348 -161 115 -372 208
-573 252 -88 20 -421 29 -515 14z"/>
<path d="M11297 28760 c-466 -74 -870 -355 -1096 -764 -481 -872 -2 -1978 958
-2210 799 -194 1598 294 1802 1101 98 388 37 808 -167 1150 -73 123 -150 219
-266 329 -195 185 -422 308 -688 371 -88 21 -136 25 -295 28 -104 2 -216 0
-248 -5z"/>
<path d="M14610 28756 c-323 -58 -587 -194 -814 -421 -210 -209 -351 -469
-417 -767 -29 -135 -36 -379 -15 -526 51 -344 208 -650 454 -884 219 -207 475
-337 777 -394 122 -24 376 -24 505 0 294 53 561 191 779 401 129 125 213 237
290 386 230 442 234 955 11 1400 -69 136 -159 259 -280 380 -210 211 -448 343
-739 410 -112 27 -438 35 -551 15z"/>
<path d="M17920 28750 c-597 -108 -1082 -585 -1204 -1185 -39 -189 -37 -440 4
-629 66 -303 209 -557 436 -776 211 -203 485 -344 774 -396 142 -26 383 -24
525 4 640 126 1115 626 1211 1274 22 147 15 390 -15 530 -62 290 -205 552
-416 763 -167 166 -361 288 -575 359 -173 57 -236 67 -445 72 -156 3 -209 0
-295 -16z"/>
<path d="M21307 28760 c-337 -53 -623 -202 -862 -452 -359 -373 -502 -902
-380 -1406 133 -548 552 -977 1089 -1112 438 -111 894 -19 1262 253 95 70 247
226 317 324 123 174 225 414 264 623 24 135 24 401 -1 535 -97 524 -450 956
-935 1146 -180 71 -287 91 -506 94 -104 2 -216 0 -248 -5z"/>
<path d="M24620 28756 c-219 -40 -409 -114 -580 -229 -340 -226 -564 -560
-652 -971 -30 -139 -32 -424 -4 -571 171 -915 1090 -1457 1964 -1159 114 39
296 136 397 211 420 316 652 832 606 1347 -34 375 -180 686 -446 951 -213 213
-438 338 -734 407 -112 26 -438 34 -551 14z"/>
<path d="M27960 28756 c-318 -57 -586 -194 -806 -411 -198 -196 -321 -403
-399 -670 -79 -273 -73 -615 15 -885 77 -236 194 -426 374 -606 225 -224 469
-355 779 -416 158 -31 386 -31 544 0 310 61 554 192 779 416 232 233 371 499
426 821 27 156 21 429 -11 570 -71 306 -203 549 -415 760 -210 209 -461 345
-756 410 -102 23 -426 29 -530 11z"/>
<path d="M31315 28759 c-230 -35 -452 -126 -655 -268 -96 -67 -286 -262 -357
-366 -240 -356 -323 -781 -233 -1196 60 -276 203 -539 401 -739 351 -353 829
-507 1319 -424 602 103 1078 571 1211 1194 33 151 33 448 1 596 -132 609 -573
1056 -1172 1189 -88 20 -421 29 -515 14z"/>
<path d="M34625 28755 c-485 -90 -880 -386 -1094 -820 -112 -227 -155 -414
-155 -675 0 -206 15 -307 75 -485 117 -350 350 -639 670 -830 251 -149 582
-223 873 -196 212 20 370 66 557 162 235 121 426 294 572 519 291 451 324
1021 87 1503 -70 142 -152 258 -265 375 -212 221 -454 360 -745 429 -135 32
-446 42 -575 18z"/>
<path d="M37970 28755 c-551 -94 -993 -469 -1179 -998 -97 -278 -107 -631 -25
-915 140 -483 500 -863 969 -1022 157 -53 290 -74 470 -74 189 1 298 18 466
74 221 73 398 181 570 347 327 316 491 748 458 1206 -50 689 -564 1261 -1237
1377 -133 23 -372 26 -492 5z"/>
<path d="M46970 28750 c-288 -52 -566 -197 -776 -405 -303 -300 -454 -660
-454 -1087 0 -420 148 -777 444 -1074 225 -224 469 -355 779 -416 158 -31 386
-31 544 0 499 99 903 425 1105 895 88 204 124 410 115 661 -11 297 -90 540
-256 788 -218 325 -547 546 -941 633 -120 27 -427 30 -560 5z"/>
<path d="M50355 28759 c-305 -46 -588 -186 -809 -398 -190 -183 -313 -379
-396 -629 -126 -383 -96 -795 85 -1157 314 -625 1011 -953 1684 -790 569 138
996 585 1122 1175 33 151 33 448 1 596 -131 608 -573 1057 -1172 1189 -88 20
-421 29 -515 14z"/>
<path d="M53720 28764 c-214 -40 -303 -67 -438 -130 -374 -174 -660 -497 -792
-893 -60 -178 -74 -275 -74 -491 0 -205 16 -305 75 -482 137 -412 469 -762
874 -922 278 -109 601 -132 892 -61 426 103 791 395 988 790 179 361 211 769
89 1150 -145 452 -506 822 -948 970 -162 54 -238 66 -446 70 -107 2 -206 1
-220 -1z"/>
<path d="M57010 28755 c-162 -28 -296 -72 -443 -147 -423 -216 -716 -620 -798
-1099 -29 -170 -23 -422 14 -579 73 -308 195 -529 411 -746 225 -224 470 -355
781 -416 155 -31 385 -31 542 0 310 61 554 192 779 416 214 214 341 442 411
736 34 146 43 416 19 573 -101 642 -594 1149 -1224 1257 -133 23 -372 26 -492
5z"/>
<path d="M60365 28759 c-481 -74 -900 -381 -1122 -822 -210 -420 -209 -940 3
-1362 333 -660 1077 -980 1778 -764 518 159 910 595 1028 1142 18 86 22 134
22 302 0 171 -3 215 -22 305 -47 214 -134 416 -255 587 -77 109 -237 269 -344
346 -161 115 -372 208 -573 252 -88 20 -421 29 -515 14z"/>
<path d="M63708 28760 c-325 -51 -603 -192 -836 -422 -714 -706 -554 -1909
318 -2403 676 -383 1545 -172 1975 480 354 538 334 1245 -50 1756 -125 167
-343 352 -519 441 -98 49 -233 98 -346 125 -88 21 -136 25 -295 28 -104 2
-216 0 -247 -5z"/>
<path d="M67020 28755 c-318 -54 -588 -194 -815 -420 -212 -212 -350 -467
-417 -772 -18 -82 -22 -131 -22 -303 0 -176 3 -220 22 -307 119 -548 510 -983
1028 -1142 432 -133 891 -67 1266 183 152 101 313 262 413 411 265 397 331
888 180 1341 -178 535 -655 935 -1210 1014 -96 13 -354 11 -445 -5z"/>
<path d="M70334 28751 c-631 -114 -1119 -619 -1220 -1258 -24 -157 -15 -427
19 -573 70 -294 197 -522 411 -736 226 -225 490 -365 796 -420 142 -26 383
-24 525 4 311 61 557 192 780 416 216 217 340 441 412 746 34 145 42 388 19
548 -50 336 -194 622 -436 862 -205 203 -459 341 -750 405 -118 26 -427 30
-556 6z"/>
<path d="M73715 28759 c-556 -80 -1035 -490 -1209 -1034 -175 -545 -30 -1142
375 -1545 198 -196 436 -331 702 -395 502 -122 1030 28 1397 395 128 128 213
247 291 405 115 235 152 398 153 665 1 154 -3 204 -22 297 -127 630 -607 1100
-1231 1207 -103 17 -351 20 -456 5z"/>
<path d="M77030 28756 c-162 -29 -298 -74 -431 -142 -416 -214 -700 -588 -801
-1058 -32 -148 -32 -445 1 -596 126 -591 553 -1037 1122 -1175 350 -85 703
-41 1030 127 655 336 972 1115 739 1819 -80 241 -191 421 -375 605 -210 211
-437 336 -734 406 -112 26 -438 34 -551 14z"/>
<path d="M80370 28755 c-416 -71 -769 -298 -1001 -643 -113 -168 -182 -331
-229 -537 -27 -117 -37 -375 -21 -508 44 -349 202 -662 459 -908 211 -203 462
-333 755 -391 158 -31 386 -31 544 0 310 61 554 192 779 416 295 295 444 655
444 1073 0 162 -10 243 -47 388 -70 271 -201 496 -407 700 -214 211 -493 356
-784 406 -133 22 -373 25 -492 4z"/>
<path d="M83725 28759 c-553 -84 -1024 -482 -1200 -1013 -129 -388 -102 -797
75 -1158 425 -867 1529 -1115 2277 -514 278 225 472 552 539 911 28 147 26
432 -4 571 -32 151 -66 245 -137 389 -203 409 -578 699 -1035 800 -88 20 -421
29 -515 14z"/>
<path d="M92830 28750 c-671 -122 -1185 -700 -1228 -1379 -30 -467 130 -888
457 -1204 219 -211 488 -350 781 -403 142 -26 383 -24 525 4 548 108 985 496
1153 1022 58 184 67 246 67 470 -1 173 -4 221 -23 307 -130 599 -575 1046
-1172 1178 -120 27 -427 30 -560 5z"/>
<path d="M96217 28759 c-329 -48 -622 -201 -862 -451 -358 -372 -502 -903
-380 -1406 134 -555 561 -985 1108 -1117 502 -122 1029 27 1397 395 58 58 131
141 162 185 201 284 302 626 284 965 -11 225 -57 402 -157 605 -215 437 -616
736 -1098 819 -102 17 -351 20 -454 5z"/>
<path d="M99530 28756 c-629 -113 -1095 -567 -1232 -1200 -32 -148 -32 -445 1
-596 30 -142 72 -265 131 -382 340 -680 1110 -996 1828 -752 114 39 296 136
397 211 524 394 738 1072 535 1693 -78 240 -191 422 -375 605 -213 213 -438
338 -734 407 -112 26 -438 34 -551 14z"/>
<path d="M4615 25385 c-480 -78 -884 -369 -1104 -795 -118 -227 -171 -448
-171 -705 0 -734 504 -1347 1225 -1491 67 -14 137 -18 270 -18 133 0 203 4
270 18 607 121 1060 566 1197 1177 20 91 23 131 23 314 0 183 -3 223 -23 314
-135 604 -576 1044 -1174 1172 -125 27 -388 34 -513 14z"/>
<path d="M7957 25385 c-384 -63 -711 -250 -943 -539 -580 -721 -394 -1790 393
-2263 251 -150 535 -223 827 -210 697 30 1272 532 1413 1232 25 126 25 434 0
560 -64 317 -198 568 -426 795 -219 219 -456 348 -749 410 -130 28 -391 35
-515 15z"/>
<path d="M11350 25394 c-350 -44 -646 -188 -890 -433 -247 -247 -390 -536
-435 -878 -18 -137 -18 -259 0 -396 45 -341 189 -632 435 -877 215 -216 454
-345 757 -412 135 -29 412 -32 558 -4 303 57 565 195 785 415 221 221 360 483
422 794 31 159 31 405 0 564 -62 312 -199 570 -422 793 -215 217 -477 357
-771 415 -82 16 -364 28 -439 19z"/>
<path d="M14690 25394 c-592 -75 -1078 -469 -1264 -1024 -55 -167 -70 -269
-70 -485 0 -168 3 -216 22 -301 69 -317 195 -548 421 -775 220 -219 453 -346
754 -411 137 -29 426 -32 562 -5 411 83 750 309 977 652 332 501 337 1164 12
1662 -227 350 -557 577 -963 664 -94 20 -365 34 -451 23z"/>
<path d="M17966 25385 c-605 -99 -1077 -526 -1229 -1110 -37 -144 -49 -242
-49 -395 1 -523 255 -988 695 -1274 336 -219 771 -290 1164 -191 554 141 976
584 1106 1163 18 83 21 128 21 307 0 179 -3 224 -21 307 -136 608 -578 1051
-1175 1179 -125 27 -388 34 -512 14z"/>
<path d="M21330 25390 c-330 -46 -622 -191 -860 -430 -221 -220 -361 -483
-422 -793 -28 -146 -31 -393 -4 -542 84 -475 388 -886 811 -1095 235 -117 406
-155 680 -154 198 1 292 16 465 73 541 182 945 687 1009 1264 87 778 -427
1496 -1187 1657 -111 24 -385 35 -492 20z"/>
<path d="M24670 25390 c-232 -32 -449 -115 -650 -248 -121 -80 -319 -280 -403
-408 -113 -170 -193 -365 -234 -569 -25 -126 -25 -434 0 -560 59 -293 194
-557 391 -762 176 -184 369 -311 599 -392 167 -59 270 -75 482 -75 205 0 309
15 475 70 438 145 802 512 949 959 126 382 98 784 -79 1150 -76 157 -161 276
-290 405 -214 214 -461 348 -757 411 -111 24 -375 34 -483 19z"/>
<path d="M27975 25385 c-170 -28 -353 -90 -492 -166 -387 -214 -655 -576 -755
-1020 -20 -91 -23 -131 -23 -314 0 -183 3 -223 23 -314 136 -608 593 -1057
1197 -1177 67 -14 137 -18 270 -18 261 0 437 40 660 150 430 213 734 625 816
1105 18 106 21 150 16 304 -8 259 -49 421 -164 647 -207 407 -580 692 -1035
789 -125 27 -388 34 -513 14z"/>
<path d="M31315 25385 c-335 -55 -598 -189 -835 -425 -129 -129 -214 -248
-290 -405 -209 -432 -209 -913 0 -1340 151 -309 386 -545 695 -695 120 -59
214 -91 355 -121 150 -33 437 -33 587 -1 309 67 567 212 789 445 197 205 332
469 391 762 25 126 25 434 0 560 -64 316 -199 568 -426 795 -219 218 -457 348
-749 410 -130 28 -391 35 -517 15z"/>
<path d="M34680 25390 c-612 -85 -1110 -530 -1261 -1126 -134 -530 15 -1069
400 -1455 215 -215 455 -344 758 -411 135 -29 412 -32 558 -4 404 76 766 318
987 661 106 164 189 375 224 570 24 135 24 384 0 520 -54 309 -202 592 -426
816 -212 212 -457 345 -753 410 -106 23 -381 34 -487 19z"/>
<path d="M38045 25394 c-271 -41 -471 -115 -661 -243 -335 -226 -556 -553
-647 -959 -18 -83 -21 -128 -21 -307 0 -227 11 -307 69 -482 37 -114 136 -305
209 -407 465 -646 1355 -818 2013 -390 370 240 608 607 679 1044 19 114 21
334 4 445 -94 644 -557 1140 -1189 1276 -93 20 -380 34 -456 23z"/>
<path d="M50375 25389 c-475 -65 -901 -365 -1126 -792 -268 -510 -226 -1130
108 -1601 77 -108 247 -276 358 -354 163 -115 356 -198 565 -243 139 -30 427
-33 563 -6 306 61 559 198 782 422 226 226 362 485 421 800 26 139 26 401 0
540 -114 610 -576 1089 -1174 1215 -113 24 -385 35 -497 19z"/>
<path d="M53720 25390 c-210 -29 -438 -112 -604 -218 -293 -188 -523 -484
-629 -812 -56 -170 -72 -280 -72 -480 1 -187 14 -282 61 -438 161 -534 608
-938 1161 -1049 136 -27 424 -24 563 6 209 45 402 128 565 243 111 78 281 246
358 354 334 471 376 1091 108 1601 -209 396 -581 677 -1024 774 -106 23 -381
34 -487 19z"/>
<path d="M57025 25385 c-318 -52 -599 -193 -823 -415 -125 -124 -211 -243
-292 -405 -112 -226 -160 -429 -160 -680 0 -725 493 -1334 1203 -1487 137 -29
426 -32 562 -5 614 124 1070 577 1202 1197 26 122 26 468 0 590 -89 417 -321
758 -670 984 -150 98 -317 166 -506 207 -128 27 -389 34 -516 14z"/>
<path d="M60367 25385 c-206 -34 -381 -97 -550 -198 -489 -294 -773 -849 -727
-1419 56 -685 529 -1223 1204 -1370 145 -32 435 -32 583 0 299 65 534 193 754
412 225 224 353 459 421 774 32 147 32 455 0 602 -68 315 -196 549 -421 775
-218 218 -454 347 -749 409 -130 28 -391 35 -515 15z"/>
<path d="M63760 25394 c-350 -44 -646 -188 -890 -433 -264 -265 -408 -573
-442 -948 -32 -349 61 -696 266 -998 82 -122 265 -304 386 -384 245 -163 488
-245 771 -258 427 -19 815 132 1119 437 263 263 408 573 442 947 32 348 -61
696 -265 997 -82 122 -265 304 -387 385 -177 118 -367 198 -561 236 -82 16
-364 28 -439 19z"/>
<path d="M67062 25388 c-247 -31 -527 -149 -724 -306 -281 -225 -472 -534
-550 -896 -32 -147 -32 -455 0 -602 68 -315 196 -550 421 -774 220 -219 454
-347 754 -412 147 -32 437 -32 583 0 413 89 740 314 968 665 374 574 306 1350
-164 1859 -322 350 -809 526 -1288 466z"/>
<path d="M70377 25385 c-224 -36 -407 -106 -587 -222 -345 -223 -578 -568
-667 -983 -26 -122 -26 -468 0 -590 118 -551 499 -982 1017 -1148 170 -54 255
-67 460 -66 152 0 203 4 287 22 597 129 1041 573 1175 1179 30 134 33 460 5
597 -123 606 -578 1068 -1179 1197 -124 27 -388 34 -511 14z"/>
<path d="M73735 25389 c-392 -54 -756 -269 -995 -587 -400 -532 -409 -1261
-23 -1806 77 -108 247 -276 358 -354 168 -119 383 -209 590 -248 146 -28 423
-25 558 4 286 63 528 189 731 382 455 433 598 1090 364 1678 -183 459 -600
809 -1086 912 -113 24 -385 35 -497 19z"/>
<path d="M77080 25390 c-576 -80 -1055 -480 -1233 -1030 -55 -168 -72 -280
-72 -475 0 -195 17 -307 72 -475 75 -233 188 -415 368 -595 219 -220 460 -353
758 -417 150 -32 437 -32 587 1 210 45 402 128 565 243 115 81 282 248 364
363 202 286 302 658 272 1005 -33 373 -179 688 -441 950 -214 214 -461 348
-757 411 -111 24 -375 34 -483 19z"/>
<path d="M80385 25385 c-480 -78 -885 -370 -1104 -794 -116 -226 -159 -394
-168 -651 -9 -284 34 -487 157 -735 150 -301 381 -533 675 -679 223 -110 399
-150 660 -150 133 0 203 4 270 18 607 121 1060 567 1197 1177 20 91 23 131 23
314 0 183 -3 223 -23 314 -135 604 -576 1044 -1174 1172 -125 27 -388 34 -513
14z"/>
<path d="M83725 25385 c-246 -40 -456 -126 -649 -263 -101 -72 -256 -224 -329
-322 -341 -463 -398 -1072 -147 -1585 208 -426 580 -714 1054 -817 145 -32
435 -32 583 0 534 115 968 507 1131 1022 54 171 66 256 66 465 0 210 -12 295
-66 465 -77 240 -191 424 -377 610 -219 219 -456 348 -749 410 -130 28 -391
35 -517 15z"/>
<path d="M92876 25385 c-706 -115 -1228 -684 -1275 -1390 -37 -566 220 -1083
692 -1389 336 -219 771 -290 1164 -191 554 141 976 584 1106 1163 18 83 21
128 21 307 0 180 -3 224 -22 308 -135 607 -577 1050 -1174 1178 -125 27 -388
34 -512 14z"/>
<path d="M96235 25389 c-325 -45 -619 -192 -855 -429 -177 -176 -292 -362
-370 -599 -55 -167 -74 -285 -74 -476 0 -191 19 -309 74 -476 175 -529 612
-913 1155 -1015 146 -28 423 -25 558 4 283 62 529 190 729 380 636 605 636
1609 2 2212 -200 190 -453 323 -722 380 -113 24 -385 35 -497 19z"/>
<path d="M99580 25390 c-232 -32 -449 -115 -650 -248 -117 -78 -318 -280 -399
-401 -114 -173 -197 -372 -238 -576 -25 -126 -25 -434 0 -560 59 -293 194
-557 391 -762 176 -184 369 -311 599 -392 167 -59 270 -75 482 -75 161 0 206
3 295 23 334 72 619 238 833 486 350 404 462 952 300 1470 -36 115 -131 306
-204 410 -82 115 -249 282 -364 363 -162 115 -367 203 -565 243 -109 23 -377
33 -480 19z"/>
<path d="M28044 22020 c-354 -40 -647 -182 -900 -434 -232 -233 -371 -499
-426 -821 -17 -102 -19 -147 -15 -300 6 -192 18 -264 69 -425 44 -137 99 -249
183 -375 224 -335 553 -556 955 -642 121 -26 449 -26 570 0 205 44 417 136
583 254 244 173 458 464 551 748 52 160 67 250 73 440 6 207 -12 347 -67 515
-126 384 -407 712 -763 892 -104 52 -289 113 -402 132 -110 20 -315 28 -411
16z"/>
<path d="M31375 22020 c-807 -90 -1407 -822 -1336 -1629 62 -701 566 -1256
1246 -1373 165 -28 419 -22 575 15 582 137 1014 584 1142 1181 30 139 32 424
4 571 -116 625 -595 1105 -1215 1220 -105 19 -311 27 -416 15z"/>
<path d="M34705 22018 c-333 -37 -646 -188 -885 -428 -175 -176 -292 -364
-369 -595 -60 -179 -75 -279 -75 -485 0 -193 13 -284 65 -455 140 -455 504
-830 953 -980 152 -51 241 -66 426 -72 148 -4 193 -2 295 15 298 51 559 182
772 386 246 234 389 496 455 829 28 142 30 394 5 532 -59 328 -203 604 -432
830 -323 318 -766 473 -1210 423z"/>
<path d="M38055 22020 c-245 -26 -473 -110 -686 -251 -116 -78 -302 -261 -384
-378 -115 -165 -202 -368 -246 -573 -29 -136 -36 -381 -15 -526 50 -335 201
-632 441 -867 207 -202 447 -332 736 -397 90 -20 131 -23 304 -23 223 0 292
10 471 70 505 168 891 606 998 1130 36 179 37 434 1 610 -38 186 -123 387
-234 555 -74 112 -248 291 -364 374 -301 215 -665 314 -1022 276z"/>
<path d="M73761 22019 c-594 -71 -1100 -501 -1266 -1075 -61 -212 -77 -480
-41 -689 22 -124 82 -307 136 -417 218 -438 620 -739 1095 -820 166 -28 419
-21 576 15 586 138 1028 604 1145 1207 28 142 25 428 -5 567 -87 408 -307 741
-639 964 -244 164 -494 244 -792 254 -69 2 -163 -1 -209 -6z"/>
<path d="M77140 22024 c-665 -63 -1199 -547 -1341 -1214 -30 -140 -33 -426 -6
-570 112 -599 559 -1069 1147 -1207 133 -31 383 -42 523 -23 571 77 1046 475
1227 1030 86 261 99 531 40 801 -61 282 -204 541 -411 748 -216 216 -500 364
-798 416 -88 16 -303 26 -381 19z"/>
<path d="M80454 22020 c-337 -38 -636 -178 -876 -409 -307 -294 -468 -671
-468 -1098 0 -216 33 -384 113 -582 78 -193 182 -348 337 -501 208 -206 465
-344 760 -407 121 -26 449 -26 570 0 576 123 1018 542 1163 1102 36 138 47
233 47 395 0 411 -150 772 -444 1066 -181 180 -351 287 -585 364 -64 21 -156
46 -206 54 -110 20 -315 28 -411 16z"/>
<path d="M83785 22020 c-585 -66 -1080 -470 -1264 -1030 -125 -383 -95 -804
82 -1157 213 -422 590 -711 1057 -810 122 -26 450 -25 570 1 135 29 237 64
355 121 431 209 724 587 827 1069 30 139 32 424 4 571 -91 488 -409 900 -852
1106 -98 45 -249 92 -363 114 -105 19 -311 27 -416 15z"/>
<path d="M92930 22019 c-229 -25 -463 -111 -670 -247 -113 -75 -327 -289 -402
-402 -195 -298 -279 -614 -256 -971 38 -602 448 -1133 1022 -1324 179 -60 248
-70 471 -70 173 0 214 3 304 23 141 32 256 74 379 137 142 74 248 152 366 270
212 210 353 471 418 768 30 140 33 467 5 597 -47 216 -137 425 -252 591 -83
118 -269 301 -384 378 -245 163 -501 245 -789 255 -70 3 -165 1 -212 -5z"/>
<path d="M96261 22019 c-662 -79 -1186 -581 -1308 -1254 -25 -139 -23 -390 6
-533 63 -320 192 -563 421 -793 234 -235 485 -366 805 -421 166 -28 419 -22
576 15 279 66 524 203 726 407 121 122 208 244 282 395 99 202 145 378 157
601 37 681 -392 1307 -1039 1519 -187 61 -438 86 -626 64z"/>
<path d="M99640 22024 c-673 -64 -1221 -568 -1346 -1239 -28 -147 -26 -432 4
-571 89 -415 320 -755 662 -977 153 -98 303 -162 480 -204 156 -37 410 -43
575 -15 326 56 604 206 835 449 499 524 555 1341 132 1932 -225 316 -581 540
-961 606 -88 16 -303 26 -381 19z"/>
<path d="M1260 18636 c-219 -40 -409 -114 -580 -229 -338 -225 -564 -561 -652
-971 -32 -148 -32 -445 1 -596 97 -456 369 -823 771 -1042 233 -128 549 -194
810 -170 221 20 358 59 555 157 666 330 990 1115 755 1827 -171 516 -577 886
-1109 1010 -112 26 -438 34 -551 14z"/>
<path d="M4570 18630 c-126 -23 -281 -75 -404 -137 -346 -173 -630 -502 -750
-868 -50 -154 -67 -251 -73 -425 -6 -183 4 -288 43 -443 68 -269 193 -487 399
-693 291 -291 642 -437 1050 -437 181 0 303 19 466 73 233 77 404 184 585 364
230 231 371 500 425 814 21 127 26 362 9 472 -54 348 -198 631 -444 875 -201
198 -440 329 -726 397 -128 30 -437 35 -580 8z"/>
<path d="M7955 18639 c-230 -35 -452 -126 -655 -268 -96 -67 -286 -262 -357
-366 -312 -462 -355 -1046 -113 -1537 316 -641 1022 -971 1705 -798 570 143
1002 608 1111 1195 28 150 26 432 -5 575 -45 213 -133 415 -254 587 -77 109
-237 269 -344 346 -161 115 -372 208 -573 252 -88 20 -421 29 -515 14z"/>
<path d="M11265 18635 c-628 -116 -1092 -572 -1226 -1205 -32 -152 -33 -418
-1 -577 62 -309 201 -571 417 -788 464 -463 1148 -574 1728 -278 242 124 431
294 582 526 345 532 319 1235 -65 1745 -121 161 -341 346 -514 434 -97 49
-233 98 -346 125 -89 21 -135 26 -300 29 -142 2 -217 -1 -275 -11z"/>
<path d="M14610 18635 c-515 -88 -936 -422 -1142 -905 -182 -425 -151 -946 78
-1345 360 -624 1091 -908 1765 -685 219 72 397 180 567 344 129 124 214 237
291 387 135 259 193 543 171 824 -17 200 -58 356 -141 534 -214 456 -650 780
-1144 851 -96 13 -354 11 -445 -5z"/>
<path d="M17995 18644 c-83 -13 -197 -39 -264 -61 -585 -191 -995 -715 -1040
-1330 -25 -352 64 -685 262 -978 83 -123 275 -314 396 -394 358 -237 772 -313
1179 -216 528 126 943 527 1096 1057 82 284 72 637 -25 915 -178 506 -591 871
-1119 988 -73 16 -413 29 -485 19z"/>
<path d="M21275 18634 c-328 -58 -596 -202 -832 -447 -357 -371 -500 -902
-378 -1405 58 -239 164 -447 326 -638 304 -359 791 -558 1257 -514 604 56
1099 450 1292 1027 58 173 74 278 75 478 0 264 -42 450 -156 680 -216 439
-625 743 -1104 820 -114 19 -372 18 -480 -1z"/>
<path d="M24620 18636 c-324 -58 -588 -195 -815 -421 -124 -124 -209 -244
-286 -400 -66 -135 -100 -233 -131 -379 -30 -139 -32 -424 -4 -571 96 -516
450 -949 931 -1139 448 -177 971 -120 1369 149 637 430 853 1260 508 1950 -72
146 -157 260 -287 391 -212 212 -436 336 -734 406 -112 26 -438 34 -551 14z"/>
<path d="M27930 18630 c-424 -75 -813 -352 -1034 -735 -89 -155 -161 -369
-185 -548 -18 -127 -14 -340 8 -469 54 -314 194 -583 425 -814 292 -291 643
-437 1051 -437 408 0 759 146 1051 437 294 295 444 656 444 1069 0 429 -152
794 -454 1092 -214 211 -493 356 -784 406 -150 25 -375 25 -522 -1z"/>
<path d="M31315 18639 c-861 -132 -1432 -972 -1245 -1830 159 -734 852 -1249
1586 -1180 675 64 1201 537 1345 1211 33 150 33 448 1 596 -33 151 -66 246
-137 389 -203 409 -578 699 -1035 800 -88 20 -421 29 -515 14z"/>
<path d="M34625 18635 c-312 -55 -590 -200 -814 -426 -212 -212 -357 -492
-418 -804 -24 -124 -24 -403 0 -535 108 -586 544 -1057 1111 -1200 484 -122
986 3 1367 341 119 107 259 290 334 438 211 421 215 937 10 1356 -133 270
-361 513 -619 659 -108 61 -265 122 -395 153 -90 21 -135 26 -301 29 -137 2
-219 -1 -275 -11z"/>
<path d="M37970 18636 c-557 -100 -993 -470 -1179 -999 -97 -278 -107 -631
-25 -915 119 -410 395 -747 771 -938 211 -107 423 -157 668 -157 310 0 574 80
836 254 121 80 313 271 396 394 198 293 287 626 262 978 -16 209 -62 377 -159
572 -198 400 -572 693 -1019 796 -112 27 -438 35 -551 15z"/>
<path d="M47045 18643 c-385 -50 -760 -267 -993 -576 -213 -281 -312 -576
-312 -929 0 -419 149 -778 444 -1074 181 -180 352 -287 585 -364 163 -54 285
-73 466 -73 408 0 759 146 1050 438 248 247 390 534 436 880 17 128 6 394 -20
510 -126 546 -494 956 -1011 1125 -157 52 -284 70 -466 69 -82 -1 -162 -4
-179 -6z"/>
<path d="M50355 18639 c-381 -59 -722 -259 -962 -566 -466 -596 -416 -1463
117 -2002 205 -208 480 -359 758 -416 139 -29 294 -38 428 -26 362 34 672 179
924 431 218 218 356 473 421 780 33 151 33 448 1 596 -131 608 -573 1057
-1172 1189 -88 20 -421 29 -515 14z"/>
<path d="M53670 18636 c-561 -101 -1001 -479 -1180 -1013 -60 -180 -74 -277
-74 -493 0 -152 4 -203 22 -287 98 -456 372 -827 772 -1045 233 -128 549 -194
810 -170 221 20 358 59 555 157 740 367 1043 1279 675 2028 -70 142 -152 258
-265 375 -212 221 -454 360 -745 429 -88 21 -136 25 -300 28 -135 3 -218 0
-270 -9z"/>
<path d="M57010 18636 c-649 -117 -1131 -601 -1241 -1247 -18 -106 -21 -149
-16 -299 8 -250 51 -426 157 -636 216 -428 617 -726 1090 -810 128 -23 362
-23 495 0 308 54 573 193 801 420 214 214 341 442 411 736 37 155 43 427 15
595 -104 608 -557 1086 -1161 1226 -112 27 -438 35 -551 15z"/>
<path d="M60365 18639 c-553 -84 -1024 -482 -1200 -1013 -151 -455 -85 -944
183 -1346 75 -112 250 -291 365 -374 355 -255 793 -341 1215 -241 564 135 998
586 1124 1168 18 86 22 134 22 302 0 171 -3 215 -22 305 -47 214 -134 416
-255 587 -77 109 -237 269 -344 346 -161 115 -372 208 -573 252 -88 20 -421
29 -515 14z"/>
<path d="M63675 18635 c-316 -59 -591 -201 -809 -421 -656 -661 -575 -1743
174 -2301 431 -322 1023 -380 1509 -147 656 313 994 1022 826 1731 -132 554
-566 987 -1124 1120 -90 21 -135 26 -301 29 -142 2 -217 -1 -275 -11z"/>
<path d="M67020 18635 c-318 -54 -588 -194 -815 -420 -212 -212 -350 -467
-417 -772 -18 -82 -22 -131 -22 -303 0 -176 3 -220 22 -307 127 -584 560
-1033 1124 -1168 423 -101 856 -15 1215 242 115 81 289 260 365 373 268 402
334 891 183 1346 -178 535 -656 936 -1209 1013 -103 14 -352 12 -446 -4z"/>
<path d="M70405 18644 c-170 -26 -325 -73 -468 -145 -433 -216 -737 -625 -819
-1104 -28 -168 -22 -440 15 -595 70 -294 197 -522 411 -736 228 -227 493 -366
801 -420 133 -23 367 -23 495 0 468 83 872 381 1085 800 58 115 104 243 136
381 30 131 37 384 15 533 -50 336 -194 622 -436 862 -205 203 -459 341 -750
405 -73 16 -413 29 -485 19z"/>
<path d="M73717 18640 c-337 -53 -623 -202 -862 -452 -347 -361 -492 -865
-390 -1363 72 -353 285 -686 580 -908 100 -75 309 -183 428 -221 639 -205
1328 38 1703 600 104 157 183 348 226 548 29 135 31 424 5 566 -113 608 -571
1081 -1177 1215 -87 20 -421 29 -513 15z"/>
<path d="M77030 18636 c-628 -113 -1095 -568 -1232 -1200 -32 -148 -32 -445 1
-596 96 -452 372 -825 771 -1042 233 -128 549 -194 810 -170 221 20 358 59
555 157 667 332 990 1115 755 1827 -171 516 -577 886 -1109 1010 -112 26 -438
34 -551 14z"/>
<path d="M80340 18630 c-389 -69 -747 -304 -971 -638 -166 -248 -245 -491
-256 -788 -6 -183 5 -304 43 -447 75 -281 193 -487 399 -693 291 -291 642
-437 1050 -437 181 0 303 19 466 73 233 77 404 184 585 364 295 295 444 655
444 1073 0 162 -10 243 -47 388 -70 271 -201 496 -407 700 -216 213 -489 354
-784 405 -150 26 -374 26 -522 0z"/>
<path d="M83725 18639 c-175 -26 -379 -98 -528 -186 -686 -402 -947 -1272
-597 -1985 347 -708 1171 -1028 1895 -737 196 78 354 185 510 343 212 215 355
490 411 791 15 76 19 144 18 285 -1 199 -17 310 -70 470 -37 113 -134 304
-205 405 -79 111 -238 271 -346 348 -161 115 -372 208 -573 252 -88 20 -421
29 -515 14z"/>
<path d="M92905 18644 c-90 -14 -200 -40 -279 -66 -574 -192 -986 -726 -1024
-1327 -23 -361 63 -683 261 -976 83 -123 275 -314 396 -394 181 -120 382 -201
586 -237 135 -23 367 -23 499 0 721 129 1246 755 1246 1488 0 424 -153 793
-450 1088 -205 203 -459 341 -750 405 -73 16 -413 29 -485 19z"/>
<path d="M96185 18634 c-328 -58 -596 -202 -832 -447 -301 -313 -454 -745
-414 -1175 30 -332 148 -616 362 -868 304 -359 791 -558 1257 -514 810 76
1412 774 1368 1584 -12 223 -58 399 -157 601 -215 438 -625 743 -1104 820
-114 19 -372 18 -480 -1z"/>
<path d="M99530 18636 c-486 -87 -882 -381 -1095 -811 -71 -143 -104 -238
-137 -389 -32 -148 -32 -446 1 -596 111 -518 449 -925 926 -1114 315 -124 676
-135 1002 -30 117 37 327 146 426 220 392 295 611 733 610 1224 0 185 -19 305
-73 470 -78 239 -191 421 -375 606 -212 212 -436 336 -734 406 -112 26 -438
34 -551 14z"/>
<path d="M102840 18630 c-285 -51 -565 -197 -776 -405 -198 -196 -321 -403
-399 -670 -79 -273 -73 -615 15 -885 77 -236 194 -426 374 -606 292 -291 643
-437 1051 -437 408 0 759 146 1051 437 293 294 444 656 444 1066 0 162 -11
257 -47 395 -71 272 -201 496 -407 700 -214 211 -493 356 -784 406 -150 25
-375 25 -522 -1z"/>
<path d="M106225 18639 c-852 -130 -1426 -962 -1250 -1811 154 -743 851 -1268
1591 -1199 365 35 672 179 929 436 221 220 364 492 421 800 28 147 26 432 -4
571 -32 151 -66 245 -137 389 -141 284 -365 513 -647 660 -109 57 -263 112
-388 140 -88 20 -421 29 -515 14z"/>
<path d="M109535 18635 c-312 -55 -590 -200 -814 -426 -212 -212 -358 -493
-418 -804 -24 -125 -24 -404 1 -535 108 -587 543 -1057 1110 -1200 482 -122
981 2 1363 337 81 71 186 196 256 303 331 512 326 1166 -13 1679 -76 113 -235
281 -349 366 -166 125 -355 213 -560 262 -90 21 -135 26 -301 29 -137 2 -219
-1 -275 -11z"/>
<path d="M112880 18636 c-170 -31 -311 -79 -457 -155 -392 -207 -680 -589
-774 -1029 -30 -140 -37 -383 -15 -530 98 -665 600 -1176 1262 -1283 113 -18
348 -16 469 5 203 35 405 117 586 237 121 80 313 271 396 394 198 293 287 626
262 978 -45 610 -450 1133 -1029 1327 -146 49 -227 61 -430 65 -135 3 -218 0
-270 -9z"/>
<path d="M116235 18639 c-331 -51 -635 -212 -868 -460 -383 -406 -510 -990
-332 -1525 79 -237 205 -436 392 -615 368 -353 877 -492 1371 -374 596 142
1046 637 1136 1248 96 642 -224 1273 -796 1572 -109 57 -263 112 -388 140 -88
20 -421 29 -515 14z"/>
<path d="M119600 18644 c-361 -65 -599 -180 -828 -398 -221 -211 -361 -447
-433 -733 -122 -482 -4 -984 322 -1369 304 -359 791 -558 1257 -514 361 33
673 180 927 436 217 218 356 479 417 787 29 148 31 413 4 557 -116 601 -557
1067 -1145 1207 -91 21 -134 26 -301 28 -107 2 -206 1 -220 -1z"/>
<path d="M122890 18635 c-318 -54 -588 -194 -815 -420 -124 -124 -209 -244
-286 -400 -68 -140 -99 -229 -130 -375 -31 -143 -33 -426 -5 -575 110 -591
553 -1063 1126 -1199 682 -163 1378 167 1690 802 177 361 204 770 75 1158
-135 407 -452 749 -846 913 -108 46 -249 84 -363 100 -103 14 -352 12 -446 -4z"/>
<path d="M126204 18631 c-428 -76 -816 -351 -1038 -736 -87 -151 -158 -361
-185 -542 -18 -118 -14 -346 8 -475 54 -314 195 -583 425 -814 181 -180 352
-287 585 -364 163 -54 285 -73 466 -73 408 0 759 146 1050 438 247 246 393
541 436 881 16 134 6 392 -21 509 -123 538 -480 942 -991 1120 -213 74 -505
96 -735 56z"/>
<path d="M129585 18639 c-305 -46 -588 -186 -809 -398 -190 -183 -313 -379
-396 -629 -86 -260 -99 -532 -40 -803 77 -353 282 -671 576 -892 99 -75 308
-183 427 -221 188 -61 396 -84 583 -67 362 34 672 179 924 431 218 218 356
473 421 780 33 151 33 448 1 596 -131 608 -573 1057 -1172 1189 -88 20 -421
29 -515 14z"/>
<path d="M1310 15270 c-344 -48 -650 -205 -891 -457 -206 -215 -340 -478 -395
-778 -26 -136 -26 -412 0 -540 66 -336 212 -607 453 -835 525 -500 1325 -547
1913 -113 98 73 250 228 322 329 334 469 377 1092 109 1601 -209 396 -582 678
-1024 774 -106 23 -381 34 -487 19z"/>
<path d="M4615 15265 c-169 -28 -353 -90 -491 -166 -722 -398 -994 -1304 -613
-2038 269 -520 811 -835 1389 -808 687 32 1248 511 1402 1198 20 91 23 131 23
314 0 183 -3 223 -23 314 -135 604 -576 1044 -1174 1172 -125 27 -388 34 -513
14z"/>
<path d="M7955 15265 c-120 -20 -228 -48 -322 -86 -691 -273 -1083 -1010 -923
-1740 114 -524 498 -951 1000 -1114 176 -56 263 -69 465 -69 202 0 288 13 459
68 237 78 440 208 622 399 197 205 332 468 391 762 27 137 25 444 -5 581 -68
313 -196 549 -421 775 -218 217 -455 347 -749 409 -130 28 -391 35 -517 15z"/>
<path d="M11350 15274 c-249 -32 -479 -118 -685 -257 -117 -80 -302 -265 -383
-383 -217 -322 -307 -693 -257 -1067 45 -340 189 -631 435 -878 219 -220 481
-358 785 -415 148 -28 412 -25 555 5 148 31 237 63 375 131 416 205 714 602
807 1073 31 159 31 405 0 564 -62 312 -199 570 -422 793 -215 217 -477 357
-771 415 -82 16 -364 28 -439 19z"/>
<path d="M14685 15274 c-198 -30 -344 -73 -487 -144 -417 -205 -707 -574 -814
-1035 -26 -111 -28 -136 -28 -325 0 -174 3 -220 22 -306 69 -316 196 -550 421
-774 220 -219 455 -347 754 -412 137 -29 426 -32 562 -5 410 83 750 309 977
652 332 500 337 1164 12 1662 -227 349 -557 577 -959 663 -97 21 -383 35 -460
24z"/>
<path d="M17966 15265 c-707 -115 -1222 -677 -1275 -1389 -57 -771 461 -1450
1224 -1603 136 -27 425 -24 562 5 289 62 528 190 739 395 221 213 359 459 430
762 26 112 28 135 28 330 0 179 -3 224 -21 307 -136 608 -578 1051 -1175 1179
-125 27 -388 34 -512 14z"/>
<path d="M21330 15270 c-330 -46 -622 -191 -860 -430 -221 -220 -361 -483
-422 -793 -29 -147 -31 -393 -4 -542 41 -231 145 -470 285 -655 145 -193 319
-338 526 -440 231 -114 395 -153 655 -154 202 -1 311 15 479 71 223 74 408
189 582 363 274 273 426 615 445 1003 37 741 -471 1404 -1194 1557 -111 24
-385 35 -492 20z"/>
<path d="M24670 15270 c-232 -32 -449 -115 -650 -248 -121 -80 -319 -280 -403
-408 -113 -170 -193 -365 -234 -569 -25 -126 -25 -434 0 -560 63 -313 199
-569 421 -790 209 -209 425 -333 695 -400 542 -135 1119 48 1484 470 349 404
461 952 300 1470 -36 115 -131 306 -204 410 -82 115 -249 282 -364 363 -161
114 -361 200 -562 243 -111 24 -375 34 -483 19z"/>
<path d="M27975 15265 c-170 -28 -353 -90 -492 -166 -387 -214 -655 -576 -755
-1020 -20 -91 -23 -131 -23 -314 0 -183 3 -223 23 -314 136 -607 593 -1057
1197 -1177 126 -25 414 -25 540 0 626 125 1099 610 1206 1237 29 171 23 432
-14 589 -141 593 -579 1025 -1169 1151 -125 27 -388 34 -513 14z"/>
<path d="M31370 15274 c-80 -10 -235 -45 -307 -69 -116 -38 -286 -125 -388
-197 -115 -81 -282 -248 -364 -363 -275 -390 -351 -903 -200 -1360 246 -746
1023 -1178 1780 -990 271 67 486 191 694 400 308 307 461 699 442 1134 -17
397 -163 729 -446 1011 -219 218 -457 348 -749 410 -95 20 -376 35 -462 24z"/>
<path d="M34680 15270 c-612 -85 -1110 -530 -1261 -1126 -72 -287 -61 -589 32
-868 125 -376 422 -711 780 -880 218 -104 393 -141 649 -140 260 1 425 40 655
154 421 209 726 620 811 1095 24 135 24 384 0 520 -54 309 -202 592 -426 815
-213 214 -456 346 -752 411 -107 23 -381 34 -488 19z"/>
<path d="M38045 15274 c-271 -41 -471 -115 -661 -243 -335 -226 -556 -553
-647 -959 -18 -83 -21 -128 -21 -307 0 -195 2 -218 28 -330 71 -303 209 -549
430 -762 211 -205 450 -333 739 -395 137 -29 426 -32 562 -5 644 130 1119 630
1215 1280 15 101 15 322 0 423 -94 643 -557 1140 -1189 1275 -93 20 -380 34
-456 23z"/>
<path d="M47017 15265 c-224 -36 -407 -106 -587 -222 -341 -221 -570 -555
-662 -964 -20 -91 -23 -131 -23 -314 0 -183 3 -223 23 -314 90 -401 312 -728
646 -952 467 -313 1084 -331 1571 -44 256 150 451 360 585 630 113 228 160
429 160 688 0 717 -496 1327 -1202 1478 -124 27 -388 34 -511 14z"/>
<path d="M50375 15269 c-392 -54 -756 -269 -995 -587 -542 -721 -343 -1757
427 -2219 344 -206 760 -265 1146 -163 496 131 902 526 1051 1022 47 156 60
251 61 438 0 200 -16 310 -72 480 -165 511 -597 899 -1121 1010 -113 24 -385
35 -497 19z"/>
<path d="M53720 15270 c-210 -29 -438 -112 -604 -218 -356 -228 -604 -598
-682 -1017 -26 -135 -26 -411 -1 -540 124 -632 594 -1106 1212 -1221 147 -28
412 -25 555 5 208 44 402 127 565 243 111 78 281 246 358 354 334 471 376
1081 110 1596 -206 399 -578 681 -1026 779 -106 23 -381 34 -487 19z"/>
<path d="M57025 15265 c-318 -52 -602 -195 -825 -416 -123 -123 -210 -243
-290 -404 -123 -248 -166 -451 -157 -735 4 -106 13 -197 25 -255 128 -596 581
-1049 1175 -1177 137 -29 426 -32 562 -5 644 130 1124 637 1216 1285 15 111 6
412 -16 512 -136 609 -577 1053 -1174 1181 -128 27 -389 34 -516 14z"/>
<path d="M60367 15265 c-466 -76 -846 -337 -1080 -740 -204 -352 -256 -787
-141 -1190 77 -268 256 -547 466 -723 210 -176 436 -285 703 -339 136 -27 425
-24 562 5 602 130 1056 594 1180 1207 27 137 25 444 -5 581 -68 314 -196 549
-421 775 -218 218 -454 347 -749 409 -130 28 -391 35 -515 15z"/>
<path d="M63760 15274 c-350 -44 -646 -188 -890 -433 -264 -265 -408 -573
-442 -948 -26 -283 29 -557 164 -827 140 -280 402 -534 689 -670 218 -104 393
-141 649 -140 247 1 413 38 630 140 221 105 453 302 588 502 202 296 295 650
264 995 -34 374 -179 685 -442 947 -216 217 -477 357 -771 415 -82 16 -364 28
-439 19z"/>
<path d="M67062 15268 c-247 -31 -527 -149 -724 -306 -281 -225 -472 -534
-550 -896 -32 -147 -32 -455 0 -602 65 -298 193 -540 396 -752 124 -129 237
-214 386 -291 136 -70 254 -113 393 -143 137 -29 426 -32 562 -5 634 128 1099
607 1211 1247 22 126 22 364 0 490 -91 525 -420 946 -897 1152 -230 99 -520
139 -777 106z"/>
<path d="M70377 15265 c-224 -36 -407 -106 -587 -222 -343 -222 -573 -559
-665 -973 -22 -100 -31 -388 -16 -503 87 -649 574 -1169 1211 -1292 121 -23
315 -30 439 -16 507 59 942 366 1171 826 109 219 148 377 157 625 9 284 -34
487 -157 735 -81 162 -167 281 -292 405 -205 203 -459 339 -750 401 -124 27
-388 34 -511 14z"/>
<path d="M73735 15269 c-480 -66 -906 -367 -1128 -797 -266 -515 -224 -1125
110 -1596 77 -108 247 -276 358 -354 163 -116 357 -199 565 -243 143 -30 408
-33 555 -5 742 138 1268 806 1231 1561 -18 373 -158 706 -409 971 -85 90 -200
187 -293 246 -131 84 -329 164 -492 198 -113 24 -385 35 -497 19z"/>
<path d="M77080 15270 c-576 -80 -1055 -480 -1233 -1030 -56 -170 -72 -280
-72 -480 1 -187 14 -282 61 -438 152 -506 565 -901 1073 -1027 542 -135 1119
48 1484 470 461 533 498 1313 90 1889 -77 108 -247 276 -358 354 -159 112
-359 200 -558 243 -106 23 -381 34 -487 19z"/>
<path d="M80385 15265 c-169 -28 -353 -90 -491 -166 -383 -211 -663 -588 -755
-1017 -30 -140 -37 -391 -15 -539 93 -631 562 -1130 1189 -1265 137 -29 426
-32 562 -5 460 93 844 379 1054 786 69 136 111 249 143 392 20 91 23 131 23
314 0 183 -3 223 -23 314 -135 604 -576 1044 -1174 1172 -125 27 -388 34 -513
14z"/>
<path d="M83725 15265 c-246 -40 -456 -126 -649 -263 -101 -72 -256 -224 -329
-322 -379 -513 -404 -1212 -61 -1737 231 -356 571 -586 989 -669 135 -28 425
-25 558 4 320 70 569 210 793 445 197 205 332 469 391 762 13 68 17 137 17
280 0 210 -12 295 -66 465 -77 240 -191 424 -377 610 -219 219 -456 348 -749
410 -130 28 -391 35 -517 15z"/>
<path d="M92876 15265 c-477 -78 -864 -351 -1099 -775 -75 -136 -141 -338
-167 -510 -14 -97 -14 -334 0 -430 98 -650 572 -1148 1215 -1276 125 -25 414
-25 539 -1 605 121 1062 572 1199 1185 18 83 21 128 21 307 0 180 -3 224 -22
308 -135 607 -577 1050 -1174 1178 -125 27 -388 34 -512 14z"/>
<path d="M96240 15270 c-493 -68 -922 -376 -1147 -823 -57 -115 -117 -295
-139 -422 -24 -136 -24 -385 0 -520 85 -475 390 -886 811 -1095 230 -114 395
-153 655 -154 202 -1 311 15 479 71 223 74 409 190 582 362 277 277 429 621
446 1011 33 738 -475 1398 -1195 1550 -111 24 -385 35 -492 20z"/>
<path d="M99580 15270 c-232 -32 -449 -115 -650 -248 -117 -78 -318 -280 -399
-401 -114 -173 -197 -373 -237 -576 -25 -124 -26 -423 -1 -552 58 -310 198
-575 422 -798 208 -209 423 -333 694 -400 542 -135 1119 48 1484 470 350 404
461 952 300 1470 -36 115 -131 306 -204 410 -82 115 -249 282 -364 363 -161
114 -361 200 -562 243 -111 24 -375 34 -483 19z"/>
<path d="M102885 15265 c-491 -80 -898 -378 -1118 -820 -106 -214 -147 -379
-154 -630 -5 -154 -2 -198 16 -304 107 -627 579 -1112 1206 -1238 136 -27 425
-24 562 5 594 128 1040 573 1175 1173 20 91 23 131 23 314 0 183 -3 223 -23
314 -135 603 -577 1044 -1174 1172 -125 27 -388 34 -513 14z"/>
<path d="M106280 15274 c-395 -50 -755 -249 -996 -548 -490 -610 -444 -1487
105 -2037 378 -377 922 -525 1434 -389 257 68 471 193 673 395 179 179 299
373 372 605 54 171 66 256 66 465 0 210 -12 295 -66 465 -77 240 -191 424
-377 610 -219 218 -457 348 -749 410 -95 20 -376 35 -462 24z"/>
<path d="M109590 15270 c-688 -96 -1222 -643 -1300 -1335 -26 -230 5 -487 85
-701 133 -354 407 -659 745 -829 211 -106 411 -150 670 -149 260 1 424 40 655
154 207 102 381 247 526 440 140 185 244 424 285 655 27 149 25 395 -4 542
-61 310 -201 573 -422 793 -213 214 -456 346 -752 411 -107 23 -381 34 -488
19z"/>
<path d="M112955 15274 c-269 -41 -472 -116 -662 -243 -328 -222 -547 -542
-639 -936 -27 -112 -28 -134 -28 -330 0 -194 2 -219 28 -330 70 -302 194 -525
415 -746 219 -218 453 -346 754 -411 137 -29 426 -32 562 -5 682 137 1173 691
1224 1381 56 763 -449 1437 -1198 1597 -93 20 -380 34 -456 23z"/>
<path d="M116239 15265 c-570 -89 -1025 -475 -1209 -1025 -65 -197 -91 -483
-61 -685 88 -585 482 -1057 1031 -1233 170 -54 255 -67 460 -66 152 0 203 4
287 22 139 30 257 73 393 143 149 77 262 162 386 292 204 211 331 453 396 751
19 85 22 132 22 301 0 171 -3 215 -23 305 -32 149 -63 238 -131 375 -226 454
-660 764 -1155 824 -117 14 -288 12 -396 -4z"/>
<path d="M119601 15270 c-335 -47 -622 -190 -861 -430 -221 -220 -360 -482
-422 -793 -17 -89 -22 -147 -22 -282 0 -135 5 -193 22 -282 94 -473 390 -867
807 -1073 138 -69 228 -100 375 -131 143 -30 408 -33 555 -5 304 57 566 195
785 415 246 247 390 537 435 878 104 783 -414 1520 -1183 1683 -111 24 -385
35 -491 20z"/>
<path d="M122940 15270 c-232 -32 -451 -115 -649 -247 -122 -81 -319 -281
-404 -409 -113 -170 -193 -365 -234 -569 -25 -126 -25 -434 0 -560 41 -204
124 -405 237 -574 102 -152 285 -330 446 -433 133 -85 322 -161 501 -200 133
-29 423 -32 558 -4 418 83 758 313 989 669 343 525 318 1224 -61 1737 -76 102
-230 252 -338 328 -161 114 -367 203 -565 243 -109 23 -377 33 -480 19z"/>
<path d="M126305 15274 c-262 -40 -458 -110 -642 -230 -345 -223 -573 -555
-665 -965 -20 -91 -23 -131 -23 -314 0 -183 3 -223 23 -314 136 -608 592
-1056 1197 -1178 136 -27 425 -24 562 5 627 135 1096 634 1189 1265 22 148 15
399 -15 539 -126 589 -581 1042 -1173 1169 -91 20 -379 34 -453 23z"/>
<path d="M129605 15269 c-232 -32 -474 -129 -669 -267 -104 -73 -275 -245
-349 -348 -408 -576 -371 -1356 90 -1889 445 -514 1184 -661 1793 -355 418
210 713 606 807 1085 25 129 25 405 -1 540 -114 610 -576 1089 -1174 1215
-113 24 -385 35 -497 19z"/>
<path d="M1300 11986 c-334 -49 -612 -188 -851 -426 -225 -224 -367 -492 -425
-805 -25 -134 -26 -410 -1 -542 55 -296 193 -564 401 -780 248 -258 544 -408
891 -454 123 -16 363 -6 487 21 443 94 829 393 1033 800 180 360 211 783 84
1165 -172 517 -608 902 -1136 1005 -139 27 -355 34 -483 16z"/>
<path d="M4662 11990 c-234 -30 -456 -113 -662 -249 -121 -79 -318 -278 -403
-406 -170 -258 -244 -493 -254 -805 -5 -149 -2 -193 16 -298 113 -664 636
-1170 1294 -1252 121 -16 350 -8 465 15 532 105 977 500 1140 1015 58 182 67
246 67 475 0 183 -3 223 -23 314 -101 451 -385 825 -782 1030 -210 109 -409
160 -645 166 -77 2 -173 0 -213 -5z"/>
<path d="M8040 11993 c-528 -52 -986 -372 -1215 -848 -247 -513 -187 -1122
156 -1578 218 -291 532 -491 892 -569 147 -32 457 -32 599 0 460 102 832 392
1037 807 103 207 149 387 158 615 27 649 -347 1230 -947 1474 -195 80 -472
120 -680 99z"/>
<path d="M11306 11985 c-428 -61 -815 -309 -1048 -670 -350 -543 -324 -1240
66 -1759 76 -101 244 -259 349 -329 166 -112 349 -188 557 -233 134 -29 440
-27 579 4 238 54 433 144 616 287 577 450 748 1250 409 1905 -212 410 -612
706 -1061 785 -126 23 -347 27 -467 10z"/>
<path d="M14667 11989 c-558 -69 -1045 -464 -1231 -998 -66 -190 -80 -280 -80
-511 0 -173 4 -221 22 -304 91 -411 321 -747 665 -970 152 -100 312 -166 505
-209 142 -31 452 -31 599 1 661 144 1137 690 1193 1367 62 763 -461 1457
-1209 1606 -114 23 -352 32 -464 18z"/>
<path d="M18050 11994 c-497 -59 -904 -318 -1149 -729 -144 -243 -213 -496
-212 -785 1 -722 490 -1329 1194 -1482 147 -32 457 -32 599 -1 471 106 835
391 1044 818 117 241 160 447 151 725 -10 298 -89 545 -254 795 -90 135 -273
318 -408 408 -249 164 -501 245 -790 252 -77 2 -156 1 -175 -1z"/>
<path d="M21385 11994 c-357 -39 -670 -188 -915 -434 -120 -120 -198 -225
-271 -363 -304 -579 -207 -1289 241 -1760 168 -177 365 -305 591 -385 173 -61
273 -77 489 -77 153 0 214 4 280 19 317 69 549 193 771 415 185 186 295 363
372 601 58 177 72 271 71 480 -1 205 -17 307 -75 482 -173 515 -626 909 -1156
1003 -88 16 -322 27 -398 19z"/>
<path d="M24658 11985 c-772 -111 -1327 -782 -1295 -1564 30 -741 581 -1346
1312 -1442 123 -16 363 -6 487 21 445 94 828 392 1035 803 152 304 197 669
124 1007 -129 590 -590 1043 -1180 1161 -129 26 -357 33 -483 14z"/>
<path d="M28021 11990 c-324 -41 -615 -180 -850 -405 -191 -184 -316 -379
-397 -620 -58 -173 -77 -319 -71 -530 6 -194 26 -310 82 -465 182 -503 609
-873 1127 -975 115 -23 344 -31 465 -15 629 79 1129 536 1280 1170 37 155 43
418 15 585 -53 311 -188 577 -407 804 -221 228 -476 368 -785 431 -121 25
-344 34 -459 20z"/>
<path d="M31400 11993 c-597 -59 -1100 -460 -1289 -1028 -127 -382 -96 -806
84 -1165 144 -287 387 -531 675 -675 193 -97 376 -143 605 -152 170 -6 279 5
430 44 267 70 491 200 688 400 377 381 523 934 386 1459 -120 463 -478 861
-924 1027 -205 76 -452 110 -655 90z"/>
<path d="M34666 11984 c-484 -65 -911 -375 -1133 -819 -247 -493 -210 -1067
98 -1535 81 -124 281 -324 402 -404 169 -112 350 -188 557 -232 133 -29 439
-27 579 4 200 45 377 121 546 235 117 79 303 265 382 382 323 478 359 1078 94
1582 -74 139 -152 244 -272 364 -331 332 -790 487 -1253 423z"/>
<path d="M47061 11990 c-492 -62 -924 -363 -1150 -800 -69 -135 -111 -248
-143 -391 -20 -91 -23 -131 -23 -314 0 -166 4 -228 18 -295 134 -621 586
-1074 1194 -1197 124 -25 432 -25 556 0 621 125 1091 611 1198 1238 18 106 21
150 16 299 -4 118 -12 204 -25 265 -61 280 -195 533 -391 737 -223 233 -479
375 -791 438 -121 25 -344 34 -459 20z"/>
<path d="M50404 11990 c-516 -65 -948 -373 -1174 -835 -243 -497 -202 -1066
111 -1535 81 -122 263 -305 384 -387 169 -114 352 -192 548 -235 139 -30 448
-33 577 -5 318 69 546 192 771 416 230 230 368 491 426 804 27 142 24 429 -6
567 -46 215 -114 379 -231 554 -225 335 -583 571 -975 641 -108 20 -333 27
-431 15z"/>
<path d="M53710 11986 c-426 -62 -803 -298 -1040 -653 -115 -172 -186 -341
-231 -553 -33 -152 -33 -427 -1 -585 63 -316 192 -557 421 -786 224 -223 451
-346 771 -415 129 -29 438 -26 577 4 196 43 379 121 548 235 117 79 303 265
382 382 249 369 330 817 223 1240 -143 566 -586 994 -1150 1111 -147 31 -365
39 -500 20z"/>
<path d="M57071 11990 c-105 -14 -264 -54 -354 -89 -212 -84 -357 -180 -523
-346 -218 -217 -348 -455 -417 -763 -18 -83 -21 -128 -21 -307 0 -180 3 -225
22 -312 131 -603 590 -1059 1189 -1180 136 -28 443 -25 583 6 558 120 999 543
1143 1096 41 160 50 249 44 444 -8 259 -50 420 -168 652 -207 402 -587 687
-1039 779 -121 25 -344 34 -459 20z"/>
<path d="M60450 11993 c-349 -34 -675 -188 -920 -434 -579 -581 -595 -1509
-38 -2114 207 -224 483 -380 791 -447 147 -32 457 -32 599 0 136 30 235 65
363 128 452 224 761 665 825 1178 16 121 8 347 -15 466 -110 565 -534 1026
-1078 1175 -163 44 -373 64 -527 48z"/>
<path d="M63785 11994 c-518 -57 -955 -352 -1189 -804 -305 -590 -203 -1295
258 -1769 372 -383 915 -537 1432 -406 529 134 950 557 1084 1090 216 854
-334 1719 -1187 1870 -89 16 -324 27 -398 19z"/>
<path d="M67077 11989 c-488 -60 -927 -371 -1153 -816 -60 -117 -113 -273
-141 -408 -28 -138 -25 -444 6 -585 130 -605 569 -1049 1169 -1183 142 -31
452 -31 599 1 884 192 1403 1098 1122 1962 -168 517 -604 904 -1138 1011 -114
23 -352 32 -464 18z"/>
<path d="M70421 11990 c-492 -62 -924 -363 -1150 -800 -118 -230 -160 -392
-168 -651 -6 -195 3 -284 44 -444 125 -483 471 -862 943 -1038 276 -103 627
-115 914 -31 530 153 940 597 1056 1142 27 126 37 374 21 505 -44 348 -203
663 -458 907 -211 203 -457 332 -743 390 -120 25 -343 34 -459 20z"/>
<path d="M73800 11994 c-187 -22 -360 -70 -505 -139 -687 -329 -1025 -1122
-785 -1846 78 -237 193 -424 369 -599 216 -215 459 -348 754 -412 139 -30 448
-33 577 -5 318 69 548 194 771 416 231 231 362 479 426 806 27 138 24 425 -6
565 -132 619 -605 1088 -1208 1195 -86 16 -324 27 -393 19z"/>
<path d="M77070 11986 c-430 -63 -801 -295 -1040 -652 -117 -175 -185 -339
-231 -554 -30 -138 -33 -425 -6 -567 55 -296 193 -564 401 -780 248 -258 544
-408 891 -454 123 -16 363 -6 487 21 443 94 829 393 1033 800 180 360 211 783
84 1165 -172 517 -604 899 -1138 1006 -129 25 -358 33 -481 15z"/>
<path d="M80432 11990 c-234 -30 -456 -113 -662 -249 -121 -79 -318 -278 -403
-406 -170 -258 -244 -493 -254 -805 -5 -149 -2 -193 16 -299 107 -627 577
-1113 1198 -1238 124 -25 432 -25 556 0 540 109 982 501 1145 1017 58 184 67
246 67 475 0 183 -3 223 -23 314 -135 603 -587 1050 -1182 1171 -120 25 -344
34 -458 20z"/>
<path d="M96260 11990 c-336 -42 -641 -190 -879 -429 -120 -120 -198 -225
-272 -364 -265 -504 -229 -1104 94 -1582 79 -117 265 -303 382 -382 169 -114
346 -190 546 -235 140 -31 446 -33 579 -4 317 69 549 193 771 415 185 186 295
363 372 601 58 177 72 271 71 480 -1 205 -18 314 -76 485 -175 515 -626 906
-1155 1000 -108 20 -332 27 -433 15z"/>
<path d="M99568 11985 c-600 -86 -1096 -527 -1247 -1109 -57 -218 -65 -489
-21 -698 134 -638 646 -1115 1285 -1199 123 -16 363 -6 487 21 443 94 829 393
1033 800 180 359 211 783 84 1165 -172 517 -605 900 -1138 1006 -129 26 -357
33 -483 14z"/>
<path d="M102931 11990 c-97 -13 -260 -52 -345 -84 -109 -41 -274 -131 -366
-200 -112 -84 -270 -249 -346 -361 -126 -186 -208 -388 -246 -610 -28 -167
-22 -430 15 -585 151 -634 651 -1091 1280 -1170 121 -16 350 -8 465 15 585
115 1037 558 1179 1155 37 157 43 418 14 589 -57 332 -204 607 -452 846 -210
201 -450 326 -739 385 -121 25 -344 34 -459 20z"/>
<path d="M106310 11993 c-528 -52 -986 -372 -1215 -848 -247 -513 -187 -1122
156 -1578 217 -289 535 -493 887 -567 124 -27 364 -37 487 -21 337 44 642 196
881 439 374 382 519 934 383 1458 -120 463 -478 861 -924 1027 -205 76 -452
110 -655 90z"/>
<path d="M109576 11985 c-490 -70 -911 -376 -1136 -825 -243 -487 -205 -1064
101 -1530 81 -124 281 -324 402 -404 169 -112 350 -188 557 -232 133 -29 439
-27 579 4 200 45 377 121 546 235 117 80 302 265 382 383 284 418 347 928 174
1402 -152 418 -511 765 -937 906 -196 65 -469 90 -668 61z"/>
<path d="M112941 11990 c-337 -43 -630 -188 -877 -434 -220 -221 -348 -457
-416 -770 -19 -86 -22 -132 -22 -306 0 -175 3 -220 22 -303 92 -414 321 -748
665 -971 152 -100 312 -166 505 -209 142 -31 452 -31 599 1 608 132 1068 611
1174 1222 25 143 27 364 5 500 -102 632 -575 1127 -1195 1251 -113 22 -353 32
-460 19z"/>
<path d="M116320 11994 c-263 -31 -491 -113 -694 -248 -672 -449 -870 -1361
-447 -2059 213 -350 566 -600 974 -689 147 -32 457 -32 599 -1 140 32 238 66
363 128 412 205 705 586 807 1051 29 136 32 453 5 589 -65 316 -198 568 -421
791 -223 222 -465 353 -770 415 -97 20 -334 33 -416 23z"/>
<path d="M119655 11993 c-507 -46 -961 -356 -1195 -815 -294 -578 -194 -1275
250 -1741 215 -226 469 -369 781 -439 139 -31 445 -33 579 -4 207 44 389 121
558 232 120 80 319 281 401 404 491 743 262 1733 -504 2174 -254 146 -576 216
-870 189z"/>
<path d="M122928 11985 c-682 -98 -1209 -640 -1289 -1326 -15 -135 -7 -345 20
-475 123 -598 572 -1053 1169 -1186 142 -32 452 -32 599 0 456 99 835 393
1038 807 35 72 75 166 88 210 172 555 30 1141 -373 1545 -212 211 -475 352
-769 411 -129 26 -357 33 -483 14z"/>
<path d="M126291 11990 c-640 -81 -1149 -550 -1293 -1191 -20 -91 -23 -131
-23 -314 0 -229 9 -293 67 -475 164 -517 604 -908 1145 -1017 124 -25 432 -25
556 0 621 125 1091 611 1198 1238 18 106 21 150 16 299 -4 118 -12 204 -25
265 -61 280 -195 533 -391 737 -223 233 -479 375 -791 438 -121 25 -344 34
-459 20z"/>
<path d="M129665 11994 c-465 -50 -865 -295 -1119 -687 -291 -446 -322 -1026
-81 -1507 74 -148 161 -267 285 -390 215 -215 458 -348 753 -412 139 -30 448
-33 577 -5 318 69 546 192 771 416 230 230 368 491 426 804 27 142 24 429 -6
567 -46 215 -114 379 -231 554 -225 335 -583 571 -975 641 -89 16 -323 27
-400 19z"/>
<path d="M42250 6365 l0 -635 460 0 460 0 0 635 0 635 -460 0 -460 0 0 -635z"/>
<path d="M7053 6433 l-1623 -3 0 -570 0 -570 885 0 885 0 0 -1810 0 -1810 550
0 550 0 0 1810 0 1810 860 0 860 0 -2 573 -3 572 -670 0 c-368 0 -1400 -1
-2292 -2z"/>
<path d="M32903 6433 l-1623 -3 0 -570 0 -570 885 0 885 0 0 -1810 0 -1810
550 0 550 0 0 1810 0 1810 860 0 860 0 0 575 0 575 -672 -2 c-370 -2 -1403 -4
-2295 -5z"/>
<path d="M53179 6430 l-1495 -5 -267 -260 -267 -260 0 -1856 0 -1857 268 -261
267 -261 2138 0 2137 0 0 570 0 570 -1820 0 -1820 0 0 1240 0 1240 1820 0
1820 0 0 575 0 575 -642 -2 c-354 -2 -1316 -5 -2139 -8z"/>
<path d="M70728 6433 l-1708 -3 0 -570 0 -570 930 0 930 0 0 -1810 0 -1810
580 0 580 0 0 1810 0 1810 905 0 905 0 0 575 0 575 -707 -2 c-390 -2 -1476 -4
-2415 -5z"/>
<path d="M85003 6430 l-1491 -5 -266 -258 -266 -259 0 -1858 0 -1858 265 -261
266 -261 2139 0 2140 0 0 570 0 570 -1820 0 -1820 0 0 1240 0 1240 1820 0
1820 0 -2 573 -3 572 -645 0 c-355 0 -1316 -2 -2137 -5z"/>
<path d="M93387 6430 l-1598 -5 -284 -260 -285 -260 0 -1855 0 -1855 285 -263
285 -262 2285 0 2285 0 0 570 0 570 -1945 0 -1945 0 0 1240 0 1240 1945 0
1945 0 0 575 0 575 -687 -2 c-379 -2 -1407 -5 -2286 -8z"/>
<path d="M116328 6433 l-1828 -3 0 -570 0 -570 995 0 995 0 0 -1810 0 -1810
620 0 620 0 0 1810 0 1810 968 2 967 3 0 570 0 570 -755 0 c-415 0 -1577 -1
-2582 -2z"/>
<path d="M546 6166 l-256 -265 0 -950 0 -951 252 -259 253 -259 1468 -1 1467
-1 0 -335 0 -335 -1720 0 -1720 0 0 -570 0 -570 2024 0 2023 0 251 263 251
262 1 950 0 950 -252 263 -252 262 -1468 0 -1468 0 2 333 3 332 1718 3 1717 2
0 570 0 570 -2019 0 -2018 0 -257 -264z"/>
<path d="M10610 4313 l1 -2118 252 -262 252 -262 1790 0 1790 0 248 261 247
261 0 2118 0 2119 -550 0 -550 0 0 -1810 0 -1810 -1185 0 -1185 0 0 1810 0
1810 -555 0 -555 0 0 -2117z"/>
<path d="M15790 4050 l0 -2380 2029 0 2029 0 250 263 251 262 1 1853 0 1853
-252 265 -253 264 -2027 0 -2028 0 0 -2380z m3450 0 l0 -1240 -1170 0 -1170 0
0 1240 0 1240 1170 0 1170 0 0 -1240z"/>
<path d="M21196 6168 l-255 -263 0 -1855 0 -1855 252 -262 252 -262 2033 -1
2032 0 0 570 0 570 -1730 0 -1730 0 0 335 0 335 1730 0 1730 0 0 570 0 570
-1730 0 -1730 0 0 335 0 335 1730 0 1730 0 0 570 0 570 -2029 0 -2029 0 -256
-262z"/>
<path d="M26100 4050 l0 -2380 555 0 555 0 2 1808 3 1807 1185 0 1185 0 3
-1817 2 -1818 550 0 550 0 0 2128 -1 2127 -251 263 -251 262 -2043 0 -2044 0
0 -2380z"/>
<path d="M37062 6168 l-252 -261 0 -957 0 -956 251 -257 251 -257 1464 0 1464
0 0 -335 0 -335 -1715 0 -1715 0 0 -570 0 -570 2020 0 2019 0 251 262 250 263
0 952 0 953 -251 260 -252 260 -1463 0 -1464 0 0 335 0 335 1715 0 1715 0 0
570 0 570 -2018 0 -2019 0 -251 -262z"/>
<path d="M46006 6169 l-266 -261 0 -958 0 -957 264 -256 264 -257 1546 0 1546
0 0 -335 0 -335 -1810 0 -1810 0 0 -570 0 -570 2128 0 2127 0 263 263 262 262
0 956 0 956 -264 256 -264 257 -1541 0 -1541 0 0 335 0 335 1805 0 1805 0 0
570 0 570 -2124 0 -2124 0 -266 -261z"/>
<path d="M56530 4050 l0 -2380 485 0 485 0 0 2380 0 2380 -485 0 -485 0 0
-2380z"/>
<path d="M58385 6169 l-265 -262 0 -1856 0 -1857 263 -262 262 -262 2143 0
2142 0 0 570 0 570 -1820 0 -1820 0 0 335 0 335 1820 0 1820 0 0 570 0 570
-1820 0 -1820 0 0 335 0 335 1820 0 1820 0 0 570 0 570 -2140 0 -2140 0 -265
-261z"/>
<path d="M63560 4050 l0 -2380 585 0 585 0 0 1810 0 1810 1248 -2 1247 -3 3
-1817 2 -1818 580 0 580 0 0 2128 0 2129 -264 261 -265 262 -2150 0 -2151 0 0
-2380z"/>
<path d="M74420 4050 l0 -2380 485 0 485 0 0 2380 0 2380 -485 0 -485 0 0
-2380z"/>
<path d="M76277 6169 l-267 -261 0 -2119 0 -2119 585 0 585 0 0 905 0 905
1820 0 1820 0 0 570 0 570 -1820 0 -1820 0 0 335 0 335 1820 0 1820 0 0 570 0
570 -2138 0 -2138 0 -267 -261z"/>
<path d="M81400 4050 l0 -2380 485 0 485 0 0 2380 0 2380 -485 0 -485 0 0
-2380z"/>
<path d="M97030 4050 l0 -2380 625 0 625 0 0 905 0 905 1335 0 1335 0 0 -905
0 -905 625 0 625 0 0 2380 0 2380 -625 0 -625 0 0 -905 0 -905 -1335 0 -1335
0 0 905 0 905 -625 0 -625 0 0 -2380z"/>
<path d="M103157 6168 l-287 -263 0 -2117 0 -2118 625 0 625 0 0 905 0 905
1323 -2 1322 -3 3 -902 2 -903 620 0 620 0 0 2118 0 2117 -283 262 -282 262
-2001 1 -2001 0 -286 -262z m3611 -1215 l2 -333 -1325 0 -1325 0 0 335 0 335
1323 -2 1322 -3 3 -332z"/>
<path d="M108680 4050 l0 -2380 625 0 625 0 0 905 0 905 1668 0 1667 0 280
258 280 258 2 954 1 955 -283 263 -283 262 -2291 0 -2291 0 0 -2380z m3900
905 l0 -335 -1325 0 -1325 0 0 335 0 335 1325 0 1325 0 0 -335z"/>
<path d="M120618 6164 l-288 -265 0 -1848 0 -1849 58 -55 c31 -30 160 -150
287 -266 l230 -211 2287 0 2288 0 0 570 0 570 -1945 0 -1945 0 0 335 0 335
1945 0 1945 0 0 570 0 570 -1945 0 -1945 0 0 335 0 335 1945 0 1945 0 0 570 0
570 -2287 0 -2288 -1 -287 -265z"/>
<path d="M126150 4050 l0 -2380 625 0 625 0 2 903 3 902 1325 0 1325 0 3 -902
2 -903 620 0 620 0 0 988 0 987 -215 199 c-118 110 -215 202 -215 205 0 3 97
96 215 205 l215 200 0 725 0 726 -283 262 -282 263 -2292 0 -2293 0 0 -2380z
m3908 903 l2 -333 -1330 0 -1330 0 0 328 c0 181 3 332 7 335 3 4 601 6 1327 5
l1321 -3 3 -332z"/>
</g>
</svg>
