<?xml version="1.0" standalone="no"?>
<!DOCTYPE svg PUBLIC "-//W3C//DTD SVG 20010904//EN"
 "http://www.w3.org/TR/2001/REC-SVG-20010904/DTD/svg10.dtd">
<svg version="1.0" xmlns="http://www.w3.org/2000/svg"
 width="3690.000000pt" height="3840.000000pt" viewBox="0 0 3690.000000 3840.000000"
 preserveAspectRatio="xMidYMid meet">

<g transform="translate(0.000000,3840.000000) scale(0.100000,-0.100000)"
fill="#000000" stroke="none">
<path d="M13430 30680 c0 -15 -7 -20 -25 -20 -23 0 -25 -4 -25 -45 0 -41 -2
-45 -25 -45 -20 0 -25 -5 -25 -25 0 -18 -5 -25 -19 -25 -13 0 -21 -8 -23 -22
-2 -15 -11 -24 -25 -26 -20 -3 -23 -9 -23 -48 0 -40 -2 -44 -25 -44 -18 0 -25
-5 -25 -20 0 -13 -7 -20 -20 -20 -15 0 -20 -7 -20 -25 0 -18 -5 -25 -19 -25
-19 0 -31 -25 -31 -67 0 -15 -7 -23 -22 -25 -15 -2 -23 -10 -23 -23 0 -13 -8
-21 -22 -23 -17 -3 -23 -10 -23 -28 0 -19 -5 -24 -25 -24 -14 0 -24 -3 -24 -7
1 -5 1 -25 0 -45 -1 -34 -4 -38 -26 -38 -20 0 -25 -5 -25 -25 0 -19 -5 -25
-17 -23 -12 2 -19 -5 -21 -21 -2 -13 -12 -25 -22 -28 -12 -3 -21 -18 -25 -43
-4 -26 -13 -40 -26 -43 -11 -3 -19 -14 -19 -25 0 -14 -8 -22 -22 -24 -15 -2
-24 -11 -26 -25 -2 -15 -10 -23 -22 -23 -15 0 -20 -10 -26 -45 -5 -35 -10 -45
-25 -45 -14 0 -19 -7 -19 -25 0 -19 -5 -25 -23 -25 -19 0 -25 -7 -33 -42 -6
-27 -14 -43 -24 -43 -9 0 -16 -11 -18 -27 -2 -20 -9 -28 -23 -28 -12 0 -19 -7
-19 -20 0 -13 -7 -20 -19 -20 -16 0 -21 -9 -27 -45 -5 -35 -10 -45 -25 -45
-14 0 -19 -7 -19 -25 0 -20 -5 -25 -25 -25 -20 0 -25 -5 -25 -25 0 -18 -5 -25
-19 -25 -16 0 -21 -9 -26 -44 -6 -36 -12 -46 -29 -48 -13 -2 -22 -11 -24 -25
-2 -15 -10 -23 -23 -23 -12 0 -19 -7 -19 -20 0 -13 -7 -20 -19 -20 -15 0 -20
-10 -25 -45 -6 -36 -11 -45 -27 -45 -13 0 -19 -7 -19 -24 0 -18 -6 -25 -22
-28 -15 -2 -24 -11 -26 -25 -2 -14 -10 -23 -22 -23 -13 0 -19 -11 -24 -45 -6
-36 -11 -45 -27 -45 -14 0 -19 -7 -19 -25 0 -20 -5 -25 -25 -25 -18 0 -25 -5
-25 -20 0 -13 -7 -20 -19 -20 -15 0 -20 -10 -25 -45 -6 -36 -11 -45 -27 -45
-14 0 -19 -7 -19 -25 0 -18 -5 -25 -20 -25 -15 0 -20 -7 -20 -25 0 -18 -5 -25
-19 -25 -16 0 -21 -9 -27 -45 -5 -39 -10 -45 -30 -45 -19 0 -24 -5 -24 -25 0
-18 -5 -25 -19 -25 -15 0 -21 -10 -26 -40 -5 -30 -11 -40 -25 -40 -13 0 -20
-9 -22 -27 -2 -20 -9 -29 -25 -31 -17 -3 -23 -10 -23 -28 0 -17 -6 -24 -19
-24 -15 0 -21 -10 -26 -40 -5 -30 -11 -40 -26 -40 -14 0 -19 -7 -19 -25 0 -18
-5 -25 -19 -25 -13 0 -21 -8 -23 -22 -2 -15 -11 -24 -25 -26 -20 -3 -23 -9
-23 -48 0 -40 -2 -44 -25 -44 -20 0 -25 -5 -25 -25 0 -20 -5 -25 -25 -25 -20
0 -25 -5 -25 -25 0 -18 -5 -25 -19 -25 -15 0 -21 -10 -26 -40 -5 -30 -11 -40
-26 -40 -14 0 -19 -7 -19 -25 0 -18 -5 -25 -20 -25 -15 0 -20 -7 -20 -25 0
-18 -5 -25 -19 -25 -16 0 -21 -9 -26 -44 -6 -36 -12 -46 -29 -48 -13 -2 -22
-11 -24 -25 -2 -15 -10 -23 -22 -23 -12 0 -20 -8 -22 -22 -2 -15 -11 -24 -25
-26 -19 -3 -23 -10 -23 -42 0 -32 4 -39 23 -42 19 -3 22 -10 25 -50 3 -39 7
-48 22 -48 15 0 20 -10 26 -45 5 -35 10 -45 25 -45 16 0 19 -8 19 -44 0 -39 3
-45 23 -48 18 -2 23 -10 25 -45 3 -34 7 -43 22 -43 15 0 19 -9 22 -47 3 -41 6
-48 26 -51 19 -3 22 -9 22 -48 0 -36 3 -44 19 -44 15 0 20 -10 25 -45 6 -35
11 -45 26 -45 15 0 19 -9 22 -47 3 -41 6 -48 26 -51 19 -3 22 -9 22 -48 0 -37
3 -44 19 -44 16 0 21 -9 27 -45 5 -35 10 -45 25 -45 16 0 19 -8 19 -44 0 -39
3 -45 23 -48 23 -3 24 -5 26 -63 1 -28 5 -35 21 -35 17 0 20 -7 20 -45 0 -41
2 -45 25 -45 23 0 25 -4 25 -45 0 -41 2 -45 25 -45 23 0 25 -4 25 -45 0 -38 3
-45 19 -45 15 0 20 -10 26 -50 5 -39 11 -50 25 -50 13 0 19 -11 24 -40 4 -24
12 -40 20 -40 9 0 16 -17 21 -50 6 -40 11 -50 26 -50 16 0 19 -7 19 -45 0 -38
3 -45 19 -45 16 0 21 -9 27 -45 5 -35 10 -45 25 -45 15 0 19 -7 19 -32 0 -38
8 -52 33 -61 13 -5 17 -18 17 -52 0 -41 2 -45 25 -45 23 0 25 -4 25 -45 0 -37
3 -45 19 -45 15 0 20 -10 25 -45 6 -36 11 -45 27 -45 14 0 19 -7 19 -30 0 -23
4 -30 20 -30 15 0 20 -7 20 -27 0 -64 12 -103 31 -103 14 0 19 -7 19 -30 0
-23 5 -30 19 -30 19 0 31 -34 31 -91 0 -22 5 -29 19 -29 14 0 20 -10 25 -44 5
-31 12 -45 25 -49 13 -3 20 -18 25 -51 6 -36 11 -46 27 -46 14 0 19 -7 19 -25
0 -18 5 -25 20 -25 16 0 20 -7 20 -34 0 -62 11 -96 31 -96 14 0 19 -7 19 -30
0 -23 4 -30 20 -30 17 0 20 -7 20 -45 0 -38 3 -45 19 -45 16 0 21 -9 27 -45 5
-34 11 -45 24 -45 19 0 30 -36 30 -96 0 -27 4 -34 19 -34 14 0 21 -8 23 -27 2
-20 9 -29 26 -31 19 -3 22 -9 22 -48 0 -37 3 -44 19 -44 16 0 21 -9 27 -45 5
-35 10 -45 25 -45 16 0 19 -8 19 -46 0 -37 4 -47 20 -51 14 -4 21 -17 26 -49
5 -34 11 -44 25 -44 14 0 19 -9 21 -42 2 -36 7 -44 26 -46 19 -3 22 -9 22 -48
0 -40 2 -44 25 -44 23 0 25 -3 25 -50 0 -43 3 -50 19 -50 16 0 21 -9 27 -45 5
-35 10 -45 25 -45 16 0 19 -8 19 -45 0 -38 3 -45 19 -45 16 0 21 -9 27 -45 5
-34 11 -45 25 -45 14 0 18 -9 21 -47 3 -41 6 -48 26 -51 19 -3 22 -9 22 -48 0
-37 3 -44 19 -44 16 0 21 -9 27 -45 5 -35 10 -45 25 -45 16 0 19 -8 19 -45 0
-41 2 -45 25 -45 23 0 25 -3 25 -50 0 -43 3 -50 19 -50 16 0 21 -9 27 -45 5
-35 10 -45 25 -45 16 0 19 -8 19 -45 0 -38 3 -45 19 -45 16 0 21 -9 27 -45 5
-34 11 -45 25 -45 14 0 18 -9 21 -47 3 -41 6 -48 26 -51 19 -3 22 -9 22 -48 0
-37 3 -44 19 -44 16 0 21 -9 27 -45 5 -35 10 -45 25 -45 16 0 19 -8 19 -45 0
-41 2 -45 25 -45 23 0 25 -4 25 -45 0 -38 3 -45 19 -45 15 0 20 -10 26 -50 6
-40 11 -50 26 -50 16 0 19 -7 19 -45 0 -37 3 -45 19 -45 15 0 20 -10 25 -45 6
-36 11 -45 27 -45 16 0 19 -7 19 -45 0 -41 2 -45 25 -45 23 0 25 -3 25 -50 0
-47 2 -50 25 -50 23 0 25 -4 25 -45 0 -37 3 -45 19 -45 15 0 20 -10 25 -45 6
-36 11 -45 27 -45 16 0 19 -7 19 -45 0 -38 3 -45 19 -45 15 0 20 -10 26 -50 6
-40 11 -50 26 -50 16 0 19 -7 19 -45 0 -41 2 -45 25 -45 23 0 25 -4 25 -45 0
-37 3 -45 19 -45 15 0 20 -10 25 -45 6 -36 11 -45 27 -45 16 0 19 -7 19 -50 0
-47 2 -50 25 -50 23 0 25 -4 25 -45 0 -37 3 -45 19 -45 15 0 20 -10 25 -45 6
-36 11 -45 27 -45 16 0 19 -7 19 -45 0 -38 3 -45 19 -45 15 0 20 -10 26 -50 6
-40 11 -50 26 -50 16 0 19 -7 19 -45 0 -41 2 -45 25 -45 23 0 25 -4 25 -44 0
-39 3 -45 23 -48 19 -3 22 -10 25 -50 3 -39 7 -48 21 -48 14 0 20 -11 25 -45
6 -36 11 -45 27 -45 16 0 19 -7 19 -45 0 -38 3 -45 20 -45 17 0 20 -7 20 -45
0 -41 2 -45 25 -45 23 0 25 -3 25 -50 0 -43 3 -50 19 -50 16 0 21 -9 27 -45 5
-34 11 -45 24 -45 13 0 19 -11 24 -45 6 -36 11 -45 27 -45 16 0 19 -7 19 -44
0 -39 3 -45 23 -48 18 -2 23 -10 25 -45 3 -35 7 -43 23 -43 14 0 19 -7 20 -27
1 -39 14 -68 30 -68 10 0 15 -15 17 -47 3 -39 7 -48 21 -48 14 0 20 -11 25
-45 6 -36 11 -45 27 -45 16 0 19 -7 19 -44 0 -39 3 -45 23 -48 18 -2 23 -10
25 -45 2 -34 7 -43 21 -43 14 0 20 -11 25 -50 5 -41 10 -50 26 -50 17 0 20 -7
20 -44 0 -39 3 -45 23 -48 16 -2 23 -11 25 -30 2 -20 9 -28 23 -28 16 0 19 -7
19 -41 0 -32 4 -42 20 -46 14 -4 21 -17 26 -49 5 -34 11 -44 25 -44 15 0 19
-7 19 -34 0 -62 11 -96 31 -96 14 0 19 -7 19 -25 0 -18 5 -25 20 -25 16 0 21
-9 26 -50 5 -40 10 -50 25 -50 14 0 19 -8 20 -30 1 -16 3 -34 4 -40 1 -5 3
-21 4 -35 1 -18 7 -25 21 -25 15 0 20 -7 20 -25 0 -18 5 -25 19 -25 16 0 20
-8 23 -42 2 -36 7 -44 26 -46 19 -3 22 -9 22 -53 0 -42 3 -49 19 -49 16 0 21
-9 27 -45 5 -35 10 -45 25 -45 16 0 19 -8 19 -45 0 -38 -3 -45 -19 -45 -17 0
-20 -8 -23 -47 -3 -41 -6 -48 -25 -51 -20 -3 -23 -9 -23 -48 0 -36 -3 -44 -19
-44 -15 0 -20 -10 -25 -45 -5 -28 -12 -45 -21 -45 -9 0 -16 -17 -21 -45 -5
-34 -11 -45 -24 -45 -14 0 -20 -11 -25 -50 -6 -40 -11 -50 -26 -50 -16 0 -19
-7 -19 -45 0 -41 -2 -45 -25 -45 -23 0 -25 -4 -25 -45 0 -37 -3 -45 -19 -45
-15 0 -21 -11 -28 -47 -7 -37 -13 -47 -26 -45 -14 2 -17 -5 -17 -43 0 -38 -4
-48 -20 -52 -14 -4 -21 -17 -26 -49 -5 -34 -11 -44 -25 -44 -14 0 -19 -9 -21
-42 -2 -36 -7 -44 -25 -46 -20 -3 -23 -9 -23 -48 0 -37 -3 -44 -19 -44 -15 0
-20 -10 -26 -50 -5 -39 -11 -50 -25 -50 -15 0 -19 -9 -22 -42 -2 -36 -7 -44
-25 -46 -20 -3 -23 -9 -23 -48 0 -37 -3 -44 -20 -44 -16 0 -21 -9 -26 -50 -5
-40 -10 -50 -25 -50 -16 0 -19 -8 -19 -41 0 -32 -4 -42 -19 -46 -20 -5 -31
-30 -31 -70 0 -16 -6 -23 -19 -23 -16 0 -20 -8 -23 -42 -2 -36 -7 -44 -25 -46
-20 -3 -23 -9 -23 -47 0 -38 -3 -44 -22 -47 -24 -3 -25 -5 -27 -59 -1 -22 -7
-32 -21 -36 -14 -4 -21 -17 -26 -49 -5 -34 -11 -44 -25 -44 -16 0 -19 -8 -19
-44 0 -39 -3 -45 -22 -48 -19 -2 -24 -10 -26 -45 -3 -35 -7 -43 -23 -43 -16 0
-19 -7 -19 -45 0 -38 -3 -45 -20 -45 -16 0 -21 -9 -26 -50 -5 -39 -11 -50 -24
-50 -13 0 -19 -11 -24 -45 -6 -36 -11 -45 -27 -45 -16 0 -19 -7 -19 -45 0 -41
-2 -45 -25 -45 -23 0 -25 -4 -25 -45 0 -38 -3 -45 -19 -45 -15 0 -20 -10 -26
-50 -6 -40 -11 -50 -26 -50 -16 0 -19 -7 -19 -45 0 -38 -3 -45 -19 -45 -16 0
-21 -9 -27 -45 -5 -35 -10 -45 -25 -45 -16 0 -19 -8 -19 -44 0 -39 -3 -45 -22
-48 -20 -3 -23 -10 -26 -50 -3 -39 -7 -48 -22 -48 -15 0 -20 -10 -26 -45 -5
-34 -11 -45 -24 -45 -13 0 -19 -11 -24 -45 -6 -36 -11 -45 -27 -45 -16 0 -19
-7 -19 -50 0 -43 -3 -50 -19 -50 -16 0 -21 -9 -27 -45 -5 -35 -10 -45 -25 -45
-16 0 -19 -8 -19 -45 0 -38 -3 -45 -19 -45 -16 0 -21 -9 -27 -45 -5 -34 -11
-45 -25 -45 -14 0 -18 -9 -21 -47 -3 -41 -6 -48 -25 -51 -20 -3 -23 -9 -23
-48 0 -40 -2 -44 -25 -44 -23 0 -25 -4 -25 -45 0 -37 -3 -45 -19 -45 -15 0
-20 -10 -25 -45 -6 -36 -11 -45 -27 -45 -16 0 -19 -7 -19 -50 0 -43 -3 -50
-19 -50 -16 0 -21 -9 -27 -45 -5 -35 -10 -45 -25 -45 -16 0 -19 -8 -19 -45 0
-38 -3 -45 -19 -45 -16 0 -21 -9 -27 -45 -5 -34 -11 -45 -24 -45 -14 0 -20
-11 -25 -50 -5 -39 -11 -50 -25 -50 -15 0 -19 -9 -22 -42 -2 -36 -7 -44 -25
-46 -20 -3 -23 -9 -23 -48 0 -36 -3 -44 -19 -44 -15 0 -20 -10 -25 -45 -6 -36
-11 -45 -27 -45 -16 0 -19 -7 -19 -45 0 -38 -3 -45 -19 -45 -15 0 -20 -10 -26
-50 -6 -40 -11 -50 -26 -50 -16 0 -19 -7 -19 -45 0 -41 -2 -45 -25 -45 -23 0
-25 -4 -25 -45 0 -37 -3 -45 -19 -45 -15 0 -20 -10 -25 -45 -6 -36 -11 -45
-27 -45 -15 0 -19 -7 -20 -35 -2 -58 -3 -60 -26 -63 -20 -3 -23 -9 -23 -48 0
-36 -3 -44 -19 -44 -15 0 -20 -10 -25 -45 -6 -36 -11 -45 -27 -45 -16 0 -19
-7 -19 -45 l0 -45 -45 0 -45 0 0 45 c0 38 -3 45 -19 45 -16 0 -21 9 -27 45 -5
34 -11 45 -25 45 -13 0 -19 11 -25 45 -5 35 -10 45 -25 45 -16 0 -19 8 -19 46
0 37 -4 47 -20 51 -14 4 -21 17 -26 49 -5 34 -11 44 -25 44 -16 0 -19 8 -19
45 0 38 -3 45 -19 45 -16 0 -21 9 -27 45 -5 34 -11 45 -24 45 -14 0 -20 11
-25 50 -5 39 -11 50 -25 50 -15 0 -19 9 -22 43 -2 35 -7 43 -25 45 -20 3 -23
9 -23 48 0 37 -3 44 -19 44 -16 0 -21 9 -27 45 -5 35 -10 45 -25 45 -16 0 -19
8 -19 45 0 38 -3 45 -19 45 -15 0 -20 10 -26 50 -6 40 -11 50 -26 50 -16 0
-19 7 -19 45 0 41 -2 45 -25 45 -23 0 -25 4 -25 44 0 39 -3 45 -22 48 -23 3
-25 6 -27 58 -1 23 -6 30 -21 30 -16 0 -20 7 -22 33 0 17 -1 39 -2 47 -1 8
-11 16 -23 18 -20 3 -23 9 -23 48 0 36 -3 44 -19 44 -15 0 -20 10 -25 45 -6
36 -11 45 -27 45 -16 0 -19 7 -19 45 0 38 -3 45 -19 45 -15 0 -20 10 -26 50
-6 40 -11 50 -26 50 -16 0 -19 7 -19 45 0 41 -2 45 -25 45 -23 0 -25 4 -25 45
0 41 -2 45 -25 45 -23 0 -25 4 -25 45 0 38 -3 45 -19 45 -15 0 -20 10 -26 50
-6 40 -11 50 -26 50 -16 0 -19 7 -19 45 0 37 -3 45 -19 45 -15 0 -20 10 -25
45 -6 36 -11 45 -27 45 -16 0 -19 7 -19 50 0 43 -3 50 -19 50 -16 0 -21 9 -27
45 -5 34 -11 45 -24 45 -13 0 -19 11 -24 45 -6 36 -11 45 -27 45 -16 0 -19 7
-19 45 0 41 -2 45 -25 45 -23 0 -25 3 -25 50 0 42 -3 50 -19 50 -15 0 -20 10
-25 45 -6 36 -11 45 -27 45 -16 0 -19 7 -19 45 0 37 -3 45 -19 45 -15 0 -20
10 -25 45 -6 35 -11 45 -26 45 -15 0 -19 9 -22 48 -3 40 -6 47 -25 50 -20 3
-23 9 -23 47 0 38 -3 44 -22 47 -23 3 -25 6 -27 58 -1 23 -6 30 -21 30 -17 0
-20 7 -20 44 0 39 -3 45 -22 48 -19 2 -24 10 -26 46 -2 33 -7 42 -21 42 -14 0
-20 11 -25 50 -5 41 -10 50 -26 50 -17 0 -20 7 -20 45 0 37 -3 45 -19 45 -15
0 -20 10 -25 45 -6 35 -11 45 -26 45 -15 0 -19 9 -22 48 -2 28 -8 47 -15 48
-7 1 -17 2 -22 3 -6 0 -11 20 -13 44 -2 35 -7 43 -25 45 -20 3 -23 9 -23 48 0
37 -3 44 -20 44 -17 0 -20 7 -20 44 0 39 -3 45 -22 48 -19 2 -24 10 -26 46 -3
33 -7 42 -22 42 -14 0 -20 11 -25 50 -6 40 -11 50 -26 50 -16 0 -19 7 -19 44
0 39 -3 45 -22 48 -19 2 -24 10 -26 46 -2 33 -7 42 -21 42 -14 0 -20 11 -25
45 -6 36 -11 45 -27 45 -16 0 -19 7 -19 50 0 47 -2 50 -25 50 -23 0 -25 4 -25
45 0 37 -3 45 -19 45 -15 0 -20 10 -25 45 -6 36 -11 45 -27 45 -16 0 -19 7
-19 45 0 37 -3 45 -19 45 -15 0 -20 10 -25 50 -5 41 -10 50 -26 50 -16 0 -20
7 -21 33 -1 17 -1 38 0 45 1 7 -9 12 -24 12 -23 0 -25 3 -25 45 0 38 -3 45
-19 45 -15 0 -20 10 -26 50 -6 40 -11 50 -26 50 -16 0 -19 7 -19 45 0 38 -3
45 -19 45 -16 0 -21 9 -27 45 -5 35 -10 45 -25 45 -16 0 -19 8 -19 45 0 41 -2
45 -25 45 -23 0 -25 4 -25 46 0 37 -4 47 -19 51 -11 3 -21 15 -23 27 -2 13
-11 22 -25 24 -19 3 -23 10 -23 36 0 62 -11 96 -31 96 -16 0 -19 8 -19 45 0
38 -3 45 -19 45 -15 0 -20 10 -26 50 -6 40 -11 50 -26 50 -14 0 -19 7 -19 25
0 18 -5 25 -20 25 -13 0 -20 7 -21 20 -1 11 -3 25 -4 30 -1 6 -3 17 -4 25 0 8
-10 15 -21 15 -17 0 -20 7 -20 50 0 43 -3 50 -19 50 -16 0 -21 9 -27 45 -5 34
-11 45 -25 45 -13 0 -19 11 -25 45 -5 35 -10 45 -25 45 -15 0 -19 7 -19 34 0
62 -11 96 -31 96 -14 0 -19 7 -19 30 0 23 -4 30 -20 30 -17 0 -20 7 -20 41 0
32 -4 42 -19 46 -20 5 -31 30 -31 71 0 15 -6 22 -19 22 -16 0 -21 9 -27 45 -5
35 -10 45 -25 45 -16 0 -19 8 -19 44 0 39 -3 45 -22 48 -19 2 -24 10 -26 47
-2 32 -8 44 -22 48 -19 5 -30 31 -30 71 0 15 -6 22 -20 22 -17 0 -20 7 -20 45
0 38 -3 45 -19 45 -16 0 -21 9 -27 45 -5 35 -10 45 -25 45 -16 0 -19 8 -19 44
0 39 -3 45 -22 48 -20 3 -23 10 -26 51 -3 38 -7 47 -22 47 -15 0 -20 10 -26
45 -5 35 -10 45 -25 45 -16 0 -19 8 -19 45 0 41 -2 45 -25 45 -23 0 -25 4 -25
46 0 37 -4 47 -20 51 -14 4 -21 17 -26 49 -5 34 -11 44 -25 44 -16 0 -19 8
-19 45 0 38 -3 45 -19 45 -16 0 -21 9 -27 45 -5 34 -11 45 -25 45 -14 0 -18 9
-21 48 -2 28 -8 47 -15 48 -7 1 -17 2 -23 3 -5 0 -10 21 -10 46 0 41 -2 45
-24 45 -16 0 -23 6 -23 18 0 60 -4 72 -22 72 -15 0 -20 10 -25 45 -6 36 -11
45 -27 45 -16 0 -19 7 -19 50 0 43 -3 50 -19 50 -16 0 -21 9 -27 45 -5 35 -10
45 -25 45 -16 0 -19 8 -19 45 0 41 -2 45 -25 45 -23 0 -25 4 -25 45 0 38 -3
45 -20 45 -15 0 -20 7 -21 30 -1 17 -3 35 -4 40 -1 6 -3 15 -4 20 0 6 -10 10
-21 10 -17 0 -20 7 -20 45 0 41 -2 45 -25 45 -23 0 -25 4 -25 45 0 38 -3 45
-19 45 -16 0 -21 9 -27 45 -5 35 -10 45 -25 45 -16 0 -19 8 -19 50 0 43 -3 50
-19 50 -16 0 -21 9 -27 45 -5 35 -10 45 -25 45 -16 0 -19 8 -19 45 0 41 -2 45
-25 45 -23 0 -25 4 -25 45 0 38 -3 45 -19 45 -15 0 -20 10 -26 50 -5 39 -11
50 -25 50 -15 0 -19 9 -22 43 -2 35 -7 43 -25 45 -20 3 -23 9 -23 48 0 36 -3
44 -19 44 -15 0 -20 10 -25 45 -6 36 -11 45 -27 45 -16 0 -19 7 -19 50 0 43
-3 50 -19 50 -16 0 -21 9 -27 45 -5 35 -10 45 -25 45 -16 0 -19 8 -19 45 0 41
-2 45 -25 45 -23 0 -25 4 -25 44 0 39 -3 45 -22 48 -19 2 -24 10 -26 46 -3 34
-7 42 -23 42 -15 0 -19 7 -20 35 -2 58 -3 60 -26 63 -20 3 -23 9 -23 48 0 36
-3 44 -19 44 -15 0 -20 10 -25 45 -6 36 -11 45 -27 45 -16 0 -19 7 -19 44 0
39 -3 45 -22 48 -24 3 -25 5 -27 63 -1 27 -5 35 -20 35 -15 0 -20 10 -25 45
-6 36 -11 45 -27 45 -16 0 -19 7 -19 45 0 41 -2 45 -25 45 -23 0 -25 4 -25 45
0 37 -3 45 -19 45 -15 0 -20 10 -25 50 -5 41 -10 50 -26 50 -17 0 -20 7 -20
45 0 37 -3 45 -19 45 -15 0 -20 10 -25 45 -6 35 -11 45 -26 45 -15 0 -19 9
-22 48 -3 39 -6 47 -23 47 -17 0 -20 8 -23 48 -3 38 -7 47 -22 47 -15 0 -20
10 -26 45 -5 34 -11 45 -24 45 -13 0 -19 11 -24 44 -5 32 -12 45 -26 49 -16 4
-20 14 -20 51 0 38 -3 46 -19 46 -15 0 -20 10 -25 45 -6 36 -11 45 -27 45 -16
0 -19 7 -19 45 0 37 -3 45 -19 45 -15 0 -20 10 -25 45 -6 36 -11 45 -27 45
-15 0 -19 8 -21 33 0 17 -1 39 -2 47 -1 8 -11 16 -23 18 -20 3 -23 9 -23 47 0
38 -3 44 -22 47 -23 3 -25 6 -27 58 -1 23 -6 30 -21 30 -14 0 -20 7 -20 23 0
40 -11 65 -31 70 -13 3 -19 14 -19 31 0 19 -5 26 -20 26 -16 0 -20 7 -20 38 0
54 -9 80 -31 85 -13 3 -19 14 -19 31 0 19 -5 26 -20 26 -17 0 -20 7 -20 46 0
37 -4 47 -20 51 -13 4 -22 18 -27 47 -7 32 -14 42 -31 44 -20 3 -22 9 -22 68
0 61 -1 64 -24 64 -19 0 -25 6 -28 28 -2 16 -9 27 -18 27 -9 0 -16 11 -18 30
-6 72 -13 93 -32 98 -14 3 -20 14 -20 31 0 19 -5 26 -20 26 -17 0 -20 7 -20
45 0 38 -3 45 -19 45 -16 0 -21 9 -27 45 -5 34 -11 45 -24 45 -14 0 -20 11
-25 50 -6 40 -11 50 -26 50 -16 0 -19 7 -19 40 0 36 -2 40 -25 40 -23 0 -25 3
-25 50 0 42 -3 50 -19 50 -15 0 -20 10 -25 45 -6 36 -11 45 -27 45 -17 0 -19
7 -19 64 0 59 -2 65 -22 68 -17 2 -24 12 -28 33 -3 17 -9 29 -13 28 -21 -8
-27 1 -27 42 0 41 -2 45 -25 45 -23 0 -25 4 -25 45 0 38 -3 45 -19 45 -16 0
-21 9 -27 45 -5 34 -11 45 -25 45 -14 0 -18 9 -21 48 -3 40 -6 47 -25 50 -20
3 -23 9 -23 48 0 37 -3 44 -19 44 -16 0 -20 8 -23 43 -2 35 -7 43 -25 45 -20
3 -23 9 -23 48 0 37 -3 44 -19 44 -15 0 -20 10 -26 50 -5 39 -11 50 -25 50
-13 0 -19 11 -24 45 -6 36 -11 45 -27 45 -16 0 -19 7 -19 45 0 41 -2 45 -25
45 -23 0 -25 4 -25 45 0 38 -3 45 -19 45 -17 0 -20 8 -23 48 -3 40 -6 47 -25
50 -15 2 -23 10 -23 23 0 19 -32 19 -2080 19 -2073 0 -2080 0 -2080 -20 0 -13
7 -20 20 -20 17 0 20 -7 20 -50 0 -47 2 -50 25 -50 23 0 25 -4 25 -45 0 -37 3
-45 19 -45 15 0 20 -10 25 -45 6 -36 11 -45 27 -45 16 0 19 -7 19 -44 0 -39 3
-45 23 -48 19 -3 22 -10 25 -50 3 -40 6 -48 23 -48 16 0 19 -7 19 -45 0 -41 2
-45 25 -45 23 0 25 -4 25 -45 0 -37 3 -45 19 -45 15 0 20 -10 25 -45 6 -36 11
-45 27 -45 16 0 19 -7 19 -50 0 -47 2 -50 25 -50 23 0 25 -4 25 -44 0 -39 3
-45 23 -48 12 -2 22 -10 23 -18 1 -8 2 -27 2 -42 2 -21 7 -28 22 -28 16 0 20
-7 21 -37 1 -21 1 -41 1 -44 -1 -4 10 -10 23 -13 18 -5 25 -13 25 -31 0 -18 5
-25 20 -25 18 0 20 -7 20 -65 0 -63 1 -65 25 -65 23 0 25 -4 25 -45 0 -38 3
-45 19 -45 15 0 20 -10 26 -50 5 -39 11 -50 25 -50 13 0 19 -11 24 -45 6 -36
11 -45 27 -45 16 0 19 -7 19 -45 0 -38 3 -45 19 -45 16 0 21 -9 27 -45 5 -35
10 -45 25 -45 16 0 19 -8 19 -45 0 -38 3 -45 20 -45 19 0 22 -5 24 -40 1 -8
11 -16 24 -18 19 -3 22 -9 22 -48 0 -37 3 -44 19 -44 16 0 21 -9 27 -45 5 -34
11 -45 24 -45 18 0 30 -41 30 -102 0 -21 5 -28 20 -28 15 0 20 -7 20 -26 0
-17 6 -28 19 -31 20 -5 31 -30 31 -70 0 -16 6 -23 20 -23 17 0 20 -7 20 -46 0
-37 4 -47 19 -51 20 -5 31 -30 31 -70 0 -16 6 -23 19 -23 16 0 21 -9 27 -45 5
-35 10 -45 25 -45 16 0 19 -8 19 -45 0 -41 2 -45 25 -45 23 0 25 -4 25 -45 0
-41 2 -45 24 -45 13 0 24 -6 23 -12 -2 -58 4 -78 23 -78 17 0 20 -7 20 -46 0
-37 4 -47 20 -51 14 -4 21 -17 26 -49 5 -34 11 -44 25 -44 16 0 19 -8 19 -45
0 -41 2 -45 25 -45 23 0 25 -4 25 -45 0 -38 3 -45 19 -45 15 0 20 -10 26 -50
5 -39 11 -50 25 -50 15 0 19 -9 22 -42 2 -36 7 -44 26 -46 19 -3 22 -9 22 -48
0 -40 2 -44 25 -44 23 0 25 -4 25 -45 0 -38 3 -45 20 -45 17 0 20 -7 20 -50 0
-43 3 -50 19 -50 16 0 21 -9 27 -45 5 -35 10 -45 25 -45 16 0 19 -8 19 -45 0
-41 2 -45 24 -45 23 0 25 -5 28 -47 2 -29 8 -48 16 -49 6 -1 17 -2 22 -3 6 0
10 -21 10 -46 0 -38 3 -45 19 -45 16 0 21 -9 27 -45 5 -35 10 -45 25 -45 16 0
19 -8 19 -45 0 -38 3 -45 20 -45 16 0 21 -9 26 -50 5 -39 10 -50 23 -48 12 2
17 -7 19 -44 3 -39 6 -47 25 -50 18 -2 23 -10 25 -45 2 -34 7 -43 21 -43 14 0
20 -11 25 -45 6 -35 11 -45 26 -45 15 0 19 -9 22 -47 3 -41 6 -48 25 -51 20
-3 23 -9 23 -48 0 -37 3 -44 19 -44 16 0 21 -9 27 -45 5 -35 10 -45 25 -45 16
0 19 -8 19 -44 0 -38 3 -45 22 -48 17 -2 23 -11 25 -38 5 -48 10 -61 25 -58 9
2 15 -13 18 -42 4 -37 9 -46 28 -48 19 -3 22 -9 22 -48 0 -37 3 -44 19 -44 16
0 21 -9 27 -45 5 -35 10 -45 25 -45 16 0 19 -8 19 -45 0 -41 2 -45 25 -45 23
0 25 -3 25 -50 0 -43 3 -50 19 -50 16 0 21 -9 27 -45 5 -35 10 -45 25 -45 16
0 19 -8 19 -45 0 -38 3 -45 20 -45 11 0 21 -4 21 -10 1 -5 3 -14 4 -20 1 -5 3
-21 4 -35 1 -18 7 -25 20 -25 17 0 20 -8 23 -47 3 -41 6 -48 26 -51 19 -3 22
-9 22 -48 0 -40 2 -44 25 -44 23 0 25 -4 25 -45 0 -37 3 -45 19 -45 15 0 20
-10 25 -45 6 -36 11 -45 27 -45 16 0 19 -7 19 -50 0 -42 3 -50 19 -50 15 0 20
-10 25 -45 6 -36 11 -45 27 -45 16 0 19 -7 19 -45 0 -41 2 -45 25 -45 23 0 25
-4 25 -45 0 -38 3 -45 19 -45 15 0 20 -10 26 -50 6 -40 11 -50 26 -50 16 0 19
-7 19 -45 0 -41 2 -45 25 -45 23 0 25 -4 25 -45 0 -37 3 -45 19 -45 14 0 20
-10 25 -44 5 -32 12 -45 26 -49 16 -4 20 -14 20 -51 0 -39 3 -46 19 -46 16 0
21 -9 27 -45 5 -35 10 -45 25 -45 16 0 19 -8 19 -45 0 -41 2 -45 25 -45 23 0
25 -4 25 -45 0 -41 6 -50 32 -46 3 0 9 -22 13 -49 5 -39 11 -50 25 -50 13 0
19 -11 24 -45 6 -36 11 -45 27 -45 16 0 19 -7 19 -45 0 -37 3 -45 19 -45 15 0
20 -10 25 -50 5 -41 10 -50 26 -50 17 0 20 -7 20 -45 0 -38 3 -45 19 -45 16 0
21 -9 27 -45 5 -35 10 -45 25 -45 14 0 19 -8 21 -27 0 -16 1 -35 2 -43 1 -8
11 -16 23 -18 20 -3 23 -9 23 -47 0 -38 3 -44 23 -47 18 -2 23 -10 25 -45 3
-35 7 -43 23 -43 15 0 19 -7 20 -35 2 -58 3 -60 27 -63 19 -3 22 -9 22 -48 0
-37 3 -44 20 -44 19 0 25 -20 23 -77 -1 -7 10 -13 23 -13 22 0 24 -4 24 -50 0
-47 2 -50 25 -50 23 0 25 -4 25 -45 0 -37 3 -45 19 -45 15 0 20 -10 25 -45 6
-36 11 -45 27 -45 13 0 19 -7 19 -22 0 -41 11 -66 31 -71 15 -4 19 -14 19 -46
0 -33 3 -41 19 -41 15 0 20 -10 25 -50 5 -41 10 -50 26 -50 17 0 20 -7 20 -45
0 -37 3 -45 19 -45 15 0 20 -10 25 -45 6 -36 11 -45 27 -45 14 0 19 -7 20 -30
1 -16 3 -34 4 -40 1 -5 3 -14 4 -20 0 -5 10 -10 21 -10 15 0 20 -7 20 -25 0
-18 5 -25 20 -25 16 0 20 -7 20 -34 0 -61 11 -96 31 -96 12 0 19 -9 21 -27 2
-19 9 -28 20 -27 12 1 18 -10 23 -47 6 -39 11 -49 26 -49 16 0 19 -7 19 -45 0
-38 3 -45 19 -45 16 0 21 -9 27 -45 5 -34 11 -45 25 -45 14 0 18 -9 21 -47 3
-41 6 -48 26 -51 19 -3 22 -9 22 -48 0 -40 2 -44 25 -44 23 0 25 -4 25 -45 0
-37 3 -45 19 -45 15 0 20 -10 25 -45 5 -29 12 -45 21 -45 10 0 17 -17 21 -50
5 -39 11 -50 25 -50 14 0 19 -9 21 -42 2 -36 7 -44 26 -46 19 -3 22 -9 22 -48
0 -37 3 -44 19 -44 16 0 21 -9 27 -45 5 -34 11 -45 24 -45 14 0 20 -11 25 -50
6 -40 11 -50 26 -50 16 0 19 -7 19 -45 0 -41 2 -45 25 -45 23 0 25 -4 25 -45
0 -38 3 -45 20 -45 17 0 20 -7 20 -40 0 -34 4 -42 25 -50 22 -8 25 -16 25 -55
0 -38 3 -45 19 -45 16 0 21 -9 27 -45 5 -35 10 -45 25 -45 16 0 19 -8 19 -45
0 -41 2 -45 25 -45 23 0 25 -4 25 -45 0 -38 3 -45 19 -45 15 0 20 -10 26 -50
6 -40 11 -50 26 -50 16 0 19 -7 19 -41 0 -32 4 -42 20 -46 14 -4 21 -17 26
-49 5 -34 11 -44 25 -44 16 0 19 -8 19 -44 0 -39 3 -45 23 -48 19 -3 22 -10
25 -50 3 -39 7 -48 22 -48 15 0 20 -10 26 -45 5 -35 10 -45 25 -45 16 0 19 -8
19 -45 0 -41 2 -45 25 -45 23 0 25 -4 25 -45 0 -38 3 -45 19 -45 16 0 21 -9
27 -45 5 -35 10 -45 25 -45 16 0 19 -8 19 -46 0 -37 4 -47 20 -51 14 -4 21
-17 26 -49 5 -34 11 -44 25 -44 16 0 19 -8 19 -45 0 -41 2 -45 25 -45 23 0 25
-4 25 -45 0 -38 3 -45 20 -45 11 0 21 -4 21 -10 1 -5 3 -14 4 -20 1 -5 3 -23
4 -40 1 -22 6 -30 20 -30 15 0 20 -10 25 -45 6 -36 11 -45 27 -45 16 0 19 -7
19 -45 0 -38 3 -45 19 -45 16 0 21 -9 27 -45 5 -35 10 -45 25 -45 16 0 19 -8
19 -50 0 -47 2 -50 25 -50 23 0 25 -4 25 -45 0 -37 3 -45 19 -45 15 0 20 -10
25 -45 6 -35 11 -45 26 -45 15 0 19 -9 22 -47 3 -41 6 -48 26 -51 19 -3 22 -9
22 -48 0 -36 3 -44 19 -44 15 0 20 -10 25 -45 6 -36 11 -45 27 -45 16 0 19 -7
19 -45 0 -38 3 -45 19 -45 15 0 20 -10 26 -50 6 -40 11 -50 26 -50 16 0 19 -7
19 -45 0 -41 2 -45 25 -45 23 0 25 -4 25 -45 0 -37 3 -45 19 -45 15 0 20 -10
25 -45 6 -34 12 -45 25 -45 14 0 20 -11 25 -50 5 -41 10 -50 26 -50 17 0 20
-7 20 -45 0 -38 3 -45 19 -45 16 0 21 -9 27 -45 5 -35 10 -45 25 -45 16 0 19
-8 19 -45 0 -38 3 -45 19 -45 15 0 20 -10 26 -50 5 -39 11 -50 25 -50 15 0 19
-9 22 -42 2 -36 7 -44 26 -46 19 -3 22 -9 22 -48 0 -40 2 -44 25 -44 23 0 25
-4 25 -45 0 -37 3 -45 19 -45 15 0 20 -10 25 -45 6 -36 11 -45 27 -45 16 0 19
-7 19 -50 0 -42 3 -50 19 -50 15 0 20 -10 25 -45 6 -36 11 -45 27 -45 16 0 19
-7 19 -44 0 -39 3 -45 23 -48 18 -2 23 -10 25 -45 3 -34 7 -43 22 -43 14 0 20
-11 25 -50 6 -40 11 -50 26 -50 14 0 19 -8 20 -30 2 -52 4 -55 27 -58 19 -3
22 -9 22 -48 0 -37 3 -44 20 -44 15 0 20 -7 20 -25 0 -18 5 -25 19 -25 19 0
31 -39 31 -107 0 -26 4 -33 19 -33 15 0 20 -10 25 -45 6 -36 11 -45 27 -45 16
0 19 -7 19 -44 0 -39 3 -45 23 -48 18 -2 23 -10 25 -42 2 -27 9 -40 22 -43 11
-3 20 -16 22 -32 2 -18 10 -27 26 -29 15 -2 22 -9 21 -20 -2 -9 1 -38 5 -64 6
-38 11 -48 27 -48 16 0 19 -7 19 -45 0 -38 3 -45 20 -45 15 0 20 -7 20 -26 0
-17 6 -28 19 -31 20 -5 31 -41 31 -99 0 -27 4 -34 19 -34 15 0 20 -10 25 -45
6 -34 12 -45 25 -45 14 0 20 -11 25 -45 6 -36 11 -45 27 -45 14 0 19 -7 19
-30 0 -23 4 -30 20 -30 13 0 20 -7 21 -20 1 -11 3 -24 4 -30 1 -5 3 -17 4 -25
0 -8 10 -15 21 -15 17 0 20 -7 20 -45 0 -38 3 -45 19 -45 16 0 21 -9 27 -45 5
-35 10 -45 25 -45 16 0 19 -8 19 -50 0 -43 3 -50 19 -50 16 0 21 -9 27 -45 5
-35 10 -45 25 -45 12 0 19 -8 20 -20 1 -11 3 -24 4 -30 1 -5 3 -17 4 -25 0 -8
10 -15 21 -15 17 0 20 -7 20 -45 0 -39 3 -47 25 -55 14 -5 25 -13 24 -17 -1
-5 -1 -23 0 -40 1 -26 5 -33 20 -33 16 0 21 -9 27 -45 5 -35 10 -45 25 -45 16
0 19 -8 19 -45 0 -38 3 -45 19 -45 15 0 20 -10 26 -50 5 -39 11 -50 25 -50 15
0 19 -9 22 -43 2 -35 7 -43 26 -45 19 -3 22 -9 22 -48 0 -37 3 -44 19 -44 16
0 21 -9 27 -45 5 -35 10 -45 25 -45 16 0 19 -8 19 -45 0 -41 2 -45 25 -45 23
0 25 -4 25 -45 0 -38 3 -45 19 -45 15 0 20 -10 26 -50 6 -40 11 -50 26 -50 16
0 19 -7 19 -45 0 -37 3 -45 18 -45 14 0 21 -11 28 -48 6 -31 14 -47 24 -47 10
0 16 -13 18 -42 3 -38 6 -43 28 -43 22 0 24 -4 24 -50 0 -43 3 -50 19 -50 16
0 21 -9 27 -45 5 -35 10 -45 25 -45 16 0 19 -8 19 -45 0 -41 2 -45 25 -45 23
0 25 -4 25 -45 0 -41 6 -50 31 -47 4 1 9 -21 13 -48 5 -41 10 -50 26 -50 17 0
20 -7 20 -45 0 -38 3 -45 19 -45 16 0 21 -9 27 -45 5 -34 11 -45 25 -45 14 0
18 -9 21 -48 3 -40 6 -47 26 -50 19 -3 22 -9 22 -48 0 -40 2 -44 25 -44 23 0
25 -4 25 -45 0 -38 3 -45 20 -45 17 0 20 -7 20 -45 0 -41 2 -45 25 -45 23 0
25 -3 25 -50 0 -43 3 -50 19 -50 16 0 20 -8 23 -42 2 -36 7 -44 26 -46 14 -2
22 -10 22 -23 0 -19 32 -19 2085 -19 2078 0 2085 0 2085 20 0 13 7 20 20 20
17 0 20 7 20 45 0 41 2 45 25 45 23 0 25 3 25 50 0 47 2 50 25 50 23 0 25 4
25 45 0 37 3 45 19 45 15 0 20 10 25 45 6 36 11 45 27 45 16 0 19 7 19 44 0
39 3 45 23 48 19 3 22 10 25 51 3 39 6 47 23 47 16 0 19 7 19 45 0 41 2 45 25
45 23 0 25 4 25 45 0 38 3 45 19 45 17 0 20 8 23 47 3 41 6 48 25 51 18 3 22
11 25 45 2 35 7 43 26 45 19 3 22 9 22 48 0 37 3 44 19 44 16 0 21 9 27 45 5
35 10 45 25 45 16 0 19 8 19 44 0 35 4 45 19 49 14 3 21 17 26 51 6 36 11 46
26 46 16 0 19 8 19 45 0 41 2 45 25 45 23 0 25 4 25 45 0 37 3 45 19 45 15 0
20 10 25 50 5 40 11 50 25 50 14 0 20 10 25 44 5 33 11 43 24 42 13 -1 18 9
20 47 3 38 7 47 21 47 14 0 20 11 25 45 6 36 11 45 27 45 16 0 19 7 19 45 0
37 3 45 19 45 15 0 20 10 25 45 6 36 11 45 27 45 15 0 19 7 20 33 2 58 4 62
27 65 15 2 22 10 22 25 0 40 12 65 31 70 11 3 19 9 18 14 -1 4 -1 23 0 41 1
24 5 32 20 32 14 0 20 10 25 44 5 32 12 45 26 49 16 4 20 14 20 51 0 38 3 46
19 46 15 0 20 10 25 45 6 36 11 45 27 45 16 0 19 7 19 45 0 38 3 45 19 45 14
0 21 8 23 28 2 19 9 28 26 30 19 3 22 9 22 48 0 37 3 44 19 44 16 0 21 9 27
45 5 34 11 45 24 45 19 0 30 36 30 96 0 27 4 34 20 34 15 0 20 7 20 26 0 17 6
28 20 31 14 4 21 17 26 49 5 34 11 44 25 44 15 0 19 7 19 34 0 62 11 96 31 96
14 0 19 7 19 30 0 23 5 30 19 30 16 0 21 9 27 45 5 35 10 45 25 45 16 0 19 8
19 45 0 41 2 45 25 45 23 0 25 4 25 45 0 38 3 45 20 45 16 0 21 9 26 50 5 40
10 50 25 50 16 0 19 8 19 45 0 38 3 45 19 45 16 0 21 9 27 45 5 35 10 45 25
45 16 0 19 8 19 45 0 41 2 45 25 45 23 0 25 3 25 50 0 43 3 50 19 50 16 0 21
9 27 45 5 34 11 45 25 45 14 0 19 9 21 43 2 35 7 43 26 45 19 3 22 9 22 48 0
37 3 44 19 44 15 0 20 10 26 50 6 40 11 50 26 50 16 0 19 7 19 45 0 38 3 45
19 45 16 0 21 9 27 45 5 35 10 45 25 45 16 0 19 8 19 45 0 41 2 45 24 45 23 0
25 5 28 48 3 40 6 47 26 50 19 3 22 9 22 48 0 37 3 44 19 44 16 0 21 9 27 45
5 35 10 45 25 45 16 0 19 8 19 45 0 37 3 45 19 45 15 0 20 10 25 45 6 36 11
45 27 45 16 0 19 7 19 50 0 47 2 50 25 50 23 0 25 4 25 45 0 37 3 45 19 45 15
0 20 10 25 45 6 36 11 45 27 45 16 0 19 7 19 45 l0 45 44 0 45 0 7 -45 c5 -35
10 -45 25 -45 16 0 19 -8 19 -45 0 -38 3 -45 19 -45 16 0 21 -9 27 -45 5 -34
11 -45 25 -45 14 0 18 -9 21 -47 3 -41 6 -48 26 -51 19 -3 22 -9 22 -48 0 -40
2 -44 25 -44 23 0 25 -4 25 -45 0 -37 3 -45 19 -45 15 0 20 -10 25 -45 6 -36
11 -45 27 -45 16 0 19 -7 19 -45 0 -38 3 -45 19 -45 15 0 20 -10 26 -50 6 -40
11 -50 26 -50 16 0 19 -7 19 -44 0 -39 3 -45 23 -48 18 -2 23 -10 25 -45 2
-34 7 -43 21 -43 14 0 20 -11 25 -45 6 -36 11 -45 27 -45 16 0 19 -7 19 -50 0
-47 2 -50 25 -50 23 0 25 -4 25 -45 0 -37 3 -45 19 -45 15 0 20 -10 25 -45 6
-36 11 -45 27 -45 16 0 19 -7 19 -45 0 -38 3 -45 19 -45 15 0 20 -10 26 -50 6
-40 11 -50 26 -50 16 0 19 -7 19 -44 0 -39 3 -45 23 -48 18 -2 23 -10 25 -45
3 -34 7 -43 22 -43 13 0 20 -8 22 -27 2 -20 9 -29 26 -31 18 -3 22 -10 22 -36
0 -62 11 -96 31 -96 14 0 19 -7 19 -25 0 -18 5 -25 20 -25 17 0 20 -7 20 -45
0 -38 3 -45 20 -45 16 0 21 -9 26 -50 5 -40 10 -50 25 -50 16 0 19 -8 19 -45
0 -38 3 -45 20 -45 11 0 21 -4 21 -10 1 -5 3 -14 4 -20 1 -5 3 -21 4 -35 1
-18 7 -25 20 -25 16 0 21 -9 27 -45 5 -35 10 -45 25 -45 15 0 19 -8 20 -32 2
-59 4 -63 27 -66 19 -3 22 -9 22 -48 0 -37 3 -44 19 -44 16 0 21 -9 27 -45 5
-35 10 -45 25 -45 16 0 19 -8 19 -45 0 -38 3 -45 19 -45 15 0 20 -10 26 -50 6
-40 11 -50 26 -50 14 0 19 -8 20 -30 2 -52 4 -55 27 -58 19 -3 22 -9 22 -48 0
-40 2 -44 25 -44 23 0 25 -4 25 -45 0 -38 3 -45 19 -45 15 0 20 -10 26 -50 6
-40 11 -50 26 -50 16 0 19 -7 19 -45 0 -38 3 -45 19 -45 16 0 21 -9 27 -45 5
-35 10 -45 25 -45 16 0 19 -8 19 -45 0 -37 3 -45 19 -45 20 0 31 -25 31 -72 0
-21 5 -28 19 -28 16 0 21 -9 27 -45 5 -35 10 -45 25 -45 16 0 19 -8 19 -45 0
-41 2 -45 25 -45 23 0 25 -4 25 -45 0 -37 3 -45 19 -45 15 0 20 -10 25 -45 6
-36 11 -45 27 -45 16 0 19 -7 19 -50 0 -43 3 -50 19 -50 16 0 21 -9 27 -45 5
-35 10 -45 25 -45 16 0 19 -8 19 -44 0 -39 3 -45 23 -48 18 -2 23 -10 25 -45
3 -34 7 -42 25 -45 19 -3 22 -10 25 -50 3 -40 6 -48 23 -48 16 0 19 -7 19 -45
0 -41 2 -45 25 -45 23 0 25 -4 25 -45 0 -38 3 -45 20 -45 17 0 20 -7 20 -45 0
-41 2 -45 25 -45 23 0 25 -3 25 -50 0 -43 3 -50 19 -50 16 0 21 -9 27 -45 5
-34 11 -45 24 -45 13 0 19 -11 24 -45 6 -36 11 -45 27 -45 16 0 19 -7 19 -44
0 -39 3 -45 23 -48 19 -3 22 -10 25 -50 3 -40 6 -48 23 -48 18 0 22 -11 22
-73 0 -11 7 -17 23 -17 22 0 24 -4 24 -45 0 -38 3 -45 19 -45 15 0 20 -10 26
-50 6 -40 11 -50 26 -50 16 0 19 -7 19 -45 0 -41 2 -45 25 -45 18 0 25 -5 25
-20 0 -20 7 -20 2080 -20 2073 0 2080 0 2080 20 0 13 -7 20 -20 20 -17 0 -20
7 -20 44 0 39 -3 45 -22 48 -20 3 -23 10 -26 51 -3 38 -7 47 -21 47 -14 0 -20
11 -25 45 -6 36 -11 45 -27 45 -16 0 -19 7 -19 45 0 41 -2 45 -25 45 -23 0
-25 4 -25 45 0 38 -3 45 -19 45 -15 0 -20 10 -26 50 -6 40 -11 50 -26 50 -16
0 -19 7 -19 45 0 38 -3 45 -19 45 -16 0 -21 9 -27 45 -5 34 -11 45 -25 45 -14
0 -18 9 -21 48 -3 39 -6 47 -23 47 -17 0 -20 8 -23 48 -3 38 -7 47 -22 47 -15
0 -20 10 -26 45 -5 35 -10 45 -25 45 -16 0 -19 8 -19 45 0 41 -2 45 -25 45
-23 0 -25 3 -25 50 0 46 -2 50 -24 50 -16 0 -23 6 -23 18 0 61 -3 72 -23 72
-17 0 -20 7 -20 45 0 38 -3 45 -19 45 -16 0 -21 9 -27 45 -5 35 -10 45 -25 45
-16 0 -19 8 -19 50 0 47 -2 50 -25 50 -23 0 -25 4 -25 45 0 38 -3 45 -19 45
-16 0 -21 9 -27 45 -5 34 -11 45 -24 45 -13 0 -19 11 -24 45 -6 36 -11 45 -27
45 -16 0 -19 7 -19 45 0 37 -3 45 -19 45 -15 0 -20 10 -25 45 -6 36 -11 45
-27 45 -16 0 -19 7 -19 49 0 44 -3 50 -22 53 -19 2 -24 10 -26 46 -3 34 -7 42
-23 42 -18 0 -22 11 -22 73 0 11 -7 17 -23 17 -20 0 -24 5 -25 33 -1 17 -1 35
0 40 1 4 -10 12 -24 17 -22 8 -25 16 -25 55 0 37 -3 45 -19 45 -15 0 -20 10
-25 45 -6 36 -11 45 -27 45 -16 0 -19 7 -19 45 0 38 -3 45 -19 45 -15 0 -20
10 -26 50 -6 40 -11 50 -26 50 -16 0 -19 7 -19 44 0 39 -3 45 -22 48 -19 2
-24 10 -26 46 -2 33 -7 42 -21 42 -14 0 -20 11 -25 45 -6 36 -11 45 -27 45
-14 0 -19 7 -19 30 0 23 -5 30 -19 30 -16 0 -21 9 -27 45 -5 35 -10 45 -25 45
-15 0 -19 7 -19 34 0 62 -11 96 -31 96 -16 0 -19 8 -19 50 0 42 -3 50 -19 50
-15 0 -20 10 -25 45 -6 36 -11 45 -27 45 -16 0 -19 7 -19 45 0 41 -2 45 -25
45 -23 0 -25 4 -25 45 0 38 -3 45 -19 45 -15 0 -20 10 -26 50 -6 40 -11 50
-26 50 -14 0 -19 7 -19 25 0 18 -5 25 -19 25 -20 0 -31 34 -31 96 0 27 -4 34
-20 34 -15 0 -20 7 -20 25 0 23 -4 26 -27 24 -12 0 -21 40 -22 94 -1 39 -4 47
-20 47 -16 0 -21 9 -27 45 -5 34 -11 45 -24 45 -13 0 -19 11 -24 45 -6 36 -11
45 -27 45 -16 0 -19 7 -19 44 0 39 -3 45 -22 48 -20 3 -23 10 -26 51 -3 39 -6
47 -23 47 -14 0 -19 7 -19 25 0 18 -5 25 -19 25 -16 0 -21 9 -27 45 -5 35 -10
45 -25 45 -16 0 -19 8 -19 46 0 37 -4 47 -19 51 -19 5 -31 40 -31 94 0 21 -5
28 -22 31 -17 2 -24 11 -26 31 -2 19 -9 27 -23 27 -16 0 -19 7 -19 44 0 39 -3
45 -22 48 -20 3 -23 10 -26 51 -3 38 -7 47 -22 47 -15 0 -20 10 -26 45 -5 35
-10 45 -25 45 -16 0 -19 8 -19 45 0 38 -3 45 -19 45 -16 0 -21 9 -27 45 -5 35
-10 45 -25 45 -16 0 -19 8 -19 46 0 37 -4 47 -19 51 -20 5 -31 30 -31 71 0 15
-6 22 -19 22 -16 0 -21 9 -27 45 -5 35 -10 45 -25 45 -16 0 -19 8 -19 45 0 41
-2 45 -25 45 -23 0 -25 4 -25 45 0 37 -3 45 -19 45 -15 0 -20 10 -25 45 -6 36
-11 45 -27 45 -16 0 -19 7 -19 50 0 43 -3 50 -19 50 -16 0 -21 9 -27 45 -5 35
-10 45 -25 45 -16 0 -19 8 -19 45 0 41 -2 45 -25 45 -23 0 -25 4 -25 45 0 38
-4 47 -22 54 -13 5 -23 14 -24 22 0 8 -2 26 -2 42 -2 20 -7 27 -22 27 -17 0
-20 7 -20 45 0 41 -2 45 -25 45 -23 0 -25 4 -25 45 0 38 -3 45 -19 45 -15 0
-20 10 -26 50 -6 40 -11 50 -26 50 -16 0 -19 7 -19 45 0 38 -3 45 -19 45 -16
0 -21 9 -27 45 -5 34 -11 45 -24 45 -13 0 -19 11 -24 45 -6 36 -11 45 -27 45
-16 0 -19 7 -19 50 0 47 -2 50 -25 50 -23 0 -25 4 -25 45 0 38 -3 45 -19 45
-16 0 -20 8 -23 43 -2 35 -7 43 -25 45 -20 3 -23 9 -23 48 0 36 -3 44 -19 44
-15 0 -20 10 -25 50 -5 41 -10 50 -26 50 -17 0 -20 7 -20 45 0 41 -2 45 -25
45 -23 0 -25 4 -25 45 0 37 -3 45 -19 45 -15 0 -20 10 -25 45 -6 35 -11 45
-26 45 -15 0 -19 9 -22 48 -3 40 -6 47 -25 50 -20 3 -23 9 -23 48 0 37 -3 44
-20 44 -17 0 -20 7 -20 45 0 41 -2 45 -25 45 -23 0 -25 4 -25 45 0 37 -3 45
-19 45 -14 0 -20 10 -25 44 -5 31 -12 45 -26 49 -14 4 -20 16 -22 48 -2 37 -7
45 -25 47 -20 3 -23 9 -23 48 0 36 -3 44 -19 44 -15 0 -20 10 -25 45 -6 36
-11 45 -27 45 -16 0 -19 7 -19 44 0 39 -3 45 -22 48 -20 3 -23 10 -26 51 -3
39 -6 47 -23 47 -16 0 -19 7 -19 45 0 41 -2 45 -25 45 -23 0 -25 4 -25 44 0
39 -3 45 -22 48 -19 2 -24 10 -26 46 -3 33 -7 42 -22 42 -14 0 -20 11 -25 50
-6 40 -11 50 -26 50 -16 0 -19 7 -19 44 0 39 -3 45 -22 48 -19 2 -24 10 -26
46 -3 34 -7 42 -23 42 -16 0 -19 7 -19 44 0 39 -3 45 -22 48 -20 3 -23 10 -26
51 -3 39 -6 47 -23 47 -16 0 -19 7 -19 45 0 41 -2 45 -25 45 -23 0 -25 4 -25
45 0 41 -2 45 -25 45 -23 0 -25 4 -25 45 0 41 -6 50 -31 47 -4 -1 -9 21 -13
48 -5 41 -10 50 -26 50 -17 0 -20 7 -20 45 0 41 2 45 25 45 20 0 25 5 25 25 0
18 5 25 20 25 17 0 20 7 20 43 0 59 9 84 31 90 13 3 19 14 19 31 0 19 5 26 19
26 16 0 21 9 27 45 5 35 10 45 25 45 16 0 19 8 19 45 0 38 3 45 20 45 16 0 21
9 26 50 5 39 11 50 25 50 14 0 19 9 21 43 2 35 7 43 26 45 19 3 22 9 22 48 0
37 3 44 19 44 16 0 21 9 27 45 5 34 11 45 25 45 14 0 18 9 21 48 3 40 6 47 25
50 18 3 22 11 25 45 2 35 7 43 26 45 12 2 22 9 21 15 -1 7 -1 27 0 45 1 25 5
32 21 32 17 0 20 7 20 44 0 39 3 45 23 48 19 3 22 10 25 51 3 39 6 47 23 47
12 0 19 7 20 20 1 11 2 30 3 43 1 15 8 23 24 25 19 3 22 9 22 48 0 37 3 44 19
44 16 0 21 9 27 45 5 34 11 45 24 45 13 0 19 11 24 45 6 35 11 45 26 45 15 0
19 9 22 48 3 40 6 47 26 50 19 3 22 9 22 48 0 37 3 44 20 44 17 0 20 7 20 44
0 39 3 45 23 48 18 2 23 10 25 46 3 33 7 42 22 42 14 0 20 11 25 50 6 40 11
50 26 50 16 0 19 7 19 45 0 41 2 45 25 45 23 0 25 4 25 45 0 38 3 45 19 45 16
0 21 9 27 45 5 35 10 45 25 45 16 0 19 8 19 50 0 43 3 50 19 50 16 0 21 9 27
45 5 35 10 45 25 45 16 0 19 8 19 45 0 41 2 45 25 45 23 0 25 4 25 45 0 38 3
45 19 45 15 0 20 10 26 50 5 39 11 50 25 50 15 0 19 9 22 43 2 35 7 43 26 45
19 3 22 9 22 48 0 37 3 44 20 44 16 0 21 9 26 50 4 27 9 49 13 48 25 -3 31 6
31 47 0 41 2 45 25 45 23 0 25 4 25 45 0 38 3 45 20 45 17 0 20 7 20 45 0 41
2 45 25 45 23 0 25 3 25 50 0 47 2 50 25 50 23 0 25 4 25 45 0 37 3 45 19 45
15 0 20 10 25 45 6 36 11 45 27 45 16 0 19 7 19 45 0 38 3 45 19 45 15 0 20
10 26 50 6 40 11 50 26 50 16 0 19 7 19 45 0 41 2 45 25 45 23 0 25 4 25 45 0
37 3 45 19 45 15 0 20 10 25 45 6 35 11 45 26 45 15 0 19 9 22 48 3 40 6 47
26 50 19 3 22 9 22 48 0 37 3 44 19 44 16 0 21 9 27 45 5 35 10 45 25 45 16 0
19 8 19 45 0 37 3 45 19 45 15 0 20 10 25 45 6 36 11 45 27 45 16 0 19 7 19
50 0 47 2 50 25 50 23 0 25 4 25 45 0 37 3 45 19 45 15 0 20 10 25 45 6 34 12
45 25 45 14 0 20 11 25 45 6 36 11 45 27 45 16 0 19 7 19 50 0 42 3 50 19 50
15 0 20 10 25 45 6 36 11 45 27 45 16 0 19 7 19 45 0 37 3 45 19 45 15 0 20
10 25 45 6 36 11 45 27 45 16 0 19 7 19 50 0 47 2 50 25 50 23 0 25 4 25 44 0
39 3 45 23 48 18 2 23 10 25 46 3 42 3 42 42 42 38 0 39 -1 46 -45 5 -35 10
-45 25 -45 16 0 19 -8 19 -45 0 -41 2 -45 25 -45 23 0 25 -3 25 -50 0 -43 3
-50 19 -50 16 0 21 -9 27 -45 5 -35 10 -45 25 -45 16 0 19 -8 19 -45 0 -41 2
-45 25 -45 23 0 25 -4 25 -44 0 -39 3 -45 23 -48 19 -3 22 -10 25 -50 3 -40 6
-48 23 -48 16 0 19 -7 19 -41 0 -32 4 -42 20 -46 14 -4 21 -17 26 -49 5 -34
11 -44 25 -44 16 0 19 -8 19 -45 0 -41 2 -45 25 -45 23 0 25 -3 25 -50 0 -43
3 -50 19 -50 16 0 21 -9 27 -45 5 -34 11 -45 25 -45 13 0 19 -11 25 -45 5 -35
10 -45 25 -45 16 0 19 -8 19 -45 0 -38 3 -45 19 -45 16 0 21 -9 27 -45 5 -34
11 -45 25 -45 14 0 18 -9 21 -47 3 -41 6 -48 26 -51 19 -3 22 -9 22 -48 0 -37
3 -44 20 -44 17 0 20 -7 20 -45 0 -41 2 -45 25 -45 23 0 25 -4 25 -44 0 -39 3
-45 23 -48 19 -3 22 -10 25 -50 3 -39 7 -48 21 -48 14 0 20 -11 25 -45 6 -36
11 -45 27 -45 16 0 19 -7 19 -45 0 -37 3 -45 19 -45 15 0 20 -10 25 -45 6 -36
11 -45 27 -45 16 0 19 -7 19 -50 0 -47 2 -50 25 -50 23 0 25 -4 25 -45 0 -37
3 -45 19 -45 15 0 20 -10 25 -45 6 -36 11 -45 27 -45 16 0 19 -7 19 -45 0 -41
2 -45 25 -45 23 0 25 -3 25 -50 0 -43 3 -50 19 -50 16 0 21 -9 27 -45 5 -35
10 -45 25 -45 16 0 19 -8 19 -45 0 -37 3 -45 19 -45 15 0 20 -10 25 -45 6 -36
11 -45 27 -45 16 0 19 -7 19 -50 0 -47 2 -50 25 -50 23 0 25 -4 25 -44 0 -39
3 -45 23 -48 12 -2 22 -10 23 -18 1 -8 2 -27 2 -42 2 -20 7 -28 21 -28 15 0
20 -10 25 -44 5 -32 13 -47 27 -51 15 -5 19 -16 19 -51 0 -37 3 -44 19 -44 16
0 21 -9 27 -45 5 -35 10 -45 25 -45 16 0 19 -8 19 -44 0 -39 3 -45 23 -48 12
-2 22 -10 23 -18 1 -8 2 -30 2 -47 2 -25 7 -33 21 -33 15 0 20 -10 25 -45 4
-24 10 -44 14 -44 26 4 32 -4 32 -46 0 -41 2 -45 25 -45 23 0 25 -4 25 -45 0
-38 3 -45 20 -45 14 0 20 -7 20 -22 0 -41 11 -66 31 -71 15 -4 19 -14 19 -51
0 -38 3 -46 19 -46 15 0 20 -10 25 -45 6 -36 11 -45 27 -45 16 0 19 -7 19 -44
0 -39 3 -45 23 -48 18 -2 23 -10 25 -45 2 -34 7 -43 21 -43 14 0 20 -11 25
-45 6 -34 12 -45 25 -45 14 0 20 -11 25 -50 5 -41 10 -50 26 -50 17 0 20 -7
20 -45 0 -37 3 -45 19 -45 14 0 20 -10 25 -44 5 -32 12 -45 26 -49 16 -4 20
-14 20 -51 0 -39 3 -46 20 -46 15 0 20 -7 20 -25 0 -18 5 -25 19 -25 20 0 31
-34 31 -96 0 -30 3 -34 25 -34 23 0 25 -4 25 -45 0 -38 3 -45 19 -45 14 0 21
-8 23 -27 2 -20 9 -29 26 -31 19 -3 22 -9 22 -48 0 -37 3 -44 19 -44 16 0 21
-9 27 -45 5 -35 10 -45 25 -45 16 0 19 -8 19 -45 0 -38 3 -45 19 -45 15 0 20
-10 26 -50 6 -40 11 -50 26 -50 16 0 19 -7 19 -45 l0 -45 50 0 50 0 0 45 c0
38 3 45 19 45 15 0 20 10 26 50 6 40 11 50 26 50 16 0 19 7 19 45 0 38 3 45
19 45 16 0 21 9 27 45 5 35 10 45 25 45 16 0 19 8 19 44 0 39 3 45 23 48 19 3
22 10 25 51 3 42 5 47 28 47 22 0 24 4 24 45 0 37 3 45 19 45 15 0 20 10 25
45 6 36 11 45 27 45 16 0 19 7 19 50 0 27 3 49 8 49 23 -4 31 5 37 40 4 27 13
41 26 44 15 4 19 14 19 46 0 34 3 41 19 41 15 0 20 10 26 50 6 40 11 50 26 50
13 0 19 7 19 23 0 40 11 65 31 70 13 4 19 14 19 34 0 33 8 47 33 56 13 5 17
18 17 52 0 37 3 45 19 45 15 0 20 10 25 45 6 36 11 45 27 45 16 0 19 7 19 45
0 38 3 45 20 45 15 0 20 7 20 26 0 17 6 28 19 31 20 5 31 30 31 71 0 15 6 22
19 22 20 0 31 34 31 96 0 27 4 34 19 34 14 0 21 8 23 28 2 19 9 28 25 30 18 3
22 11 25 45 2 29 8 42 18 42 10 0 18 16 24 48 7 36 14 47 28 47 15 0 18 8 18
45 0 38 3 45 19 45 16 0 21 9 27 45 5 34 11 45 25 45 14 0 18 9 21 48 3 40 6
47 26 50 19 3 22 9 22 48 0 37 3 44 19 44 16 0 21 9 27 45 5 34 11 45 24 45
13 0 19 11 24 45 6 36 11 45 27 45 16 0 19 7 19 46 0 37 4 47 20 51 14 4 21
17 26 49 5 34 11 44 25 44 16 0 19 8 19 45 0 38 3 45 19 45 16 0 21 9 27 45 5
34 11 45 25 45 14 0 18 9 21 48 3 40 6 47 26 50 19 3 22 9 22 48 0 40 2 44 25
44 23 0 25 4 25 45 0 37 3 45 19 45 15 0 20 10 25 45 6 36 11 45 27 45 16 0
19 7 19 50 0 43 3 50 19 50 16 0 21 9 27 45 5 35 10 45 25 45 16 0 19 8 19 45
0 41 2 45 25 45 23 0 25 3 25 50 0 43 3 50 19 50 16 0 21 9 27 45 5 34 11 45
25 45 14 0 19 9 21 43 2 35 7 43 26 45 19 3 22 9 22 48 0 37 3 44 20 44 17 0
20 7 20 45 0 38 -3 45 -19 45 -17 0 -20 8 -23 48 -3 40 -6 47 -25 50 -20 3
-23 9 -23 48 0 37 -3 44 -19 44 -16 0 -21 9 -27 45 -5 35 -10 45 -25 45 -16 0
-19 8 -19 44 0 39 -3 45 -22 48 -19 2 -24 10 -26 46 -3 33 -7 42 -22 42 -14 0
-20 11 -25 50 -6 40 -11 50 -26 50 -16 0 -19 7 -19 45 0 37 -3 45 -19 45 -15
0 -20 10 -25 45 -6 36 -11 45 -27 45 -16 0 -19 7 -19 44 0 39 -3 45 -22 48
-20 3 -23 10 -26 51 -3 42 -5 47 -28 47 -22 0 -24 4 -24 45 0 37 -3 45 -19 45
-14 0 -20 10 -25 44 -5 32 -12 45 -26 49 -16 4 -20 14 -20 46 0 34 -3 41 -19
41 -17 0 -20 8 -23 48 -3 40 -6 47 -25 50 -20 3 -23 9 -23 48 0 37 -3 44 -19
44 -16 0 -21 9 -27 45 -5 34 -11 45 -24 45 -13 0 -19 11 -25 46 -5 34 -12 48
-26 51 -15 4 -19 14 -19 49 0 40 -2 44 -25 44 -23 0 -25 4 -25 45 0 37 -3 45
-19 45 -15 0 -20 10 -25 45 -6 36 -11 45 -27 45 -16 0 -19 7 -19 50 0 43 -3
50 -17 48 -13 -2 -19 8 -26 45 -7 36 -13 47 -28 47 -16 0 -19 8 -19 45 0 41
-2 45 -25 45 -23 0 -25 4 -25 45 0 38 -3 45 -19 45 -15 0 -20 10 -26 50 -6 40
-11 50 -26 50 -16 0 -19 7 -19 45 0 41 -2 45 -25 45 -23 0 -25 4 -25 45 0 38
-3 45 -20 45 -14 0 -20 7 -20 23 0 40 -11 65 -31 70 -15 4 -19 14 -19 51 0 38
-3 46 -19 46 -15 0 -20 10 -25 45 -6 34 -12 45 -25 45 -14 0 -20 11 -25 45 -6
36 -11 45 -27 45 -13 0 -19 7 -19 23 0 39 -11 66 -29 69 -10 2 -16 13 -16 28
0 18 -6 26 -22 28 -20 3 -22 10 -25 65 -3 56 -5 62 -25 65 -20 3 -23 9 -23 48
0 37 -3 44 -20 44 -17 0 -20 7 -20 44 0 39 -3 45 -22 48 -17 2 -24 11 -26 31
-2 19 -9 27 -23 27 -14 0 -19 7 -19 29 0 57 -12 91 -31 91 -14 0 -19 7 -19 30
0 23 -4 30 -20 30 -11 0 -21 5 -21 10 -1 6 -3 15 -4 20 -1 6 -3 24 -4 40 -1
23 -6 30 -20 30 -16 0 -21 9 -27 45 -5 35 -10 45 -25 45 -17 0 -19 8 -19 65 0
47 -4 65 -12 64 -29 -4 -38 2 -38 26 0 18 -5 25 -20 25 -17 0 -20 7 -20 43 0
61 -9 87 -31 87 -14 0 -19 7 -19 26 0 17 -6 28 -20 31 -14 4 -21 17 -26 49 -5
34 -11 44 -25 44 -16 0 -19 8 -19 44 0 39 -3 45 -22 48 -19 2 -24 10 -26 46
-3 34 -7 42 -23 42 -16 0 -19 7 -19 44 0 39 -3 45 -22 48 -20 3 -23 10 -26 51
-3 38 -7 47 -21 47 -14 0 -20 11 -25 45 -6 36 -11 45 -27 45 -16 0 -19 7 -19
45 0 38 -3 45 -20 45 -16 0 -21 9 -26 50 -5 39 -11 50 -25 50 -13 0 -19 11
-25 45 -5 35 -10 45 -25 45 -16 0 -19 8 -19 45 0 38 -3 45 -19 45 -16 0 -21 9
-27 45 -5 34 -11 45 -25 45 -14 0 -18 9 -21 48 -3 40 -6 47 -25 50 -20 3 -23
9 -23 48 0 37 -3 44 -19 44 -16 0 -21 9 -27 45 -5 35 -10 45 -25 45 -16 0 -19
8 -19 45 0 41 -2 45 -25 45 -23 0 -25 3 -25 50 0 43 -3 50 -20 50 -13 0 -20 7
-20 20 0 20 -7 20 -2089 20 -2084 0 -2090 0 -2086 -20 3 -16 -2 -20 -21 -20
-22 0 -24 -4 -24 -50 0 -43 -3 -50 -19 -50 -16 0 -21 -9 -27 -45 -5 -35 -10
-45 -25 -45 -16 0 -19 -8 -19 -45 0 -38 -3 -45 -19 -45 -16 0 -21 -9 -27 -45
-5 -35 -10 -45 -25 -45 -16 0 -19 -8 -19 -50 0 -47 -2 -50 -25 -50 -23 0 -25
-4 -25 -44 0 -39 -3 -45 -22 -48 -19 -2 -24 -10 -26 -45 -3 -34 -7 -43 -22
-43 -14 0 -20 -11 -25 -50 -6 -40 -11 -50 -26 -50 -16 0 -19 -7 -19 -45 0 -41
-2 -45 -24 -45 -13 0 -24 -6 -23 -12 2 -58 -4 -78 -23 -78 -17 0 -20 -7 -20
-45 0 -41 -2 -45 -25 -45 -23 0 -25 -3 -25 -50 0 -43 -3 -50 -20 -50 -17 0
-20 -7 -20 -45 0 -41 -2 -45 -25 -45 -23 0 -25 -4 -25 -45 0 -41 -2 -45 -25
-45 -23 0 -25 -4 -25 -45 0 -38 -3 -45 -19 -45 -15 0 -20 -10 -26 -50 -6 -40
-11 -50 -26 -50 -16 0 -19 -7 -19 -40 0 -33 -3 -40 -19 -40 -15 0 -20 -10 -26
-50 -6 -40 -11 -50 -26 -50 -16 0 -19 -7 -19 -44 0 -39 -3 -45 -22 -48 -19 -2
-24 -10 -26 -45 -2 -34 -7 -43 -21 -43 -14 0 -20 -11 -25 -45 -6 -34 -12 -45
-25 -45 -14 0 -20 -11 -25 -50 -5 -41 -10 -50 -26 -50 -17 0 -20 -7 -20 -45 0
-37 -3 -45 -19 -45 -14 0 -20 -10 -25 -44 -5 -32 -12 -45 -26 -49 -14 -3 -20
-14 -20 -31 0 -19 -5 -26 -20 -26 -15 0 -20 -7 -20 -27 0 -64 -12 -103 -31
-103 -14 0 -19 -7 -19 -30 0 -23 -5 -30 -19 -30 -19 0 -31 -34 -31 -91 0 -22
-5 -29 -20 -29 -11 0 -21 -4 -21 -10 -1 -5 -3 -14 -4 -20 -1 -5 -3 -21 -4 -35
-1 -17 -7 -25 -20 -25 -15 0 -20 -10 -25 -50 -5 -41 -10 -50 -26 -50 -15 0
-20 -7 -20 -25 0 -18 -5 -25 -20 -25 -16 0 -20 -7 -20 -34 0 -62 -11 -96 -31
-96 -14 0 -19 -7 -19 -30 0 -23 -4 -30 -20 -30 -14 0 -20 -7 -21 -25 -1 -14
-3 -29 -4 -35 -1 -5 -3 -14 -4 -20 0 -5 -7 -10 -15 -10 -10 0 -17 -16 -22 -45
-5 -39 -9 -45 -31 -45 -14 0 -23 -5 -21 -12 1 -7 -1 -36 -5 -64 -6 -40 -12
-53 -27 -57 -14 -3 -20 -14 -20 -31 0 -19 -5 -26 -20 -26 -17 0 -20 -7 -20
-45 0 -38 -3 -45 -19 -45 -16 0 -21 -9 -27 -45 -5 -35 -10 -45 -25 -45 -16 0
-19 -8 -19 -46 0 -37 -4 -47 -20 -51 -14 -4 -21 -17 -26 -49 -5 -34 -11 -44
-25 -44 -13 0 -19 -11 -25 -45 -5 -35 -10 -45 -25 -45 -16 0 -19 -8 -19 -45 0
-41 -2 -45 -25 -45 -23 0 -25 -4 -25 -46 0 -37 -4 -47 -20 -51 -14 -4 -21 -17
-26 -49 -5 -34 -11 -44 -25 -44 -16 0 -19 -8 -19 -45 0 -38 -3 -45 -19 -45
-16 0 -21 -9 -27 -45 -5 -35 -10 -45 -25 -45 -16 0 -19 -8 -19 -50 0 -47 -2
-50 -25 -50 -23 0 -25 -4 -25 -45 0 -38 -3 -45 -19 -45 -16 0 -21 -9 -27 -45
-5 -35 -10 -45 -25 -45 -15 0 -19 -8 -20 -32 -1 -18 -1 -39 0 -45 1 -8 -9 -13
-24 -13 -23 0 -25 -3 -25 -50 0 -43 -3 -50 -19 -50 -16 0 -21 -9 -27 -45 -5
-35 -10 -45 -25 -45 -16 0 -19 -8 -19 -45 0 -38 -3 -45 -19 -45 -16 0 -21 -9
-27 -45 -5 -34 -11 -45 -25 -45 -14 0 -18 -9 -21 -47 -3 -41 -6 -48 -25 -51
-20 -3 -23 -9 -23 -48 0 -40 -2 -44 -25 -44 -23 0 -25 -4 -25 -45 0 -37 -3
-45 -19 -45 -15 0 -20 -10 -25 -45 -6 -36 -11 -45 -27 -45 -16 0 -19 -7 -19
-45 0 -38 -3 -45 -19 -45 -15 0 -20 -10 -26 -51 l-7 -50 -42 3 -41 3 -3 48
c-3 38 -7 47 -22 47 -15 0 -20 10 -26 45 -5 35 -10 45 -25 45 -16 0 -19 8 -19
45 0 41 -2 45 -25 45 -23 0 -25 4 -25 45 0 38 -3 45 -19 45 -15 0 -20 10 -26
50 -6 40 -11 50 -26 50 -16 0 -19 7 -19 45 0 37 -3 45 -19 45 -15 0 -20 10
-25 45 -6 36 -11 45 -27 45 -16 0 -19 7 -19 44 0 39 -3 45 -22 48 -19 2 -24
10 -26 45 -3 34 -7 42 -25 45 -19 3 -22 10 -25 51 -3 38 -7 47 -21 47 -14 0
-20 11 -25 45 -6 36 -11 45 -27 45 -16 0 -19 7 -19 45 0 38 -3 45 -19 45 -15
0 -20 10 -26 50 -6 40 -11 50 -26 50 -16 0 -19 7 -19 44 0 39 -3 45 -22 48
-19 2 -24 10 -26 46 -2 33 -7 42 -21 42 -14 0 -20 11 -25 45 -6 36 -11 45 -27
45 -16 0 -19 7 -19 44 0 39 -3 45 -22 48 -20 3 -23 10 -26 51 -3 38 -7 47 -21
47 -14 0 -20 11 -25 45 -6 36 -11 45 -27 45 -16 0 -19 7 -19 45 0 38 -3 45
-19 45 -15 0 -20 10 -26 50 -6 40 -11 50 -26 50 -16 0 -19 7 -19 45 0 41 -2
45 -25 45 -23 0 -25 4 -25 45 0 37 -3 45 -19 45 -15 0 -20 10 -25 45 -6 36
-11 45 -27 45 -16 0 -19 7 -19 50 0 47 -2 50 -25 50 -23 0 -25 4 -25 45 0 37
-3 45 -19 45 -15 0 -20 10 -25 45 -6 36 -11 45 -27 45 -16 0 -19 7 -19 45 0
37 -3 45 -19 45 -15 0 -20 10 -25 50 -5 41 -10 50 -26 50 -17 0 -20 7 -20 45
0 41 -2 45 -25 45 -23 0 -25 4 -25 45 0 38 -3 45 -20 45 -11 0 -20 1 -20 3 -1
1 -3 20 -6 42 -6 39 -20 59 -36 49 -4 -3 -8 5 -8 18 0 41 -11 66 -31 71 -15 4
-19 14 -19 46 0 33 -3 41 -19 41 -15 0 -20 10 -25 50 -5 41 -10 50 -26 50 -17
0 -20 7 -20 45 0 38 -3 45 -20 45 -11 0 -21 6 -21 13 -1 6 -2 19 -3 27 0 8
-10 17 -21 20 -11 3 -20 10 -20 15 0 6 -4 34 -8 63 -6 42 -11 52 -27 52 -17 0
-20 7 -20 45 0 38 -3 45 -20 45 -11 0 -21 7 -21 15 -1 8 -3 20 -4 25 -1 6 -3
19 -4 30 -1 13 -8 20 -21 20 -16 0 -20 7 -20 30 0 23 -5 30 -19 30 -16 0 -21
9 -27 45 -5 35 -10 45 -25 45 -16 0 -19 8 -19 45 0 38 -3 45 -19 45 -16 0 -21
9 -27 45 -5 34 -11 45 -24 45 -13 0 -19 11 -24 45 -6 35 -11 45 -26 45 -15 0
-19 9 -22 48 -3 40 -6 47 -25 50 -20 3 -23 9 -23 48 0 36 -3 44 -19 44 -19 0
-31 39 -31 103 0 20 -5 27 -20 27 -16 0 -20 7 -20 30 0 16 -3 29 -7 29 -25 -4
-32 6 -39 46 -5 35 -10 45 -25 45 -16 0 -19 8 -19 45 0 41 -2 45 -25 45 -23 0
-25 4 -25 45 0 38 -3 45 -20 45 -16 0 -21 9 -26 50 -5 40 -10 50 -25 50 -16 0
-19 8 -19 45 0 41 -2 45 -25 45 -23 0 -25 4 -25 45 0 38 -3 45 -20 45 -17 0
-20 7 -20 45 0 41 -2 45 -25 45 -23 0 -25 3 -25 50 0 43 -3 50 -19 50 -16 0
-21 9 -27 45 -5 35 -10 45 -25 45 -16 0 -19 8 -19 45 0 41 -2 45 -25 45 -23 0
-25 4 -25 45 0 38 -3 45 -20 45 -16 0 -21 9 -26 50 -5 39 -11 50 -25 50 -14 0
-19 9 -21 43 -2 35 -7 43 -25 45 -20 3 -23 9 -23 48 0 37 -3 44 -20 44 -15 0
-20 7 -21 28 -2 53 -4 57 -26 60 -20 3 -23 9 -23 53 0 46 -2 49 -25 49 -23 0
-25 4 -25 45 0 38 -3 45 -19 45 -16 0 -21 9 -27 45 -5 35 -10 45 -25 45 -16 0
-19 8 -19 44 0 39 -3 45 -22 48 -20 3 -23 10 -26 51 -3 38 -7 47 -22 47 -15 0
-19 9 -22 43 -2 35 -7 43 -25 45 -20 3 -23 9 -23 48 0 36 -3 44 -19 44 -15 0
-20 10 -25 45 -6 35 -11 45 -26 45 -15 0 -19 9 -22 48 -2 28 -8 47 -15 48 -7
1 -17 2 -23 3 -5 0 -10 21 -10 46 0 38 -3 45 -19 45 -16 0 -21 9 -27 45 -5 35
-10 45 -25 45 -16 0 -19 8 -19 45 0 38 -3 45 -19 45 -16 0 -21 9 -27 45 -5 35
-10 45 -25 45 -16 0 -19 8 -19 50 0 47 -2 50 -25 50 -23 0 -25 4 -25 45 0 37
-3 45 -19 45 -15 0 -20 10 -25 45 -6 34 -12 45 -25 45 -14 0 -20 11 -25 45 -6
36 -11 45 -27 45 -16 0 -19 7 -19 50 0 43 -3 50 -19 50 -16 0 -21 9 -27 45 -5
35 -10 45 -25 45 -16 0 -19 8 -19 45 0 38 -3 45 -20 45 -11 0 -21 7 -21 15 -1
8 -3 20 -4 25 -1 6 -3 21 -4 35 -1 18 -7 25 -21 25 -17 0 -20 7 -20 45 0 41
-2 45 -25 45 -23 0 -25 4 -25 45 0 41 -2 45 -25 45 -23 0 -25 4 -25 45 0 38
-3 45 -19 45 -15 0 -20 10 -26 49 -6 42 -10 49 -26 46 -17 -3 -19 2 -19 46 0
42 -3 49 -19 49 -16 0 -21 9 -27 45 -5 35 -10 45 -25 45 -16 0 -19 8 -19 44 0
39 -3 45 -22 48 -20 3 -23 10 -26 51 -3 38 -7 47 -21 47 -14 0 -20 11 -25 45
-6 36 -11 45 -27 45 -16 0 -19 7 -19 45 0 41 -2 45 -25 45 -23 0 -25 4 -25 45
0 38 -3 45 -19 45 -15 0 -20 10 -26 50 -6 40 -11 50 -26 50 -12 0 -19 7 -19
20 0 13 -7 20 -20 20 -13 0 -20 -7 -20 -20z"/>
<path d="M33090 30358 c-68 -134 -182 -360 -255 -503 -73 -143 -224 -440 -335
-660 -111 -220 -282 -557 -380 -750 -310 -611 -572 -1129 -1105 -2180 -106
-209 -276 -544 -377 -745 -102 -201 -279 -549 -393 -775 -114 -225 -281 -554
-370 -730 -89 -176 -258 -509 -375 -740 -117 -231 -292 -577 -390 -770 -98
-192 -264 -521 -370 -730 -328 -648 -576 -1137 -745 -1470 -158 -312 -330
-651 -745 -1470 -111 -220 -280 -553 -375 -740 -95 -187 -261 -515 -370 -730
-109 -214 -277 -547 -375 -740 -98 -192 -269 -530 -380 -750 -111 -220 -282
-557 -380 -750 -98 -192 -264 -521 -370 -730 -106 -209 -268 -528 -360 -710
-92 -181 -276 -546 -410 -810 -134 -264 -264 -520 -289 -570 -62 -119 -76
-165 -75 -251 1 -89 18 -135 124 -329 53 -96 168 -311 215 -400 26 -49 66
-124 88 -165 46 -86 86 -161 147 -275 24 -44 57 -107 75 -140 18 -33 52 -96
75 -140 24 -44 58 -107 75 -140 18 -33 54 -100 80 -150 72 -138 110 -184 190
-231 199 -116 440 -36 549 182 55 109 50 108 96 13 75 -156 134 -220 240 -260
71 -27 191 -26 267 3 69 26 156 104 194 175 14 26 124 230 244 453 262 489
290 541 325 605 15 28 60 111 100 185 40 74 87 162 105 195 18 33 52 96 75
140 24 44 55 103 70 130 15 28 60 111 100 185 40 74 87 162 105 195 18 33 52
96 75 140 24 44 55 103 70 130 15 28 49 91 75 140 27 50 59 110 73 135 13 25
42 78 63 118 22 39 56 105 78 145 21 39 50 92 63 117 14 25 46 86 73 135 26
50 59 110 73 135 13 25 47 88 75 140 27 52 61 115 75 140 13 25 45 83 69 130
25 47 53 99 63 115 9 17 39 71 65 120 26 50 62 117 80 150 18 33 52 96 75 140
24 44 55 103 70 130 15 28 60 111 100 185 40 74 86 160 103 190 45 83 90 167
134 250 48 90 175 325 213 395 38 69 99 184 152 285 25 47 58 108 73 135 65
119 95 175 133 245 22 41 51 95 64 120 14 25 48 88 75 140 28 52 61 113 73
135 12 22 45 83 73 135 27 52 61 115 75 140 40 74 87 160 129 240 86 162 153
286 220 410 17 30 48 89 70 130 23 41 55 102 73 135 18 33 50 94 72 135 49 90
95 176 135 250 17 30 97 179 178 330 81 151 160 298 175 325 27 50 272 505
358 665 25 47 74 139 110 205 35 66 83 154 105 195 22 41 52 98 67 125 15 28
51 95 80 150 29 55 56 105 60 110 4 6 31 55 60 110 29 55 65 123 80 150 15 28
45 84 67 125 101 188 128 238 151 280 32 60 80 147 132 245 24 44 57 107 75
140 18 33 52 96 75 140 24 44 54 100 68 125 13 25 43 79 65 120 22 41 54 102
72 135 37 69 84 156 145 270 24 44 55 103 70 130 15 28 45 84 67 125 22 41 57
107 78 145 21 39 54 99 72 133 30 56 89 166 208 387 18 33 52 96 75 140 24 44
55 103 70 130 15 28 60 111 100 185 40 74 86 160 103 190 45 83 90 167 134
250 50 94 177 329 213 395 15 28 51 95 80 150 29 55 61 114 70 130 9 17 43 80
75 140 32 61 61 115 65 120 4 6 36 64 70 130 35 66 74 140 88 165 13 25 45 83
70 130 24 47 55 103 67 125 27 48 86 156 133 245 19 36 52 99 74 140 61 114
57 113 119 27 30 -42 127 -177 217 -300 89 -124 162 -232 162 -240 0 -8 -27
-63 -61 -123 -127 -226 -179 -320 -619 -1114 -248 -448 -473 -853 -500 -900
-26 -47 -62 -112 -80 -145 -18 -33 -49 -89 -70 -125 -20 -36 -57 -101 -80
-145 -59 -110 -181 -328 -190 -340 -4 -5 -29 -50 -55 -100 -41 -76 -115 -211
-203 -367 -12 -21 -38 -68 -58 -105 -21 -37 -113 -203 -204 -368 -92 -165
-178 -320 -192 -345 -175 -316 -447 -807 -471 -850 -37 -67 -55 -100 -107
-191 -22 -39 -40 -73 -40 -75 0 -2 -10 -21 -23 -42 -13 -20 -42 -71 -64 -112
-60 -111 -95 -174 -103 -185 -4 -5 -25 -44 -47 -85 -22 -41 -50 -92 -61 -112
-12 -21 -38 -68 -58 -105 -21 -37 -57 -104 -82 -148 -25 -44 -61 -109 -80
-145 -20 -36 -46 -82 -59 -102 -13 -21 -23 -39 -23 -42 0 -2 -27 -52 -61 -112
-33 -60 -77 -138 -97 -174 -19 -36 -55 -101 -80 -145 -25 -44 -59 -105 -75
-135 -16 -30 -35 -64 -42 -76 -7 -11 -31 -54 -53 -95 -22 -41 -63 -114 -91
-163 -28 -49 -51 -90 -51 -92 0 -1 -17 -33 -38 -71 -22 -37 -55 -97 -74 -133
-20 -36 -64 -114 -97 -174 -34 -60 -61 -110 -61 -111 0 -1 -22 -41 -50 -89
-27 -48 -50 -89 -50 -92 0 -2 -10 -21 -23 -42 -13 -20 -42 -71 -64 -112 -22
-41 -49 -91 -60 -110 -19 -33 -62 -111 -106 -190 -10 -19 -27 -48 -37 -65 -17
-30 -48 -85 -123 -225 -22 -41 -43 -79 -47 -85 -4 -5 -22 -37 -40 -70 -37 -66
-73 -132 -103 -185 -11 -19 -38 -69 -60 -110 -22 -41 -51 -92 -64 -112 -13
-21 -23 -40 -23 -42 0 -2 -18 -36 -40 -75 -69 -122 -82 -144 -123 -221 -22
-41 -51 -92 -64 -112 -13 -21 -23 -39 -23 -42 0 -2 -27 -52 -60 -111 -33 -59
-60 -109 -60 -110 0 -1 -23 -42 -51 -91 -28 -49 -69 -122 -91 -163 -22 -41
-46 -84 -53 -95 -7 -12 -26 -46 -42 -76 -16 -30 -50 -91 -75 -135 -25 -44 -61
-111 -82 -148 -20 -37 -45 -82 -55 -100 -26 -48 -81 -146 -109 -197 -14 -25
-28 -49 -32 -55 -4 -5 -31 -55 -60 -110 -29 -55 -56 -104 -60 -110 -7 -9 -20
-32 -98 -175 -14 -25 -28 -49 -32 -55 -4 -5 -31 -55 -60 -110 -29 -55 -56
-104 -60 -110 -8 -11 -42 -73 -103 -185 -22 -41 -51 -92 -64 -112 -13 -21 -23
-40 -23 -42 0 -2 -18 -36 -40 -75 -70 -124 -82 -145 -123 -221 -22 -41 -43
-79 -47 -85 -4 -5 -25 -41 -45 -80 -21 -38 -102 -185 -180 -325 -78 -140 -158
-286 -179 -323 -20 -37 -46 -84 -58 -105 -55 -98 -159 -284 -192 -345 -40 -73
-55 -101 -116 -208 -22 -39 -40 -73 -40 -75 0 -2 -10 -21 -23 -42 -13 -20 -42
-71 -64 -112 -60 -111 -95 -174 -103 -185 -4 -5 -25 -44 -47 -85 -56 -105 -94
-173 -103 -185 -4 -5 -25 -44 -47 -85 -22 -41 -50 -92 -61 -112 -12 -21 -38
-68 -58 -105 -20 -37 -61 -110 -91 -161 -29 -52 -53 -95 -53 -97 0 -2 -16 -32
-36 -67 -20 -34 -48 -85 -64 -113 -15 -27 -166 -300 -335 -605 -169 -305 -319
-575 -333 -600 -13 -25 -66 -119 -117 -210 -50 -91 -105 -190 -122 -220 -16
-30 -82 -149 -146 -263 -65 -114 -117 -210 -117 -212 0 -2 -23 -43 -51 -92
-28 -48 -55 -96 -60 -105 -9 -17 6 -18 260 -18 l269 0 242 438 c133 240 259
466 280 502 20 36 59 106 85 155 27 50 58 106 70 125 12 19 46 80 75 135 29
55 64 117 77 137 13 21 23 40 23 42 0 2 18 36 40 75 61 107 76 135 116 208 33
61 137 247 192 345 12 21 38 68 58 105 21 37 157 284 304 548 147 264 283 509
302 545 20 36 64 114 97 174 34 60 61 110 61 112 0 3 10 21 23 42 13 20 42 71
64 112 22 41 49 91 60 110 26 46 80 144 111 200 14 25 28 50 32 55 4 6 29 51
55 100 26 50 67 124 90 165 53 94 73 129 115 205 18 33 42 76 53 95 11 19 38
69 60 110 22 41 51 92 64 112 13 21 23 40 23 42 0 3 23 44 50 92 28 48 50 88
50 89 0 1 27 51 61 111 33 60 77 138 97 174 19 36 52 96 74 133 21 38 38 70
38 72 0 1 29 53 65 115 36 62 65 114 65 115 0 2 17 34 38 72 22 37 55 97 74
133 20 36 64 114 97 174 34 60 61 110 61 112 0 3 10 21 23 42 13 20 42 71 64
112 23 41 68 124 102 184 34 60 61 110 61 112 0 2 13 25 28 51 16 26 44 77 64
113 35 64 73 132 111 200 11 19 38 69 60 110 22 41 43 80 47 85 4 6 22 37 40
70 37 66 73 132 103 185 11 19 38 69 60 110 22 41 43 80 47 85 8 11 43 74 103
185 22 41 51 92 64 112 13 21 23 40 23 42 0 2 16 33 36 68 20 34 52 92 72 128
19 36 55 100 79 143 24 42 55 99 69 125 15 26 39 70 54 97 15 28 40 73 55 100
15 28 69 124 120 215 50 91 108 196 129 233 40 73 55 101 116 208 22 39 40 73
40 75 0 2 10 21 23 42 13 20 42 71 64 112 22 41 49 91 60 110 11 19 35 62 53
95 18 33 41 74 50 90 9 17 32 57 50 90 18 33 41 74 50 90 9 17 32 57 50 90 18
33 42 76 53 95 11 19 38 69 60 110 22 41 43 80 47 85 4 6 22 37 40 70 34 61
69 125 101 182 10 18 35 63 55 100 21 37 79 142 129 233 51 91 104 185 117
210 21 38 172 311 266 480 14 25 89 160 167 300 78 140 158 286 179 323 20 37
46 84 58 105 54 97 158 284 190 342 67 123 91 165 98 175 4 6 25 44 47 85 22
41 50 92 61 112 12 21 38 68 58 105 21 37 57 103 81 146 24 42 54 96 67 120
13 23 128 231 256 462 128 231 244 440 258 465 13 25 66 119 117 210 50 91
105 190 122 220 16 30 106 192 200 360 175 315 182 327 316 570 43 80 83 150
87 155 4 6 26 46 50 90 42 79 103 190 185 335 24 41 54 95 67 120 14 25 123
222 243 438 119 215 224 413 232 440 22 71 13 193 -19 262 -22 47 -288 431
-325 468 -7 7 -13 17 -13 21 0 4 -8 16 -18 27 -9 10 -80 106 -155 212 l-138
193 24 42 c13 23 43 79 67 125 23 45 45 82 48 82 4 -1 36 -42 71 -93 35 -51
186 -265 334 -477 149 -212 329 -468 400 -570 l129 -185 -25 -45 c-13 -25 -39
-72 -57 -105 -18 -33 -42 -76 -53 -95 -65 -115 -159 -284 -191 -343 -20 -37
-46 -84 -58 -105 -39 -69 -204 -367 -235 -422 -16 -30 -82 -149 -146 -263 -65
-114 -117 -210 -117 -212 0 -2 -24 -45 -53 -97 -59 -103 -163 -289 -315 -563
-54 -99 -109 -197 -120 -217 -12 -21 -38 -68 -58 -105 -33 -61 -137 -247 -192
-345 -12 -21 -38 -68 -58 -105 -33 -61 -137 -247 -192 -345 -12 -21 -38 -68
-58 -105 -21 -37 -57 -103 -81 -146 -24 -42 -55 -99 -70 -125 -14 -26 -34 -61
-44 -79 -10 -18 -35 -63 -55 -100 -21 -37 -57 -104 -82 -148 -25 -44 -61 -109
-80 -145 -20 -36 -46 -82 -59 -102 -13 -21 -23 -39 -23 -42 0 -2 -27 -52 -61
-112 -34 -60 -79 -143 -102 -184 -22 -41 -51 -92 -64 -112 -13 -21 -23 -39
-23 -42 0 -2 -27 -52 -61 -112 -34 -60 -79 -143 -102 -184 -22 -41 -51 -92
-64 -112 -13 -21 -23 -39 -23 -42 0 -2 -27 -52 -61 -112 -34 -60 -79 -143
-102 -184 -22 -41 -43 -79 -47 -85 -4 -5 -25 -41 -46 -80 -20 -38 -259 -468
-529 -955 -270 -487 -505 -910 -522 -940 -17 -30 -74 -134 -128 -230 -54 -96
-110 -197 -125 -225 -15 -27 -79 -142 -142 -255 -63 -113 -131 -234 -150 -270
-20 -36 -52 -94 -72 -128 -20 -35 -36 -65 -36 -67 0 -2 -22 -41 -48 -87 -27
-47 -73 -129 -102 -184 -29 -54 -64 -116 -77 -136 -13 -21 -23 -40 -23 -42 0
-3 -24 -47 -53 -98 -30 -51 -76 -133 -102 -183 -27 -49 -59 -107 -72 -127 -13
-21 -23 -40 -23 -42 0 -2 -34 -64 -75 -136 -41 -72 -75 -133 -75 -135 0 -2
-18 -35 -40 -74 -52 -92 -70 -124 -110 -196 -18 -33 -36 -64 -40 -70 -4 -5
-31 -55 -60 -110 -29 -55 -56 -104 -60 -110 -8 -10 -36 -62 -98 -175 -19 -36
-38 -69 -42 -75 -4 -5 -24 -41 -44 -78 -20 -37 -45 -82 -55 -100 -60 -107 -78
-139 -114 -207 -22 -41 -43 -79 -47 -85 -4 -5 -22 -37 -40 -70 -37 -66 -73
-132 -103 -185 -11 -19 -38 -69 -60 -110 -22 -41 -43 -79 -47 -85 -8 -11 -43
-74 -103 -185 -22 -41 -51 -92 -64 -112 -13 -21 -23 -40 -23 -42 0 -2 -18 -36
-40 -75 -69 -122 -82 -144 -123 -221 -22 -41 -51 -92 -64 -112 -13 -21 -23
-39 -23 -42 0 -2 -27 -52 -61 -112 -33 -60 -77 -138 -97 -174 -19 -36 -367
-661 -772 -1390 -405 -729 -753 -1354 -772 -1390 -20 -36 -64 -114 -97 -174
-34 -60 -61 -110 -61 -112 0 -3 -10 -21 -23 -42 -13 -20 -42 -71 -64 -112 -23
-41 -68 -124 -102 -184 -34 -60 -61 -110 -61 -112 0 -3 -10 -21 -23 -42 -13
-20 -42 -71 -64 -112 -41 -77 -54 -99 -123 -221 -22 -39 -40 -73 -40 -75 0 -2
-10 -21 -23 -42 -13 -20 -42 -71 -64 -112 -41 -77 -54 -99 -123 -221 -22 -39
-40 -72 -40 -74 0 -2 -13 -26 -28 -52 -16 -26 -45 -79 -66 -116 -40 -74 -57
-104 -116 -208 -22 -39 -40 -73 -40 -75 0 -2 112 -4 249 -4 187 0 251 3 258
13 6 6 25 39 43 72 18 33 44 80 58 105 14 25 28 50 32 55 4 6 29 51 55 100 26
50 62 115 80 145 18 30 49 86 69 123 20 37 45 83 56 102 11 19 36 65 56 102
20 37 51 93 69 123 18 30 54 96 80 145 27 50 59 107 72 127 13 21 23 40 23 42
0 2 26 51 58 108 33 57 73 128 89 158 17 30 399 719 850 1530 451 811 837
1507 858 1545 20 39 41 75 45 80 4 6 25 44 47 85 23 41 68 124 102 184 34 60
61 110 61 112 0 3 10 21 23 42 13 20 42 71 64 112 23 41 68 124 102 184 34 60
61 110 61 112 0 3 10 21 23 42 13 20 42 71 64 112 23 41 68 124 102 184 34 60
61 110 61 112 0 3 10 21 23 42 13 20 39 66 59 102 19 36 55 101 80 145 25 44
61 111 82 148 20 37 46 84 58 105 55 98 159 284 192 345 20 37 46 84 58 105
55 98 159 284 192 345 39 72 54 99 121 217 23 41 81 145 127 230 47 85 126
227 175 315 49 88 106 189 125 225 20 36 79 144 133 240 54 96 112 200 128
230 31 57 198 357 235 422 12 21 38 68 58 105 33 61 137 247 192 345 12 21 38
68 58 105 33 61 137 247 192 345 12 21 38 68 58 105 21 37 80 145 132 238 52
94 109 195 125 225 17 30 50 91 75 135 25 44 61 109 80 145 20 36 46 82 59
102 13 21 23 39 23 42 0 2 27 52 61 112 34 60 79 143 102 184 22 41 43 80 47
85 4 6 25 42 45 80 21 39 80 144 130 235 51 91 105 188 120 215 15 28 40 73
55 100 15 28 39 71 54 97 14 26 45 83 69 125 24 43 57 103 74 133 16 30 73
132 125 225 52 94 108 195 125 225 16 30 140 253 275 495 135 242 258 465 275
495 17 30 73 132 125 225 52 94 108 195 125 225 17 30 83 149 147 263 64 115
116 210 116 212 0 2 19 36 43 77 24 40 65 113 91 162 27 49 60 110 75 135 15
25 51 91 81 146 29 55 64 117 77 137 13 21 23 40 23 42 0 3 24 47 53 98 30 51
76 134 102 183 27 50 59 107 72 127 13 21 23 40 23 42 0 3 24 47 53 98 30 51
76 134 102 183 27 50 59 107 72 127 13 21 23 40 23 42 0 2 34 64 75 136 41 72
75 133 75 135 0 2 18 35 40 74 59 104 76 134 116 208 21 37 50 90 66 116 15
26 28 50 28 52 0 2 18 35 40 74 22 38 49 87 61 108 117 206 147 292 135 386
-11 76 -33 123 -120 247 -81 117 -380 543 -716 1020 -102 146 -201 288 -220
315 -47 71 -127 146 -185 175 -43 22 -64 25 -155 25 -96 0 -110 -3 -161 -29
-95 -48 -135 -97 -245 -304 -12 -23 -14 -21 -74 65 -106 149 -180 204 -307
226 -154 27 -327 -59 -400 -199 -11 -21 -69 -129 -128 -239 -200 -372 -240
-446 -267 -493 -11 -20 -41 -75 -65 -122 -25 -47 -53 -98 -63 -115 -10 -16
-40 -73 -67 -125 -28 -52 -63 -117 -78 -145 -15 -27 -40 -72 -55 -100 -15 -27
-45 -84 -67 -125 -22 -41 -71 -131 -108 -200 -37 -69 -84 -154 -103 -190 -19
-36 -46 -85 -60 -110 -13 -25 -45 -83 -69 -130 -25 -47 -58 -107 -73 -135 -44
-80 -83 -151 -160 -295 -40 -74 -85 -157 -100 -185 -15 -27 -60 -111 -100
-185 -40 -74 -85 -157 -100 -185 -15 -27 -45 -84 -67 -125 -53 -98 -168 -311
-203 -375 -15 -27 -60 -111 -100 -185 -40 -74 -87 -162 -105 -195 -18 -33 -52
-96 -75 -140 -24 -44 -56 -105 -73 -135 -17 -30 -40 -73 -52 -95 -12 -22 -44
-80 -70 -130 -26 -49 -60 -112 -75 -140 -15 -27 -58 -106 -95 -175 -72 -133
-117 -217 -157 -290 -14 -25 -46 -85 -73 -135 -26 -49 -62 -115 -78 -145 -17
-30 -42 -77 -57 -105 -33 -62 -94 -174 -130 -240 -16 -27 -43 -79 -62 -115
-19 -36 -51 -94 -70 -130 -56 -102 -161 -297 -208 -385 -23 -44 -55 -102 -70
-130 -15 -27 -44 -81 -64 -118 -20 -37 -45 -82 -55 -100 -10 -18 -42 -77 -71
-132 -29 -55 -65 -122 -80 -150 -15 -27 -60 -111 -100 -185 -40 -74 -85 -157
-100 -185 -15 -27 -60 -111 -100 -185 -86 -159 -134 -248 -168 -310 -35 -64
-82 -152 -132 -245 -24 -44 -55 -102 -70 -130 -15 -27 -60 -111 -100 -185 -40
-74 -85 -157 -100 -185 -15 -27 -49 -90 -75 -140 -26 -49 -55 -103 -65 -120
-9 -16 -33 -59 -52 -95 -19 -36 -66 -121 -103 -190 -63 -116 -94 -174 -183
-340 -60 -113 -102 -189 -124 -228 -11 -20 -41 -75 -66 -122 -24 -47 -60 -114
-80 -150 -19 -36 -47 -87 -62 -115 -26 -49 -65 -120 -120 -220 -15 -27 -46
-84 -67 -125 -38 -70 -141 -263 -203 -375 -15 -27 -46 -86 -70 -130 -23 -44
-57 -107 -75 -140 -18 -33 -48 -89 -68 -125 -19 -36 -46 -85 -60 -110 -13 -25
-57 -106 -97 -180 -40 -74 -85 -157 -100 -185 -15 -27 -60 -111 -100 -185 -40
-74 -85 -157 -100 -185 -27 -49 -66 -123 -150 -280 -23 -44 -50 -93 -60 -110
-19 -33 -37 -67 -195 -360 -145 -270 -183 -341 -215 -400 -15 -27 -60 -111
-100 -185 -40 -74 -85 -157 -100 -185 -24 -44 -94 -172 -195 -360 -76 -142
-170 -315 -203 -375 -19 -36 -51 -94 -70 -130 -19 -36 -60 -112 -92 -170 -32
-58 -76 -139 -98 -180 -22 -41 -51 -95 -64 -120 -14 -25 -76 -139 -138 -255
-62 -115 -125 -232 -140 -260 -15 -27 -40 -74 -55 -102 -15 -29 -30 -53 -34
-53 -3 0 -46 82 -95 183 -49 100 -132 268 -184 373 l-95 191 100 194 c95 183
172 334 448 874 65 127 164 320 220 430 56 110 158 308 225 440 67 132 162
317 210 410 48 94 145 283 215 420 70 138 174 340 230 450 56 110 158 308 225
440 68 132 162 317 210 410 48 94 151 296 230 450 78 154 177 348 220 430 43
83 137 267 210 410 73 143 176 346 230 450 54 105 150 294 215 420 65 127 164
320 220 430 56 110 154 301 217 425 64 124 165 322 225 440 232 453 476 930
685 1340 137 268 287 559 428 835 54 105 159 312 235 460 76 149 177 347 225
440 48 94 143 278 210 410 67 132 164 321 215 420 51 99 152 297 225 440 73
143 176 346 230 450 54 105 148 289 210 410 62 121 162 317 222 435 61 118
157 305 213 415 56 110 162 317 235 460 73 143 174 341 225 440 51 99 145 284
210 410 65 127 164 320 220 430 56 110 162 317 235 460 73 143 167 328 210
410 43 83 137 267 210 410 152 299 310 607 450 880 54 105 157 307 230 450 73
143 166 324 206 402 41 78 74 145 74 148 0 3 -110 5 -245 5 l-244 0 -24 -42
c-14 -24 -95 -182 -182 -353 -87 -170 -188 -368 -225 -440 -37 -71 -134 -260
-215 -420 -81 -159 -187 -366 -235 -460 -48 -93 -147 -287 -220 -430 -73 -143
-174 -341 -225 -440 -51 -99 -150 -292 -220 -430 -70 -137 -167 -326 -215
-420 -48 -93 -145 -282 -215 -420 -70 -137 -171 -335 -225 -440 -115 -225
-267 -522 -450 -880 -73 -143 -174 -341 -225 -440 -51 -99 -142 -277 -203
-395 -293 -575 -362 -709 -455 -890 -124 -243 -286 -559 -432 -845 -62 -121
-162 -317 -222 -435 -61 -118 -163 -318 -228 -445 -129 -253 -273 -534 -430
-840 -56 -110 -164 -321 -240 -470 -76 -148 -175 -342 -220 -430 -45 -88 -142
-277 -215 -420 -126 -248 -222 -435 -440 -860 -135 -264 -295 -576 -445 -870
-70 -137 -174 -340 -230 -450 -57 -110 -153 -299 -215 -420 -62 -121 -162
-317 -222 -435 -256 -498 -322 -628 -443 -865 -70 -137 -169 -331 -220 -430
-51 -99 -145 -283 -210 -410 -65 -126 -164 -320 -220 -430 -56 -110 -160 -312
-230 -450 -70 -137 -169 -331 -220 -430 -51 -99 -144 -281 -207 -405 -654
-1278 -580 -1125 -586 -1217 -3 -50 0 -95 8 -119 17 -50 71 -165 335 -699
l217 -440 -31 -60 c-44 -88 -111 -209 -120 -218 -4 -4 -24 25 -44 65 -21 40
-50 96 -65 123 -16 28 -59 109 -97 180 -37 72 -73 139 -80 150 -7 11 -37 67
-68 125 -30 58 -84 159 -119 225 -36 66 -89 165 -118 220 -29 55 -65 123 -80
150 -101 185 -119 223 -111 231 5 5 115 221 246 479 131 259 317 628 415 820
98 193 269 530 380 750 111 220 271 535 355 700 84 165 253 498 375 740 122
242 300 593 395 780 282 555 601 1184 1093 2155 104 206 270 535 369 730 99
195 278 549 398 785 120 237 288 570 375 740 87 171 253 499 370 730 117 231
288 569 380 750 92 182 263 519 380 750 117 231 290 573 385 760 222 437 491
968 740 1460 109 215 275 543 370 730 95 187 264 520 375 740 111 220 278 549
370 730 92 182 259 510 370 730 111 220 280 553 375 740 95 187 268 529 385
760 117 231 273 538 346 683 74 144 134 267 134 272 0 6 -95 10 -259 10 l-259
0 -122 -242z m1285 -3894 c42 -58 79 -112 82 -119 2 -8 -12 -45 -33 -82 -20
-37 -52 -95 -69 -128 -18 -34 -81 -151 -140 -260 -158 -294 -185 -345 -215
-400 -15 -27 -60 -111 -100 -185 -40 -74 -85 -157 -100 -185 -15 -27 -49 -90
-75 -140 -26 -49 -60 -112 -75 -140 -15 -27 -60 -111 -100 -185 -40 -74 -85
-157 -100 -185 -38 -69 -99 -184 -152 -285 -25 -47 -58 -107 -73 -135 -65
-119 -95 -175 -133 -245 -22 -41 -51 -95 -64 -120 -14 -25 -48 -88 -75 -140
-28 -52 -61 -115 -75 -140 -14 -25 -46 -85 -73 -135 -26 -49 -60 -112 -75
-140 -15 -27 -49 -90 -75 -140 -26 -49 -60 -112 -75 -140 -15 -27 -60 -111
-100 -185 -40 -74 -85 -157 -100 -185 -15 -27 -49 -90 -75 -140 -26 -49 -60
-112 -75 -140 -15 -27 -60 -111 -100 -185 -40 -74 -85 -157 -100 -185 -15 -27
-46 -86 -70 -130 -23 -44 -57 -107 -75 -140 -18 -33 -65 -121 -105 -195 -40
-74 -85 -157 -100 -185 -15 -27 -46 -86 -70 -130 -23 -44 -55 -102 -70 -130
-15 -27 -49 -90 -75 -140 -67 -126 -143 -267 -250 -465 -76 -142 -113 -210
-175 -325 -23 -44 -57 -107 -75 -140 -18 -33 -51 -96 -75 -140 -52 -98 -100
-185 -132 -245 -23 -42 -50 -92 -151 -280 -22 -41 -52 -97 -67 -125 -15 -27
-51 -95 -80 -150 -29 -55 -56 -104 -60 -110 -4 -5 -31 -55 -60 -110 -29 -55
-65 -122 -80 -150 -15 -27 -46 -86 -70 -130 -23 -44 -57 -107 -75 -140 -18
-33 -48 -89 -68 -125 -19 -36 -46 -85 -59 -110 -14 -25 -47 -85 -73 -135 -67
-125 -112 -210 -150 -280 -18 -33 -52 -96 -75 -140 -24 -44 -55 -102 -70 -130
-15 -27 -94 -174 -175 -325 -81 -151 -160 -297 -175 -325 -32 -58 -155 -287
-213 -395 -44 -83 -89 -167 -134 -250 -17 -30 -63 -116 -103 -190 -40 -74 -85
-157 -100 -185 -15 -27 -47 -88 -72 -135 -25 -47 -61 -114 -80 -150 -19 -36
-51 -94 -70 -130 -19 -36 -50 -92 -68 -125 -18 -33 -55 -103 -83 -155 -27 -52
-61 -115 -75 -140 -13 -25 -45 -83 -69 -130 -25 -47 -53 -98 -63 -115 -9 -16
-39 -70 -65 -120 -26 -49 -62 -117 -80 -150 -18 -33 -52 -96 -75 -140 -24 -44
-55 -102 -70 -130 -15 -27 -60 -111 -100 -185 -40 -74 -85 -157 -100 -185 -15
-27 -49 -90 -75 -140 -26 -49 -60 -112 -75 -140 -15 -27 -60 -111 -100 -185
-40 -74 -85 -157 -100 -185 -15 -27 -46 -86 -70 -130 -23 -44 -57 -107 -75
-140 -103 -191 -177 -329 -212 -395 -22 -41 -52 -95 -65 -120 -14 -25 -48 -88
-75 -140 -28 -52 -59 -111 -70 -130 -11 -19 -43 -80 -73 -135 -29 -55 -64
-120 -78 -145 -13 -25 -42 -78 -63 -117 -22 -40 -56 -106 -78 -145 -21 -40
-50 -93 -63 -118 -14 -25 -44 -81 -68 -125 -23 -44 -57 -107 -75 -140 -18 -33
-51 -96 -75 -140 -139 -260 -180 -334 -196 -359 -12 -17 -21 -3 -90 138 l-78
158 44 81 c23 45 55 105 70 132 46 84 160 296 203 375 22 41 52 98 67 125 15
28 60 111 100 185 40 74 85 158 100 185 35 64 150 277 203 375 22 41 53 100
70 130 76 141 97 178 122 225 15 28 48 88 72 135 25 47 53 99 63 115 9 17 39
71 65 120 51 96 90 169 135 250 28 50 39 71 170 315 88 163 135 250 168 310
13 25 45 83 69 130 25 47 58 108 73 135 44 80 83 151 160 295 40 74 85 158
100 185 15 28 60 111 100 185 40 74 85 158 100 185 15 28 45 84 67 125 53 98
168 311 203 375 15 28 60 111 100 185 40 74 87 162 105 195 18 33 52 96 75
140 42 78 54 100 117 215 34 62 87 162 158 295 26 50 51 95 55 100 4 6 31 55
60 110 29 55 64 120 78 145 27 50 73 135 135 250 22 41 54 100 70 130 17 30
42 78 57 105 33 62 94 174 130 240 16 28 43 79 62 115 19 36 51 94 70 130 73
134 200 369 278 515 44 83 66 122 117 215 17 30 63 116 103 190 40 74 85 158
100 185 15 28 49 91 75 140 71 134 116 216 135 250 10 17 39 71 65 120 67 126
115 215 135 250 10 17 37 66 60 110 23 44 57 107 75 140 18 33 51 96 75 140
23 44 50 94 60 110 9 17 39 71 65 120 26 50 60 113 75 140 15 28 60 111 100
185 40 74 85 158 100 185 35 64 150 277 203 375 22 41 53 100 70 130 76 141
97 178 122 225 15 28 48 88 72 135 51 96 104 193 135 248 11 20 35 64 53 97
17 33 48 89 67 125 20 36 54 99 75 140 22 41 71 131 108 200 37 69 83 154 103
190 19 36 46 85 60 110 13 25 45 83 69 130 52 97 99 185 136 250 13 25 57 106
97 180 40 74 85 158 100 185 15 28 60 111 100 185 40 74 85 158 100 185 15 28
46 86 70 130 50 93 97 181 132 245 33 60 80 147 168 310 40 74 87 162 105 195
18 33 52 96 75 140 24 44 56 105 73 135 17 30 40 73 52 95 12 22 44 81 70 130
70 133 115 216 135 250 10 17 37 66 60 110 69 130 202 376 278 515 19 36 47
88 62 115 76 143 132 245 135 245 2 0 38 -48 80 -106z"/>
</g>
</svg>
